<svg xmlns="http://www.w3.org/2000/svg" xmlns:xlink="http://www.w3.org/1999/xlink" width="18.0029296875" height="18.00390625" viewBox="0 0 18.0029296875 18.00390625" fill="none"><g opacity="1"  transform="translate(0 0)  rotate(0)"><path id="路径 2" fill-rule="evenodd" style="fill:#F6C63B" opacity="1" d="M14.4378,2.62328c0.39,0.62 0.21,1.72 -0.4,3.05c-0.84,1.86 -2.51,4.18 -4.67997,6.34002c-1.97,1.97 -3.96,3.4 -5.52,4.09c-1.38,0.61 -2.43,0.64 -2.86,-0.05c-0.91,-1.48 1.36,-5.68 5.08,-9.39002c3.72,-3.7 7.46997,-5.51 8.37997,-4.04zM3.40783,15.6233c1.47,-0.37 3.62,-1.79 5.76,-3.93c2.38997,-2.38002 4.09997,-4.99002 4.54997,-6.74002c0.16,-0.65 0.15,-1.19 -0.07,-1.54c-0.8,-1.3 -4.10997,0.29 -7.39997,3.57c-3.28,3.27002 -5.28,6.98002 -4.48,8.28002c0.28,0.45 0.86,0.55 1.64,0.36zM15.9078,9.75328c0.05,0 0.11,0.02 0.16,0.05c0.06,0.04 0.1,0.09 0.13,0.15l1.76,3.72002c0.06,0.12 0.06,0.28 0,0.41l-1.76,3.71c-0.03,0.06 -0.08,0.12 -0.13,0.15c-0.05,0.04 -0.11,0.06 -0.16,0.06h-3.52c-0.06,0 -0.12,-0.02 -0.17,-0.06c-0.05,-0.03 -0.1,-0.09 -0.13,-0.15l-1.76,-3.71c-0.06,-0.13 -0.06,-0.29 0,-0.41l1.76,-3.72002c0.03,-0.06 0.08,-0.11 0.13,-0.15c0.05,-0.03 0.11,-0.05 0.17,-0.05zM12.9978,13.8733c0,0.77 0.51,1.4 1.15,1.4c0.63,0 1.14,-0.63 1.14,-1.4c0,-0.77 -0.51,-1.39 -1.14,-1.39c-0.64,0 -1.15,0.62 -1.15,1.39z"></path><path id="路径 3" fill-rule="evenodd" style="fill:#E8E8E8" opacity="0.1" d="M8.05742 0.988281C4.35742 0.988281 1.35742 4.79828 1.35742 9.49828C1.35742 14.1883 4.35742 17.9983 8.05742 17.9983C11.7574 17.9983 14.7574 14.1883 14.7574 9.49828C14.7574 4.79828 11.7574 0.988281 8.05742 0.988281Z"></path><path id="路径 1" fill-rule="evenodd" style="fill:#C1D0FF" opacity="1" d="M6.7 0C3 0 0 3.81 0 8.51C0 13.2 3 17.01 6.7 17.01C10.4 17.01 13.4 13.2 13.4 8.51C13.4 3.81 10.4 0 6.7 0Z"></path><path id="路径 5" fill-rule="evenodd" style="fill:#FFFFFF" opacity="1" d="M2.46918,4.64641c0.64,-1.36 1.62,-2.43 2.77,-3.04c0.23,-0.12 0.49,0.04 0.56,0.34c0.08,0.3 -0.05,0.62 -0.27,0.74c-0.94,0.52 -1.72,1.38 -2.26,2.47c-0.13,0.27 -0.4,0.39 -0.62,0.25c-0.22,-0.15 -0.31,-0.49 -0.18,-0.76zM1.92918,6.12641v0c0.01,-0.04 0.02,-0.09 0.03,-0.13c0.09,-0.29 0.35,-0.42 0.58,-0.29l0.02,0.01c0.22,0.12 0.31,0.44 0.23,0.72c-0.07,0.28 -0.3,0.45 -0.53,0.38l-0.02,-0.01c-0.24,-0.08 -0.39,-0.39 -0.31,-0.68z"></path><path id="路径 4" fill-rule="evenodd" style="fill:#FFFFFF" opacity="0.6" d="M12.99,8.51c0,-4.42 -2.82,-7.99 -6.29,-7.99c-3.48,0 -6.29,3.57 -6.29,7.99c0,4.41 2.81,7.99 6.29,7.99c3.47,0 6.29,-3.58 6.29,-7.99zM6.7,17.01c-3.7,0 -6.7,-3.81 -6.7,-8.5c0,-4.7 3,-8.51 6.7,-8.51c3.7,0 6.7,3.81 6.7,8.51c0,4.69 -3,8.5 -6.7,8.5z"></path><path id="路径 6" fill-rule="evenodd" style="fill:#0F62FE" opacity="1" d="M3.41162 15.6231L3.83162 16.1031C5.40162 15.4131 7.38162 13.9831 9.36162 12.0131C11.5216 9.85312 13.2016 7.53312 14.0416 5.67312L13.7116 4.95312C13.2716 6.70312 11.5616 9.31312 9.17162 11.6931C7.03162 13.8331 4.87162 15.2531 3.41162 15.6231Z"></path></g></svg>