<svg xmlns="http://www.w3.org/2000/svg" xmlns:xlink="http://www.w3.org/1999/xlink" width="18.00299072265625" height="18" viewBox="0 0 18.00299072265625 18" fill="none"><g opacity="1"  transform="translate(0.00299072265625 0)  rotate(0)"><path id="路径 2" fill-rule="evenodd" style="fill:#F6C63B" opacity="1" d="M8.18832 14.5972C8.36832 14.7372 8.62832 14.7472 8.81832 14.6272L16.0782 10.097C16.2382 9.99701 16.3282 9.82701 16.3282 9.647C16.3382 9.45699 16.2382 9.28698 16.0782 9.17698L9.57831 5.0568C9.41831 4.9568 9.21831 4.9368 9.04832 5.0168L1.4384 8.40695C1.2584 8.48695 1.1384 8.64696 1.1084 8.83696C1.0884 9.02697 1.1684 9.21698 1.3184 9.33699L8.18832 14.5972Z"></path><path id="路径 3" fill-rule="evenodd" style="fill:#F6C63B" opacity="1" d="M0.908609 11.394C0.728611 11.474 0.608613 11.644 0.578613 11.834C0.558614 12.024 0.638612 12.214 0.79861 12.334L8.07851 17.8843C8.2585 18.0243 8.5185 18.0343 8.7185 17.9143L16.4084 13.1441C16.5684 13.044 16.6684 12.864 16.6684 12.684C16.6684 12.494 16.5684 12.314 16.4084 12.214L15.5684 11.684L8.7185 15.9342C8.5185 16.0542 8.2585 16.0442 8.07851 15.9042L1.7086 11.0439L1.7086 11.0439L0.908609 11.394Z"></path><path id="路径 6" fill-rule="evenodd" style="fill:#FFFFFF" opacity="0.6" d="M9.67059,0.55099h-0.01h0.01zM9.67059,0.55099l0.3,-0.46001l7.77011,4.91013c0.35,0.22 0.34,0.72002 0,0.93002l-8.67012,5.38017c-0.2,0.12 -0.46,0.11 -0.64,-0.03l-8.21009,-6.26019c-0.16,-0.12001 -0.24,-0.31001 -0.22,-0.50002c0.03,-0.19 0.15,-0.36001 0.33,-0.44001l9.1101,-4.0301c0.17,-0.08 0.37,-0.06 0.53,0.04l-0.3,0.46001l-9.1101,4.04011l8.21009,6.2502l8.67012,-5.38018zM9.67059,0.55099l0.3,-0.46001zM9.67059,0.55099l7.77011,4.91013l-8.67012,5.38018l-8.21009,-6.2502l9.1101,-4.04011h-0.01z"></path><path id="路径 1" fill-rule="evenodd" style="fill:#C1D0FF" opacity="1" d="M0.220001 5.01994L8.43005 11.2799C8.61005 11.4199 8.87006 11.4299 9.07006 11.3099L17.7401 5.92993C18.0801 5.71993 18.0901 5.21994 17.7401 4.99994L9.97006 0.0899989C9.81006 -0.00999988 9.61006 -0.0299996 9.44006 0.0499994L0.330002 4.07995C0.150001 4.15995 0.0300002 4.32995 0 4.51995C-0.0200001 4.70994 0.0600004 4.90994 0.220001 5.01994L0.220001 5.01994Z"></path><path id="路径 4" fill-rule="evenodd" style="fill:#E8E8E8" opacity="0.1" d="M0.220001 5.01994L8.43005 11.2799C8.61005 11.4199 8.87006 11.4299 9.07006 11.3099L17.7401 5.92993C18.0801 5.71993 18.0901 5.21994 17.7401 4.99994L9.97006 0.0899989C9.81006 -0.00999988 9.61006 -0.0299996 9.44006 0.0499994L0.330002 4.07995C0.150001 4.15995 0.0300002 4.32995 0 4.51995C-0.0200001 4.70994 0.0600004 4.90994 0.220001 5.01994L0.220001 5.01994Z"></path><path id="路径 5" fill-rule="evenodd" style="fill:#FFFFFF" opacity="1" d="M8.09872,8.3604l-3.80988,-2.80989c-0.23999,-0.17999 -0.28999,-0.51998 -0.11,-0.76997c0.19,-0.23999 0.53999,-0.28999 0.77998,-0.11l3.79988,2.7999c0.16999,0.11999 0.25999,0.30998 0.22999,0.50998c-0.02,0.19999 -0.15,0.36998 -0.32999,0.44998c-0.19,0.08 -0.39999,0.05 -0.55998,-0.07zM9.98866,8.5304c0.23994,0.18999 0.27994,0.52998 0.10004,0.75997c-0.18004,0.23999 -0.52003,0.29999 -0.76002,0.12999c-0.17,-0.11999 -0.25999,-0.30999 -0.24,-0.50998c0.02,-0.20999 0.15,-0.37998 0.33999,-0.45998c0.19,-0.07 0.39999,-0.04 0.55999,0.08z"></path></g></svg>