<svg xmlns="http://www.w3.org/2000/svg" xmlns:xlink="http://www.w3.org/1999/xlink" width="96" height="77.001953125" viewBox="0 0 96 77.001953125" fill="none"><g opacity="1"  transform="translate(0 0)  rotate(0)"><path id="路径 1" fill-rule="evenodd" style="fill:#FFE9B4" opacity="1" d="M96 73.2197L96 11.4597C96 9.36969 94.11 7.67969 91.77 7.67969L4.23 7.67969C1.89 7.67969 0 9.36969 0 11.4597L0 73.2197C0 75.3097 1.89 76.9997 4.23 76.9997L91.77 76.9997C94.1 76.9997 96 75.2997 96 73.2197Z"></path><path id="路径 2" fill-rule="evenodd" style="fill:#FFB02C" opacity="1" d="M41.17 3.03C40.64 1.23 38.99 0 37.12 0L4.23 0C1.89 0 0 1.9 0 4.26L0 25.95L48.05 25.95L41.17 3.03Z"></path><path id="路径 3" fill-rule="evenodd" style="fill:#FFCA28" opacity="1" d="M96 72.7515L96 17.7715C96 15.4215 94.11 13.5215 91.77 13.5215L4.23 13.5215C1.89 13.5215 0 15.4215 0 17.7715L0 72.7515C0 75.1015 1.89 77.0015 4.23 77.0015L91.77 77.0015C94.1 77.0015 96 75.0915 96 72.7515Z"></path></g></svg>