<svg xmlns="http://www.w3.org/2000/svg" xmlns:xlink="http://www.w3.org/1999/xlink" width="18" height="18.00390625" viewBox="0 0 18 18.00390625" fill="none"><g opacity="1"  transform="translate(0 0)  rotate(0)"><path id="路径 2" fill-rule="evenodd" style="fill:#F6C63B" opacity="1" d="M13.5 5.45312C11.01 5.45312 9 7.56312 9 10.1531C9 11.6831 9.71 13.1131 10.91 14.0031L9.43 17.0931C9.24 17.5031 9.52 18.0031 9.97 18.0031L16.97 18.0031C17.43 18.0031 17.72 17.4831 17.49 17.0631L15.89 14.1431C17.16 13.3131 18 11.8331 18 10.1531C18 7.56312 15.99 5.45312 13.5 5.45312Z"></path><path id="路径 3" fill-rule="evenodd" style="fill:#E8E8E8" opacity="0.1" d="M6.62 0C2.96 0 0 3.02 0 6.75C0 8.46 0.63 10.1 1.77 11.34C2.31 11.94 2.54 12.81 2.19 13.54L0.64 16.7C0.35 17.3 0.77 18 1.43 18L11.71 18C12.39 18 12.82 17.25 12.48 16.65L10.9 13.84C10.48 13.07 10.73 12.11 11.33 11.48C12.51 10.27 13.24 8.59 13.24 6.75C13.24 3.02 10.27 0 6.62 0Z"></path><path id="路径 5" fill-rule="evenodd" style="fill:#FFFFFF" opacity="1" d="M9.23726 7.77328C9.03727 9.10328 7.92727 10.0933 6.61727 10.0933C5.30727 10.0933 4.19727 9.10328 3.99727 7.77328C3.96727 7.54328 3.78727 7.36328 3.57727 7.36328C3.35727 7.36328 3.17727 7.54328 3.19727 7.77328C3.28727 8.56328 3.63727 9.30328 4.18727 9.87328C5.11727 10.8333 6.50727 11.1633 7.74727 10.7133C8.99726 10.2633 9.88727 9.12328 10.0373 7.77328C10.0573 7.54328 9.87726 7.36328 9.66726 7.36328C9.44727 7.36328 9.26727 7.54328 9.23726 7.77328Z"></path><path id="路径 1" fill-rule="evenodd" style="fill:#C1D0FF" opacity="1" d="M13.24,6.75c0,2.41 -1.24,4.52 -3.1,5.72l2.34,4.18c0.34,0.6 -0.09,1.35 -0.77,1.35h-10.28c-0.66,0 -1.08,-0.7 -0.79,-1.3l2.17,-4.43c-1.7,-1.22 -2.81,-3.24 -2.81,-5.52c0,-3.73 2.96,-6.75 6.62,-6.75c3.65,0 6.62,3.02 6.62,6.75zM9.51,8.51c-0.03,-0.05 -0.08,-0.09 -0.14,-0.11c-0.12,-0.03 -0.25,0.04 -0.29,0.17c-0.18,0.49 -0.49,0.92 -0.9,1.22c-0.98,0.74 -2.32,0.7 -3.25,-0.1c-0.39,-0.34 -0.68,-0.78 -0.82,-1.28c-0.04,-0.13 -0.16,-0.21 -0.29,-0.19c-0.06,0.01 -0.11,0.05 -0.15,0.1c-0.03,0.06 -0.04,0.12 -0.02,0.18c0.16,0.61 0.5,1.15 0.97,1.56c0.54,0.45 1.21,0.72 1.9,0.74c0.7,0.02 1.38,-0.2 1.94,-0.62c0.49,-0.37 0.87,-0.89 1.07,-1.49c0.02,-0.06 0.01,-0.12 -0.02,-0.18z"></path><path id="路径 4" fill-rule="evenodd" style="fill:#FFFFFF" opacity="0.6" d="M10.45,14.11c-0.59,-1.04 -0.21,-2.27 0.51,-3.01c1.08,-1.12 1.75,-2.66 1.75,-4.35c0,-3.42 -2.73,-6.2 -6.09,-6.2c-3.37,0 -6.09,2.78 -6.09,6.2c0,1.57 0.58,3.08 1.62,4.22c0.65,0.71 0.99,1.83 0.51,2.81l-1.55,3.16c-0.05,0.11 -0.05,0.25 0.02,0.35c0.06,0.11 0.18,0.17 0.3,0.16h10.29c0.12,0.01 0.23,-0.06 0.3,-0.17c0.06,-0.11 0.06,-0.24 0,-0.35zM12.48,16.65c0.34,0.6 -0.09,1.35 -0.77,1.35h-10.28c-0.66,0 -1.08,-0.7 -0.79,-1.3l1.55,-3.16c0.35,-0.73 0.12,-1.6 -0.42,-2.2c-1.1,-1.2 -1.77,-2.82 -1.77,-4.59c0,-3.73 2.96,-6.75 6.62,-6.75c3.65,0 6.62,3.02 6.62,6.75c0,1.78 -0.69,3.48 -1.91,4.73c-0.6,0.63 -0.85,1.59 -0.43,2.36z"></path></g></svg>