<svg xmlns="http://www.w3.org/2000/svg" xmlns:xlink="http://www.w3.org/1999/xlink" width="200" height="240.009765625" viewBox="0 0 200 240.009765625" fill="none">
<g opacity="0.3">
<g opacity="0.3">
<path d="M125.095 43.2043C121.229 39.3379 119.056 34.0978 119.051 28.6308L119.051 0L26.9106 0C19.7727 0 12.9291 2.83608 7.88113 7.88184C2.83477 12.9276 0 19.7726 0 26.9093L0 189.13C0.0098658 196.26 2.85122 203.094 7.89593 208.133C12.9406 213.17 19.7793 216 26.9106 216L137.519 216C144.651 216 151.489 213.17 156.534 208.133C161.579 203.094 164.42 196.26 164.43 189.13L164.43 49.2502L139.67 49.2502C134.203 49.2437 128.961 47.0707 125.095 43.2043Z"   fill="#000000" >
</path>
</g>
</g>
<path d="M164.43 49.25L139.67 49.25C134.203 49.2446 128.961 47.0707 125.095 43.2046C121.23 39.3389 119.055 34.0973 119.05 28.63L119.05 0L164.43 49.25Z"   fill="#000000" >
</path>
<path d="M23.61 147.09C23.6122 146.097 24.0086 145.146 24.7117 144.445C25.4149 143.744 26.3672 143.35 27.3604 143.35L130.6 143.35C131.592 143.35 132.543 143.744 133.245 144.445C133.946 145.147 134.34 146.098 134.34 147.09C134.341 147.582 134.246 148.069 134.058 148.524C133.87 148.979 133.596 149.393 133.248 149.741C132.9 150.089 132.487 150.366 132.033 150.554C131.579 150.743 131.092 150.84 130.6 150.84L27.3604 150.84C26.3649 150.84 25.4116 150.445 24.7084 149.742C24.0053 149.038 23.61 148.085 23.61 147.09Z"   fill="#000000" >
</path>
<path d="M23.61 104.86C23.61 103.865 24.0053 102.911 24.7084 102.208C25.4116 101.505 26.3649 101.11 27.3604 101.11L130.6 101.11C131.092 101.11 131.579 101.207 132.033 101.396C132.487 101.584 132.9 101.86 133.248 102.209C133.596 102.557 133.87 102.971 134.058 103.426C134.246 103.88 134.341 104.368 134.34 104.86C134.34 105.852 133.946 106.803 133.245 107.504C132.543 108.206 131.592 108.6 130.6 108.6L27.3604 108.6C26.3672 108.6 25.4149 108.206 24.7117 107.505C24.0086 106.804 23.6122 105.853 23.61 104.86Z"   fill="#000000" >
</path>
<path d="M24.7084 128.622C24.0053 127.918 23.61 126.965 23.61 125.97C23.6122 124.977 24.0086 124.026 24.7117 123.325C25.4149 122.624 26.3672 122.23 27.3604 122.23L130.6 122.23C131.592 122.23 132.543 122.624 133.245 123.325C133.946 124.027 134.34 124.978 134.34 125.97C134.341 126.462 134.246 126.949 134.058 127.404C133.87 127.859 133.596 128.273 133.248 128.621C132.9 128.969 132.487 129.246 132.033 129.434C131.579 129.623 131.092 129.72 130.6 129.72L27.3604 129.72C26.3649 129.72 25.4116 129.325 24.7084 128.622Z"   fill="#000000" >
</path>
<path d="M92.525 81.092C93.2265 81.795 93.62 82.7474 93.62 83.7402C93.6172 84.7313 93.2223 85.6811 92.5215 86.3818C91.8207 87.0827 90.8714 87.4776 89.8801 87.4802L27.3597 87.4802C26.367 87.4802 25.4148 87.0866 24.7119 86.3855C24.009 85.6844 23.6128 84.7331 23.61 83.7402C23.61 82.7457 24.0048 81.7919 24.7084 81.0886C25.4113 80.3853 26.3656 79.9902 27.3597 79.9902L89.8801 79.9902C90.8728 79.9929 91.8242 80.3891 92.525 81.092Z"   fill="#000000" >
</path>
<path d="M27.3597 58.8701L89.8801 58.8701C90.8728 58.8727 91.8242 59.269 92.525 59.9719C93.2265 60.6749 93.62 61.6273 93.62 62.6201C93.6172 63.6112 93.2223 64.5609 92.5215 65.2617C91.8207 65.9625 90.8714 66.3575 89.8801 66.3601L27.3597 66.3601C26.367 66.3601 25.4148 65.9662 24.7119 65.2652C24.009 64.564 23.6128 63.6129 23.61 62.6201C23.61 61.6255 24.0048 60.6715 24.7084 59.9682C25.4113 59.265 26.3656 58.8701 27.3597 58.8701Z"   fill="#000000" >
</path>
<path d="M58.9002 170.61L183.94 170.61C192.81 170.61 200 177.8 200 186.67L200 223.95C200 232.819 192.81 240.01 183.94 240.01L58.9002 240.01C50.0301 240.01 42.84 232.819 42.84 223.95L42.84 186.67C42.84 177.8 50.0301 170.61 58.9002 170.61Z"   fill="#000000" >
</path>
<path d="M83.86 213.38L83.86 220.65L76.34 220.65L76.34 213.38L83.86 213.38Z"   fill="#FFFFFF" >
</path>
<path d="M98.6192 204.24C101.539 204.267 102.999 202.99 102.999 200.41C102.999 197.743 101.539 196.41 98.6192 196.41L94.9195 196.41L94.9195 204.24L98.6192 204.24ZM107.599 193.24C108.545 194.17 109.284 195.289 109.766 196.525C110.249 197.761 110.464 199.085 110.398 200.41C110.435 202.158 110.003 203.885 109.149 205.41C108.276 206.901 106.982 208.102 105.429 208.86C103.556 209.745 101.5 210.174 99.4292 210.11L94.9195 210.1L94.9195 220.65L87.65 220.65L87.65 190.58L99.4292 190.58C102.999 190.58 105.729 191.47 107.599 193.24Z" fill-rule="evenodd"  fill="#FFFFFF" >
</path>
<path d="M125.329 190.576C128.233 190.502 131.11 191.144 133.708 192.445C135.998 193.629 137.884 195.467 139.127 197.725C140.428 200.123 141.082 202.818 141.027 205.545C141.081 208.282 140.427 210.986 139.127 213.395C137.875 215.669 135.984 217.525 133.688 218.735C131.104 220.058 128.23 220.714 125.329 220.645L113.98 220.645L113.98 190.576L125.329 190.576ZM124.699 196.955L121.249 196.955L121.249 214.135L124.699 214.135C127.112 214.282 129.486 213.473 131.308 211.885C132.121 211.051 132.751 210.056 133.157 208.964C133.563 207.872 133.737 206.708 133.668 205.545C133.738 204.384 133.564 203.221 133.157 202.13C132.751 201.04 132.121 200.047 131.308 199.215C129.489 197.619 127.114 196.807 124.699 196.955Z" fill-rule="evenodd"  fill="#FFFFFF" >
</path>
<path d="M164.76 196.37L152.43 196.37L152.43 202.96L161.95 202.96L161.95 208.49L152.43 208.49L152.43 220.65L145.15 220.65L145.15 190.58L164.76 190.58L164.76 196.37Z"   fill="#FFFFFF" >
</path>
<path d="M111.09 58.8701L128.77 58.8701C131.852 58.8701 134.35 61.3682 134.35 64.4501L134.35 82.1302C134.35 85.212 131.852 87.7101 128.77 87.7101L111.09 87.7101C108.008 87.7101 105.51 85.212 105.51 82.1302L105.51 64.4501C105.51 61.3682 108.008 58.8701 111.09 58.8701Z"   fill="#000000" >
</path>
</svg>
