<svg xmlns="http://www.w3.org/2000/svg" xmlns:xlink="http://www.w3.org/1999/xlink" width="18.00054931640625" height="18.000160217285156" viewBox="0 0 18.00054931640625 18.000160217285156" fill="none"><g opacity="1"  transform="translate(0 0.00016021728515625)  rotate(0)"><g opacity="1"  transform="translate(0 0)  rotate(0)"><path id="路径_5640" fill-rule="evenodd" style="fill:#C3CEFC" opacity="1" d="M17.14 4.11C15.31 3.09 11.75 1.21 10.11 0.34C9.20002 -0.26 8.67002 0.01 7.67002 0.56C5.98001 1.41 3.00001 2.96 1.06 3.94C-0.390001 4.68 -0.310001 5.21 1.06 6.08C3.10001 7.35 7.02002 9.34 7.89002 9.77C8.65002 10.22 9.52002 10.18 10.26 9.68C11.11 9.16 12.18 8.5 16.1 6.35L16.1 9.55L15.37 10.61L16.58 12.15L17.92 10.61L17.22 9.55L17.22 5.72C17.68 5.35 18.76 5.04 17.14 4.11Z"></path><path id="路径_5641" fill-rule="evenodd" style="fill:#F4CA51" opacity="1" d="M10.4479 11.2833C9.52786 11.7833 8.49786 11.7833 7.57787 11.2833C6.11787 10.6233 4.90788 10.1233 3.82788 9.54328L3.82788 15.4533C5.27788 17.1633 7.15787 18.0633 9.09786 17.9933C10.9279 18.0233 12.7078 17.1233 14.0578 15.4633L14.0578 9.11328C12.6678 9.90328 11.3779 10.7633 10.4279 11.2833L10.4479 11.2833Z"></path></g></g></svg>