<svg xmlns="http://www.w3.org/2000/svg" xmlns:xlink="http://www.w3.org/1999/xlink" width="15" height="12" viewBox="0 0 15 12" fill="none"><g opacity="1"  transform="translate(0 0)  rotate(0)"><path id="路径 1" fill-rule="evenodd" style="fill:#C7CDF2" opacity="1" d="M15 11.4073L15 1.78727C15 1.45727 14.7 1.19727 14.34 1.19727L0.66 1.19727C0.3 1.19727 0 1.45727 0 1.78727L0 11.4073C0 11.7373 0.3 11.9973 0.66 11.9973L14.34 11.9973C14.7 11.9973 15 11.7373 15 11.4073Z"></path><path id="路径 2" fill-rule="evenodd" style="fill:#4962F2" opacity="1" d="M6.42998 0.469999C6.34998 0.19 6.08998 0 5.79998 0L0.659998 0C0.299999 0 0 0.299999 0 0.659998L0 4.03999L7.50998 4.03999L6.42998 0.469999Z"></path><path id="路径 3" fill-rule="evenodd" style="fill:#677CED" opacity="1" d="M15 11.3374L15 2.76742C15 2.40742 14.7 2.10742 14.34 2.10742L0.66 2.10742C0.3 2.10742 0 2.40742 0 2.76742L0 11.3374C0 11.7074 0.3 11.9974 0.66 11.9974L14.34 11.9974C14.7 11.9974 15 11.6974 15 11.3374Z"></path></g></svg>