<svg xmlns="http://www.w3.org/2000/svg" xmlns:xlink="http://www.w3.org/1999/xlink" width="15.98046875" height="14.265625" viewBox="0 0 15.98046875 14.265625" fill="none"><g opacity="1"  transform="translate(0 0)  rotate(0)"><path id="路径 5472" fill-rule="evenodd" style="fill:#333333" opacity="1" d="M7.99031,11.4005c-1.89,0 -3.42,-1.52995 -3.42,-3.41995c0,-1.89 1.53,-3.42 3.42,-3.42c1.89,0 3.41999,1.53 3.41999,3.42c0,1.89 -1.52999,3.41995 -3.41999,3.41995zM7.99091,10.2611c1.26,0 2.27999,-1.01995 2.27999,-2.27995c0,-1.26 -1.01999,-2.28 -2.27999,-2.28c-1.26,0 -2.28,1.02 -2.28,2.28c0,1.26 1.02,2.27995 2.28,2.27995z"></path><path id="路径 5473" fill-rule="evenodd" style="fill:#333333" opacity="1" d="M14.26,14.2609zM14.26,14.2609h-12.55c-0.94,0 -1.71,-0.76 -1.71,-1.71v-9.11996c0,-0.95 0.77,-1.72 1.71,-1.72h1.72c0.31,0 0.57,0.26 0.57,0.58c0,0.31 -0.26,0.57 -0.57,0.57h-1.72c-0.31,0 -0.57,0.25 -0.57,0.57v9.12996c0,0.31 0.26,0.57 0.57,0.57h12.55c0.32,0 0.57,-0.26 0.57,-0.57v-9.12996c0,-0.32 -0.25,-0.58 -0.57,-0.58h-6.27c-0.32,0 -0.57,-0.25 -0.57,-0.57c0,-0.31 0.25,-0.57 0.57,-0.57h6.27c0.95,0 1.72,0.77 1.72,1.71v9.12996c-0.01,0.95 -0.77,1.71 -1.72,1.71z"></path><path id="路径 5474" fill-rule="evenodd" style="fill:#333333" opacity="1" d="M12.5498,4.27969zM13.3998,5.13969c-0.47,0 -0.85,-0.38 -0.85,-0.86c0,-0.47 0.38,-0.85 0.85,-0.85c0.48,0 0.86,0.38 0.86,0.85c0,0.48 -0.38,0.86 -0.86,0.86z"></path><path id="路径 5475" fill-rule="evenodd" style="fill:#333333" opacity="1" d="M7.42023,0.57zM7.42023,0.57c0,0.32 -0.26,0.57 -0.58,0.57h-2.28c-0.31,0 -0.57,-0.25 -0.57,-0.57c0,-0.31 0.26,-0.57 0.57,-0.57h2.28c0.32,0 0.58,0.26 0.58,0.57z"></path></g></svg>