<svg xmlns="http://www.w3.org/2000/svg" xmlns:xlink="http://www.w3.org/1999/xlink" width="21.080078125" height="18.2109375" viewBox="0 0 21.080078125 18.2109375" fill="none"><path id="路径 1" fill-rule="evenodd" style="fill:#80B8F8" opacity="1" d="M18.97,1.44c1.2,0 2.11,0.96 2.11,2.11v12.55c0,1.15 -0.96,2.11 -2.11,2.11h-16.86c-1.15,0 -2.11,-0.96 -2.11,-2.11v-13.99c0,-1.15 0.96,-2.11 2.11,-2.11h4.17c0.14,0 0.33,0.05 0.48,0.14l2.15,1.3zM1.87,2.4v1.96c0,0.29 0.19,0.48 0.48,0.48h16.29c0.29,0 0.48,-0.19 0.48,-0.48v-0.53c0,-0.28 -0.19,-0.48 -0.48,-0.48h-10.02c-0.14,0 -0.33,-0.04 -0.47,-0.14l-2.16,-1.29h-3.59c-0.24,0 -0.48,0.24 -0.53,0.48z"></path></svg>