<svg xmlns="http://www.w3.org/2000/svg" xmlns:xlink="http://www.w3.org/1999/xlink" width="35.0001220703125" height="25.001953125" viewBox="0 0 35.0001220703125 25.001953125" fill="none"><g opacity="1"  transform="translate(0 0)  rotate(0)"><path id="路径 1" fill-rule="evenodd" style="fill:#FFE9B4" opacity="1" d="M35 23.7722L35 3.72219C35 3.04219 34.31 2.49219 33.46 2.49219L1.54 2.49219C0.690001 2.49219 0 3.04219 0 3.72219L0 23.7722C0 24.4522 0.690001 25.0022 1.54 25.0022L33.46 25.0022C34.31 25.0022 35 24.4422 35 23.7722Z"></path><path id="路径 2" fill-rule="evenodd" style="fill:#FFB02C" opacity="1" d="M15.01 0.980001C14.82 0.4 14.22 0 13.53 0L1.54 0C0.689999 0 0 0.620001 0 1.38L0 8.43001L17.52 8.43001L15.01 0.980001Z"></path><path id="路径 3" fill-rule="evenodd" style="fill:#FFCA28" opacity="1" d="M35 23.6206L35 5.77063C35 5.01063 34.31 4.39062 33.46 4.39062L1.54 4.39062C0.690001 4.39062 0 5.01063 0 5.77063L0 23.6206C0 24.3806 0.690001 25.0006 1.54 25.0006L33.46 25.0006C34.31 25.0006 35 24.3806 35 23.6206Z"></path></g></svg>