<svg xmlns="http://www.w3.org/2000/svg" xmlns:xlink="http://www.w3.org/1999/xlink" width="2" height="12" viewBox="0 0 2 12" fill="none"><g opacity="1"  transform="translate(0 0)  rotate(0)"><path id="圆形 1" fill-rule="evenodd" style="fill:#333333" opacity="1" d="M1 5C0.45 5 0 5.45 0 6C0 6.55 0.45 7 1 7C1.55 7 2 6.55 2 6C2 5.45 1.55 5 1 5Z"></path><path id="圆形 1" fill-rule="evenodd" style="fill:#333333" opacity="1" d="M1 10C0.45 10 0 10.45 0 11C0 11.55 0.45 12 1 12C1.55 12 2 11.55 2 11C2 10.45 1.55 10 1 10Z"></path><path id="圆形 1" fill-rule="evenodd" style="fill:#333333" opacity="1" d="M1 0C0.45 0 0 0.45 0 1C0 1.55 0.45 2 1 2C1.55 2 2 1.55 2 1C2 0.45 1.55 0 1 0Z"></path></g></svg>