<svg xmlns="http://www.w3.org/2000/svg" xmlns:xlink="http://www.w3.org/1999/xlink" width="12.005859375"
  height="12.001953125" viewBox="0 0 12.005859375 12.001953125" fill="currentColor">
  <path id="路径 1" fill-rule="evenodd" opacity="1" fill="currentColor"
    d="M11.9229 0.451953C12.0329 0.341953 12.0329 0.181953 11.9229 0.0819531C11.8229 -0.0280469 11.6629 -0.0280469 11.5529 0.0819531L6.00293 5.63195L0.45293 0.0819531C0.34293 -0.0280469 0.18293 -0.0280469 0.0829297 0.0819531C-0.0270703 0.181953 -0.0270703 0.341953 0.0829297 0.451953L5.63293 6.00195L0.0829297 11.552C-0.0270703 11.662 -0.0270703 11.822 0.0829297 11.922C0.13293 11.972 0.19293 12.002 0.26293 12.002C0.33293 12.002 0.39293 11.972 0.44293 11.922L6.00293 6.37195L11.5529 11.922C11.6029 11.972 11.6729 12.002 11.7429 12.002C11.8029 12.002 11.8729 11.972 11.9229 11.922C12.0229 11.822 12.0229 11.662 11.9229 11.552L6.37293 6.00195L11.9229 0.451953Z">
  </path>
</svg>