<svg xmlns="http://www.w3.org/2000/svg" xmlns:xlink="http://www.w3.org/1999/xlink" width="13.5" height="13.5" viewBox="0 0 13.5 13.5" fill="none"><path id="XMLID 223" fill-rule="evenodd" fill="url(#linear_0)" opacity="1" d="M11.58,13.17l-2.86,-2.86c-0.89,0.59 -1.95,0.94 -3.09,0.94c-3.11,0 -5.63,-2.52 -5.63,-5.62c0,-3.11 2.52,-5.63 5.63,-5.63c3.1,0 5.62,2.52 5.62,5.63c0,1.14 -0.35,2.2 -0.94,3.09l2.86,2.86c0.44,0.44 0.44,1.15 0,1.59c-0.44,0.44 -1.15,0.44 -1.59,0zM9.56,5.63c0,-2.18 -1.76,-3.94 -3.93,-3.94c-2.18,0 -3.94,1.76 -3.94,3.94c0,2.17 1.76,3.93 3.94,3.93c2.17,0 3.93,-1.76 3.93,-3.93z"></path><defs><linearGradient id="linear_0" x1="0%" y1="50%" x2="100%" y2="50%" gradientUnits="objectBoundingBox"><stop offset="0" stop-color="#B465DA" stop-opacity="1" /><stop offset="0.33" stop-color="#CF6CC9" stop-opacity="1" /><stop offset="0.66" stop-color="#EE609C" stop-opacity="1" /><stop offset="1" stop-color="#EE609C" stop-opacity="1" /></linearGradient></defs></svg>