<?xml version="1.0" encoding="UTF-8"?>
<svg viewBox="0 0 24 24" fill="none" xmlns="http://www.w3.org/2000/svg">
                <circle cx="12" cy="7" r="2" fill="#1E3A8A" stroke="#1E40AF" stroke-width="0.2"/>
                <circle cx="12" cy="7" r="1.5" fill="#3B82F6"/>
                <circle cx="12" cy="7" r="1" fill="#60A5FA"/>
                <circle cx="12" cy="7" r="0.3" fill="#1E40AF"/>
                <circle cx="11" cy="6.2" r="0.1" fill="#1E40AF"/>
                <circle cx="13" cy="6.2" r="0.1" fill="#1E40AF"/>
                <circle cx="11" cy="7.8" r="0.1" fill="#1E40AF"/>
                <circle cx="13" cy="7.8" r="0.1" fill="#1E40AF"/>
                <rect x="11.2" y="4" width="1.6" height="3" fill="#374151" rx="0.8"/>
                <rect x="11.5" y="4.3" width="1" height="2.7" fill="#6B7280" rx="0.5"/>
                
                <ellipse cx="12" cy="14" rx="4" ry="2.5" fill="#BFDBFE" opacity="0.5"/>
                <ellipse cx="12" cy="15" rx="4.5" ry="2" fill="#DBEAFE" opacity="0.4"/>
                
                <circle cx="9" cy="10.5" r="0.4" fill="#3B82F6" opacity="0.7"/>
                <circle cx="10.5" cy="10" r="0.3" fill="#60A5FA" opacity="0.6"/>
                <circle cx="12" cy="9.5" r="0.4" fill="#3B82F6" opacity="0.7"/>
                <circle cx="13.5" cy="10" r="0.3" fill="#60A5FA" opacity="0.6"/>
                <circle cx="15" cy="10.5" r="0.4" fill="#3B82F6" opacity="0.7"/>
                
                <circle cx="8.5" cy="12" r="0.5" fill="#60A5FA" opacity="0.6"/>
                <circle cx="10" cy="11.7" r="0.4" fill="#93C5FD" opacity="0.5"/>
                <circle cx="12" cy="11.3" r="0.5" fill="#60A5FA" opacity="0.6"/>
                <circle cx="14" cy="11.7" r="0.4" fill="#93C5FD" opacity="0.5"/>
                <circle cx="15.5" cy="12" r="0.5" fill="#60A5FA" opacity="0.6"/>
                
                <circle cx="9" cy="14" r="0.6" fill="#93C5FD" opacity="0.5"/>
                <circle cx="12" cy="13.5" r="0.6" fill="#93C5FD" opacity="0.5"/>
                <circle cx="15" cy="14" r="0.6" fill="#93C5FD" opacity="0.5"/>
                
                <circle cx="8" cy="16" r="0.4" fill="#DBEAFE" opacity="0.3"/>
                <circle cx="12" cy="16.5" r="0.4" fill="#DBEAFE" opacity="0.3"/>
                <circle cx="16" cy="16" r="0.4" fill="#DBEAFE" opacity="0.3"/>
            </svg>