<?xml version="1.0" encoding="UTF-8"?>
<svg viewBox="0 0 24 24" fill="none" xmlns="http://www.w3.org/2000/svg">
                <rect x="4" y="8" width="16" height="8" fill="#4682B4" rx="0.5"/>
                <rect x="4.5" y="8.5" width="15" height="7" fill="#87CEEB" rx="0.5"/>
                <rect x="5" y="9" width="3.5" height="6" fill="#B0E0E6" stroke="#4682B4" stroke-width="0.2"/>
                <rect x="9" y="9" width="3" height="6" fill="#B0E0E6" stroke="#4682B4" stroke-width="0.2"/>
                <rect x="12.5" y="9" width="3" height="6" fill="#B0E0E6" stroke="#4682B4" stroke-width="0.2"/>
                <rect x="16" y="9" width="3.5" height="6" fill="#B0E0E6" stroke="#4682B4" stroke-width="0.2"/>
                <rect x="10" y="6" width="4" height="1.5" fill="#2F4F4F" rx="0.3"/>
                <circle cx="12" cy="6.8" r="0.4" fill="#FFD700"/>
                <circle cx="6" cy="4" r="1" fill="#696969" opacity="0.6"/>
                <circle cx="10" cy="3" r="0.8" fill="#696969" opacity="0.5"/>
                <circle cx="14" cy="3" r="0.8" fill="#696969" opacity="0.5"/>
                <circle cx="18" cy="4" r="1" fill="#696969" opacity="0.6"/>
                <path d="M4 8 L20 8" stroke="#FF0000" stroke-width="1" opacity="0.8"/>
                <rect x="3.5" y="7.5" width="17" height="0.5" fill="#708090"/>
                <rect x="3.5" y="16" width="17" height="0.5" fill="#708090"/>
                <circle cx="21" cy="10" r="0.5" fill="#00FF00"/>
            </svg>