<?xml version="1.0" encoding="UTF-8"?>
<svg viewBox="0 0 24 24" fill="none" xmlns="http://www.w3.org/2000/svg">
                <circle cx="12" cy="5" r="2" fill="#4682B4"/>
                <circle cx="12" cy="5" r="1.5" fill="#87CEEB"/>
                <rect x="11.2" y="2" width="1.6" height="3" fill="#2F4F4F" rx="0.8"/>
                <circle cx="8" cy="10" r="0.8" fill="#4A90E2" opacity="0.8"/>
                <circle cx="16" cy="10" r="0.8" fill="#4A90E2" opacity="0.8"/>
                <circle cx="6" cy="13" r="0.7" fill="#4A90E2" opacity="0.7"/>
                <circle cx="18" cy="13" r="0.7" fill="#4A90E2" opacity="0.7"/>
                <circle cx="10" cy="12" r="0.9" fill="#4A90E2" opacity="0.8"/>
                <circle cx="14" cy="12" r="0.9" fill="#4A90E2" opacity="0.8"/>
                <circle cx="12" cy="11" r="1" fill="#4A90E2" opacity="0.9"/>
                <circle cx="7" cy="16" r="0.6" fill="#4A90E2" opacity="0.6"/>
                <circle cx="17" cy="16" r="0.6" fill="#4A90E2" opacity="0.6"/>
                <circle cx="9" cy="18" r="0.5" fill="#4A90E2" opacity="0.5"/>
                <circle cx="15" cy="18" r="0.5" fill="#4A90E2" opacity="0.5"/>
                <circle cx="12" cy="17" r="0.7" fill="#4A90E2" opacity="0.7"/>
                <circle cx="12" cy="20" r="0.4" fill="#4A90E2" opacity="0.4"/>
                <path d="M12 7 L10 9 M12 7 L14 9 M12 7 L12 9" stroke="#60A5FA" stroke-width="0.5" opacity="0.7"/>
            </svg>