<?xml version="1.0" encoding="UTF-8"?>
<svg viewBox="0 0 24 24" fill="none" xmlns="http://www.w3.org/2000/svg">
                <!-- 左侧CAD图纸 -->
                <rect x="3" y="7" width="6" height="8" fill="#F8F9FA" stroke="#4682B4" stroke-width="0.3" rx="0.4"/>
                <rect x="3.2" y="7.2" width="5.6" height="7.6" fill="#FFFFFF" rx="0.3"/>
                
                <!-- CAD几何图形 -->
                <rect x="4" y="8.5" width="2" height="1.5" fill="none" stroke="#2E86AB" stroke-width="0.3"/>
                <circle cx="6.5" cy="10.5" r="0.8" fill="none" stroke="#2E86AB" stroke-width="0.3"/>
                <path d="M4.5 12.5 L5.5 13.5 L6.5 12.5" fill="none" stroke="#2E86AB" stroke-width="0.3"/>
                
                <!-- 控制点 -->
                <circle cx="4" cy="8.5" r="0.1" fill="#FF6B35"/>
                <circle cx="6" cy="8.5" r="0.1" fill="#FF6B35"/>
                <circle cx="6" cy="10" r="0.1" fill="#FF6B35"/>
                <circle cx="4" cy="10" r="0.1" fill="#FF6B35"/>
                
                <!-- 转换箭头 -->
                <path d="M9.5 11 L13.5 11 M12.5 10 L13.5 11 L12.5 12" stroke="#4CAF50" stroke-width="0.6" fill="none"/>
                <circle cx="11.5" cy="11" r="1.2" fill="none" stroke="#4CAF50" stroke-width="0.2" opacity="0.4"/>
                
                <!-- 转换标识 -->
                <rect x="10.8" y="12.5" width="1.4" height="0.5" fill="#4CAF50" rx="0.25"/>
                <text x="11.5" y="12.85" text-anchor="middle" fill="#FFFFFF" font-size="0.4" font-weight="bold">转换</text>
                
                <!-- 右侧数字化文件 -->
                <rect x="15" y="8" width="6" height="7" fill="#E3F2FD" stroke="#1976D2" stroke-width="0.3" rx="0.4"/>
                <rect x="15.2" y="8.2" width="5.6" height="6.6" fill="#F3F8FF" rx="0.3"/>
                
                <!-- 3D立体效果 -->
                <path d="M20.6 8.2 L20.8 8 L20.8 14.8 L20.6 15 L20.6 14.8" fill="#BBDEFB" stroke="#1565C0" stroke-width="0.15"/>
                <path d="M15.2 8 L20.8 8 L20.6 8.2 L15.2 8.2" fill="#BBDEFB" stroke="#1565C0" stroke-width="0.15"/>
                
                <!-- 数字化内容 -->
                <rect x="16" y="9" width="4" height="0.3" fill="#2196F3" rx="0.15"/>
                <rect x="16" y="9.8" width="3" height="0.25" fill="#64B5F6" rx="0.12"/>
                <rect x="16" y="10.4" width="3.5" height="0.25" fill="#64B5F6" rx="0.12"/>
                
                <!-- 3D模型表示 -->
                <path d="M16.5 11.5 L18 11 L19.5 11.5 L18 12 Z" fill="#42A5F5" stroke="#1976D2" stroke-width="0.15"/>
                <path d="M16.5 11.5 L16.5 13 L18 13.5 L18 12 Z" fill="#1E88E5" stroke="#1976D2" stroke-width="0.15"/>
                <path d="M18 12 L18 13.5 L19.5 13 L19.5 11.5 Z" fill="#1976D2" stroke="#0D47A1" stroke-width="0.15"/>
                
                <!-- 数据流指示 -->
                <circle cx="10" cy="9" r="0.15" fill="#4CAF50" opacity="0.6"/>
                <circle cx="10.5" cy="8.7" r="0.12" fill="#4CAF50" opacity="0.5"/>
                <circle cx="11" cy="8.5" r="0.1" fill="#4CAF50" opacity="0.4"/>
                
                <!-- 格式标识 -->
                <rect x="18" y="13.8" width="2" height="0.6" fill="#FF9800" rx="0.15"/>
                <text x="19" y="14.2" text-anchor="middle" fill="#FFFFFF" font-size="0.5" font-weight="bold">DWG</text>
                
                <!-- 成功转换指示 -->
                <circle cx="19.5" cy="9" r="0.5" fill="#4CAF50"/>
                <path d="M19.2 9 L19.4 9.2 L19.8 8.8" stroke="#FFFFFF" stroke-width="0.15" fill="none"/>
            </svg>