<?xml version="1.0" encoding="UTF-8"?>
<svg viewBox="0 0 24 24" fill="none" xmlns="http://www.w3.org/2000/svg">
                <!-- 云朵背景 -->
                <path d="M18.5 10C20.4 10 22 11.6 22 13.5C22 15.4 20.4 17 18.5 17H6.5C4.6 17 3 15.4 3 13.5C3 11.6 4.6 10 6.5 10C6.5 8.1 8.1 6.5 10 6.5C11.3 6.5 12.4 7.3 12.8 8.4C13.4 8.1 14.1 8 14.8 8C16.7 8 18.3 9.6 18.3 11.5C18.4 10.6 18.5 10 18.5 10Z" fill="#4A90E2" opacity="0.3"/>
                
                <!-- 云朵主体 -->
                <ellipse cx="6.5" cy="12.5" rx="3" ry="2.2" fill="#87CEEB"/>
                <ellipse cx="12" cy="11.8" rx="3.5" ry="2.5" fill="#ADD8E6"/>
                <ellipse cx="17" cy="12.8" rx="2.8" ry="2.1" fill="#87CEEB"/>
                <ellipse cx="14.5" cy="14.2" rx="2.2" ry="1.6" fill="#B0E0E6"/>
                
                <!-- CAD设计元素 -->
                <!-- 几何图形1 - 矩形框架 -->
                <rect x="8" y="8.5" width="3" height="2" fill="none" stroke="#1E90FF" stroke-width="0.4"/>
                <rect x="8.2" y="8.7" width="2.6" height="1.6" fill="none" stroke="#4169E1" stroke-width="0.2"/>
                
                <!-- 几何图形2 - 圆形 -->
                <circle cx="14.5" cy="9.2" r="1" fill="none" stroke="#1E90FF" stroke-width="0.4"/>
                <circle cx="14.5" cy="9.2" r="0.7" fill="none" stroke="#4169E1" stroke-width="0.2"/>
                
                <!-- 设计线条 -->
                <line x1="7" y1="11.5" x2="9.5" y2="9.5" stroke="#1E90FF" stroke-width="0.3" stroke-dasharray="0.5,0.5"/>
                <line x1="13.5" y1="10.2" x2="16" y2="12" stroke="#1E90FF" stroke-width="0.3" stroke-dasharray="0.5,0.5"/>
                
                <!-- 尺寸标注线 -->
                <path d="M8 7.8 L11 7.8 M8 7.6 L8 8 M11 7.6 L11 8" stroke="#4169E1" stroke-width="0.25" fill="none"/>
                <path d="M15.8 8.2 L15.8 10.2 M15.6 8.2 L16 8.2 M15.6 10.2 L16 10.2" stroke="#4169E1" stroke-width="0.25" fill="none"/>
                
                <!-- 控制点 -->
                <circle cx="8" cy="8.5" r="0.15" fill="#FF6B35"/>
                <circle cx="11" cy="8.5" r="0.15" fill="#FF6B35"/>
                <circle cx="11" cy="10.5" r="0.15" fill="#FF6B35"/>
                <circle cx="8" cy="10.5" r="0.15" fill="#FF6B35"/>
                <circle cx="13.5" cy="9.2" r="0.15" fill="#FF6B35"/>
                <circle cx="15.5" cy="9.2" r="0.15" fill="#FF6B35"/>
                
                <!-- 网格背景 -->
                <defs>
                    <pattern id="grid" width="0.8" height="0.8" patternUnits="userSpaceOnUse">
                        <path d="M 0.8 0 L 0 0 0 0.8" fill="none" stroke="#E0E0E0" stroke-width="0.1" opacity="0.5"/>
                    </pattern>
                </defs>
                <rect x="6" y="7" width="12" height="8" fill="url(#grid)" opacity="0.3"/>
                
                <!-- 自主产权标识 -->
                <rect x="16.5" y="6.5" width="3" height="1.5" fill="#32CD32" rx="0.3" opacity="0.8"/>
                <text x="18" y="7.4" text-anchor="middle" fill="#FFFFFF" font-size="0.8" font-weight="bold">自主</text>
                
                <!-- 云计算连接线 -->
                <circle cx="12" cy="5" r="0.3" fill="#4169E1" opacity="0.6"/>
                <circle cx="9" cy="4" r="0.25" fill="#4169E1" opacity="0.5"/>
                <circle cx="15" cy="4.5" r="0.25" fill="#4169E1" opacity="0.5"/>
                <path d="M12 5.3 Q10.5 6 9 5.5 M12 5.3 Q13.5 5.8 15 5.2" stroke="#4169E1" stroke-width="0.2" opacity="0.6" fill="none"/>
            </svg>