<?xml version="1.0" encoding="UTF-8"?>
<svg viewBox="0 0 24 24" fill="none" xmlns="http://www.w3.org/2000/svg">
                <!-- 主水管系统 -->
                <rect x="3" y="10" width="18" height="3" fill="#2E86AB" rx="1.5"/>
                <rect x="3.2" y="10.2" width="17.6" height="2.6" fill="#4A90E2" rx="1.3"/>
                
                <!-- 分支管道 -->
                <rect x="7" y="8" width="1.5" height="4" fill="#2E86AB" rx="0.75"/>
                <rect x="15" y="8" width="1.5" height="4" fill="#2E86AB" rx="0.75"/>
                <rect x="11" y="13" width="1.5" height="4" fill="#2E86AB" rx="0.75"/>
                
                <!-- 阀门控制点 -->
                <circle cx="7.75" cy="11.5" r="1.2" fill="#FFD700"/>
                <circle cx="7.75" cy="11.5" r="0.8" fill="#FFA500"/>
                <rect x="7.3" y="11.1" width="0.9" height="0.8" fill="#FF6B35" rx="0.2"/>
                
                <circle cx="15.75" cy="11.5" r="1.2" fill="#FFD700"/>
                <circle cx="15.75" cy="11.5" r="0.8" fill="#FFA500"/>
                <rect x="15.3" y="11.1" width="0.9" height="0.8" fill="#FF6B35" rx="0.2"/>
                
                <!-- 水流指示 -->
                <path d="M5 11.5 L6 11.5 M5.3 11.2 L6 11.5 L5.3 11.8" stroke="#87CEEB" stroke-width="0.4" fill="none"/>
                <path d="M9 11.5 L10 11.5 M9.3 11.2 L10 11.5 L9.3 11.8" stroke="#87CEEB" stroke-width="0.4" fill="none"/>
                <path d="M13 11.5 L14 11.5 M13.3 11.2 L14 11.5 L13.3 11.8" stroke="#87CEEB" stroke-width="0.4" fill="none"/>
                
                <!-- 水流动效果 -->
                <circle cx="5.5" cy="11.5" r="0.2" fill="#87CEEB" opacity="0.7"/>
                <circle cx="9.5" cy="11.5" r="0.2" fill="#87CEEB" opacity="0.6"/>
                <circle cx="13.5" cy="11.5" r="0.2" fill="#87CEEB" opacity="0.5"/>
                <circle cx="17.5" cy="11.5" r="0.2" fill="#87CEEB" opacity="0.4"/>
                
                <!-- 智能传感器 -->
                <rect x="18.5" y="9.5" width="2" height="4" fill="#2C3E50" rx="0.3"/>
                <circle cx="19.5" cy="11" r="0.3" fill="#27AE60"/>
                <circle cx="19.5" cy="12" r="0.3" fill="#3498DB"/>
                
                <!-- 系统压力表 -->
                <circle cx="3.5" cy="8" r="1.5" fill="#F8F9FA" stroke="#BDC3C7" stroke-width="0.2"/>
                <circle cx="3.5" cy="8" r="1.2" fill="#FFFFFF"/>
                <path d="M3.5 7.3 A0.7 0.7 0 0 1 4.1 8.2" stroke="#E74C3C" stroke-width="0.15" fill="none"/>
                <circle cx="3.5" cy="8" r="0.1" fill="#2C3E50"/>
                
                <!-- AI智能芯片标识 -->
                <rect x="17.5" y="6" width="2.5" height="1.5" fill="#9B59B6" rx="0.3"/>
                <rect x="17.7" y="6.2" width="2.1" height="1.1" fill="#8E44AD" rx="0.2"/>
                <text x="18.75" y="6.9" text-anchor="middle" fill="#FFFFFF" font-size="0.8" font-weight="bold">AI</text>
                <circle cx="17.9" cy="6.4" r="0.08" fill="#FFFFFF" opacity="0.8"/>
                <circle cx="19.6" cy="6.4" r="0.08" fill="#FFFFFF" opacity="0.8"/>
            </svg>