<svg xmlns="http://www.w3.org/2000/svg" xmlns:xlink="http://www.w3.org/1999/xlink" width="18" height="18.005859375" viewBox="0 0 18 18.005859375" fill="none"><g opacity="1"  transform="translate(0 0.001953125)  rotate(0)"><path id="路径 1" fill-rule="evenodd" style="fill:#C1D0FF" opacity="1" d="M5.78 0.08L0.32 3.05C0.12 3.16 0 3.36 0 3.57L0 9.52C0 9.73 0.12 9.93 0.32 10.04L5.78 13.01C5.97 13.12 6.22 13.12 6.42 13.01L11.87 10.04C12.07 9.93 12.19 9.73 12.19 9.52L12.19 3.57C12.19 3.36 12.07 3.16 11.87 3.05L6.42 0.08C6.22 -0.03 5.97 -0.03 5.78 0.08L5.78 0.08Z"></path><path id="路径 2" fill-rule="evenodd" style="fill:#F6C63B" opacity="1" d="M13.3656,1.70672c0.17,-0.09 0.39,-0.09 0.56,0l3.79,2.06c0.18,0.09 0.28,0.26 0.28,0.45v4.11c0,0.19 -0.1,0.36 -0.28,0.46l-3.79,2.04998c-0.17,0.1 -0.39,0.1 -0.56,0l-3.80001,-2.04998c-0.17,-0.1 -0.28,-0.27 -0.28,-0.46v-4.11c0,-0.19 0.11,-0.36 0.28,-0.45l3.80001,-2.06zM9.02559,9.33672c0.16,-0.09 0.36,-0.09 0.53,0l3.54001,1.93998c0.16,0.09 0.26,0.25 0.26,0.42v3.88c0,0.17 -0.1,0.33 -0.26,0.42l-3.54001,1.94c-0.17,0.09 -0.36,0.09 -0.53,0l-3.54,-1.94c-0.16,-0.09 -0.26,-0.25 -0.26,-0.42v-3.88c0,-0.17 0.1,-0.33 0.26,-0.42l3.54,-1.93998z"></path><path id="路径 4" fill-rule="evenodd" style="fill:#FFFFFF" opacity="0.6" d="M6.1,0.6l-5.46,2.97v5.95l5.46,2.97l5.45,-2.97v-5.95zM6.42,0.08l5.45,2.97c0.2,0.11 0.32,0.31 0.32,0.52v5.95c0,0.21 -0.12,0.41 -0.32,0.52l-5.45,2.97c-0.2,0.11 -0.45,0.11 -0.64,0l-5.46,-2.97c-0.2,-0.11 -0.32,-0.31 -0.32,-0.52v-5.95c0,-0.21 0.12,-0.41 0.32,-0.52l5.46,-2.97c0.19,-0.11 0.44,-0.11 0.64,0z"></path><path id="路径 5" fill-rule="evenodd" style="fill:#FFFFFF" opacity="1" d="M5.42324 6.44047C5.41324 6.53047 5.36324 6.61047 5.28324 6.67047L2.46324 8.68048C2.14324 8.91048 2.43324 9.40048 2.79324 9.24048L5.96324 7.83047C6.04324 7.79047 6.14324 7.79047 6.23324 7.83047L9.40324 9.24048C9.76324 9.40048 10.0532 8.91048 9.73324 8.68048L6.91324 6.67047C6.83324 6.62047 6.78324 6.53047 6.77324 6.44047L6.42324 3.02047C6.41324 2.86047 6.27324 2.73047 6.09324 2.73047C5.92324 2.73047 5.78324 2.86047 5.77324 3.02047L5.42324 6.44047Z"></path><path id="路径 3" fill-rule="evenodd" style="fill:#E8E8E8" opacity="0.1" d="M8.97385 0.08L3.51385 3.05C3.31385 3.16 3.19385 3.36 3.19385 3.57L3.19385 9.52C3.19385 9.73 3.31385 9.93 3.51385 10.04L8.97385 13.01C9.16385 13.12 9.41385 13.12 9.61385 13.01L15.0638 10.04C15.2638 9.93 15.3838 9.73 15.3838 9.52L15.3838 3.57C15.3838 3.36 15.2638 3.16 15.0638 3.05L9.61385 0.08C9.41385 -0.03 9.16385 -0.03 8.97385 0.08L8.97385 0.08Z"></path></g></svg>