<svg xmlns="http://www.w3.org/2000/svg" xmlns:xlink="http://www.w3.org/1999/xlink" width="18.00244140625" height="18" viewBox="0 0 18.00244140625 18" fill="none"><g opacity="1"  transform="translate(0.00244140625 0)  rotate(0)"><path id="路径 1" fill-rule="evenodd" style="fill:#C1D0FF" opacity="1" d="M9.26025 0.57L9.41025 14.57C9.42025 14.83 9.55025 15.05 9.74025 15.11L17.4503 17.75C17.6003 17.8 17.7503 17.75 17.8603 17.62C17.9703 17.49 18.0203 17.29 17.9903 17.1L16.0303 3.54C16.0003 3.35 15.9003 3.19 15.7603 3.12L9.86025 0.04C9.72025 -0.03 9.57025 -0.01 9.45025 0.1C9.33025 0.21 9.26025 0.38 9.26025 0.57L9.26025 0.57Z"></path><path id="路径 2" fill-rule="evenodd" style="fill:#F8C328" opacity="1" d="M7.80014 16.0302C7.86014 16.2802 8.03014 16.4402 8.23014 16.4302L16.2101 16.1802C16.3601 16.1802 16.4901 16.0702 16.5701 15.9102C16.6501 15.7402 16.6501 15.5302 16.5801 15.3602L11.7901 3.05016C11.7301 2.87016 11.6001 2.76016 11.4501 2.74016L5.12014 1.91016C4.97014 1.89016 4.83014 1.97016 4.74014 2.12016C4.65014 2.26016 4.62014 2.46016 4.66014 2.64016L7.80014 16.0302Z"></path><path id="路径 3" fill-rule="evenodd" style="fill:#F8C328" opacity="1" d="M0.39 4.29781C0.24 4.31781 0.12 4.43781 0.05 4.59781C-0.02 4.76781 -0.02 4.96781 0.05 5.13781L5.4 17.7078C5.49 17.9278 5.69 18.0378 5.88 17.9878L9.35 16.9278L7.76 16.9778C7.56 16.9878 7.37 16.8178 7.31 16.5578L4.31 3.75781L0.39 4.29781Z"></path><path id="路径 4" fill-rule="evenodd" style="fill:#E8E8E8" opacity="0.1" d="M9.26025 0.57L9.41025 14.57C9.42025 14.83 9.55025 15.05 9.74025 15.11L17.4503 17.75C17.6003 17.8 17.7503 17.75 17.8603 17.62C17.9703 17.49 18.0203 17.29 17.9903 17.1L16.0303 3.54C16.0003 3.35 15.9003 3.19 15.7603 3.12L9.86025 0.04C9.72025 -0.03 9.57025 -0.01 9.45025 0.1C9.33025 0.21 9.26025 0.38 9.26025 0.57L9.26025 0.57Z"></path><path id="路径 5" fill-rule="evenodd" style="fill:#FFFFFF" opacity="0.6" d="M15.6003,3.65l-5.90005,-3.08l0.15,14l7.71005,2.64l-1.96,-13.56zM9.86025,0.04v0l5.90005,3.08c0.14,0.07 0.24,0.23 0.27,0.42l1.96,13.56c0.03,0.19 -0.02,0.39 -0.13,0.52c-0.11,0.13 -0.26,0.18 -0.41,0.13l-7.71005,-2.64c-0.19,-0.06 -0.32,-0.28 -0.33,-0.54l-0.15,-14c0,-0.19 0.07,-0.36 0.19,-0.47c0.12,-0.11 0.27,-0.13 0.41,-0.06z"></path><path id="路径 6" fill-rule="evenodd" style="fill:#FFFFFF" opacity="1" d="M14.4527 11.9017L14.3027 11.1417C14.0827 11.2017 13.8527 11.1617 13.6227 11.0417C13.3927 10.9117 13.1827 10.6917 13.0027 10.4117C12.8227 10.1117 12.6827 9.78172 12.6027 9.41172C12.5127 9.06172 12.4827 8.68172 12.5127 8.31172C12.5427 7.95172 12.6327 7.63172 12.7627 7.37172C12.9027 7.11172 13.0827 6.93172 13.2927 6.84172C13.5027 6.75172 13.7327 6.75172 13.9627 6.85172C14.1927 6.95172 14.4127 7.14172 14.6027 7.40172L14.8627 6.86172C14.6027 6.50172 14.3127 6.25172 14.0027 6.11172C13.6927 5.98172 13.3827 5.98172 13.1027 6.10172C12.8127 6.22172 12.5727 6.47172 12.3827 6.81172C12.2027 7.16172 12.0827 7.59172 12.0427 8.08172C12.0127 8.56172 12.0527 9.07172 12.1627 9.57172C12.2827 10.0617 12.4627 10.5117 12.7127 10.9117C12.9527 11.2917 13.2427 11.5817 13.5427 11.7617C13.8527 11.9317 14.1627 11.9817 14.4527 11.9017Z"></path></g></svg>