<svg xmlns="http://www.w3.org/2000/svg" xmlns:xlink="http://www.w3.org/1999/xlink" width="25.1025390625" height="9.5" viewBox="0 0 25.1025390625 9.5" fill="none"><path id="路径 5264" fill-rule="evenodd" style="fill:#979797" opacity="1" d="M22.711 2.99C23.361 2.63 24.031 2.23 24.681 1.8C25.121 1.5 25.231 0.9 24.941 0.45C24.651 0 24.061 -0.13 23.601 0.14C19.891 2.56 16.211 3.76 12.551 3.76C8.89098 3.76 5.21098 2.56 1.50098 0.14C1.05098 -0.13 0.450977 0 0.160977 0.45C-0.129023 0.9 -0.0190234 1.5 0.420977 1.8C1.08098 2.24 1.74098 2.63 2.40098 2.99L0.900977 5.95C0.730977 6.27 0.750977 6.65 0.940977 6.95C1.14098 7.26 1.48098 7.43 1.84098 7.41C2.20098 7.39 2.52098 7.17 2.68098 6.84L4.18098 3.87C5.05098 4.27 5.95098 4.61 6.87098 4.89L6.30098 7.32C6.20098 7.67 6.30098 8.05 6.56098 8.3C6.83098 8.56 7.21098 8.65 7.55098 8.54C7.90098 8.42 8.16098 8.13 8.23098 7.77L8.79098 5.37C9.70098 5.56 10.631 5.67 11.561 5.73L11.561 8.54C11.581 9.08 12.011 9.5 12.551 9.5C13.091 9.5 13.521 9.08 13.541 8.54L13.541 5.73C14.471 5.67 15.401 5.56 16.321 5.37L16.851 7.76C16.991 8.28 17.501 8.59 18.021 8.48C18.541 8.37 18.881 7.87 18.791 7.34L18.251 4.88C19.141 4.61 20.031 4.27 20.931 3.87L22.421 6.84C22.581 7.17 22.901 7.39 23.261 7.41C23.621 7.43 23.961 7.26 24.161 6.95C24.351 6.65 24.371 6.27 24.201 5.95L22.711 2.99Z"></path></svg>