<?xml version="1.0" encoding="UTF-8"?>
<svg viewBox="0 0 24 24" fill="none" xmlns="http://www.w3.org/2000/svg">
                <rect x="6" y="5" width="12" height="1.5" fill="#8B4513" rx="0.75"/>
                <circle cx="8" cy="6.5" r="0.7" fill="#CD853F"/>
                <circle cx="12" cy="6.5" r="0.7" fill="#CD853F"/>
                <circle cx="16" cy="6.5" r="0.7" fill="#CD853F"/>
                <rect x="7.5" y="7" width="1" height="7" fill="#F5F5DC" opacity="0.5" rx="0.5"/>
                <rect x="11.5" y="7" width="1" height="7" fill="#F5F5DC" opacity="0.5" rx="0.5"/>
                <rect x="15.5" y="7" width="1" height="7" fill="#F5F5DC" opacity="0.5" rx="0.5"/>
                <circle cx="6.5" cy="9" r="0.6" fill="#F5F5DC" opacity="0.7"/>
                <circle cx="9.5" cy="9.5" r="0.7" fill="#F5F5DC" opacity="0.7"/>
                <circle cx="10.5" cy="8.5" r="0.5" fill="#F5F5DC" opacity="0.6"/>
                <circle cx="13.5" cy="9" r="0.6" fill="#F5F5DC" opacity="0.7"/>
                <circle cx="14.5" cy="10" r="0.7" fill="#F5F5DC" opacity="0.7"/>
                <circle cx="17.5" cy="9.5" r="0.6" fill="#F5F5DC" opacity="0.7"/>
                <circle cx="8.5" cy="12" r="0.4" fill="#87CEEB" opacity="0.5"/>
                <circle cx="12" cy="12.5" r="0.4" fill="#87CEEB" opacity="0.5"/>
                <circle cx="15.5" cy="12" r="0.4" fill="#87CEEB" opacity="0.5"/>
                <ellipse cx="12" cy="16.5" rx="5" ry="0.8" fill="#4169E1" opacity="0.3"/>
            </svg>