<svg xmlns="http://www.w3.org/2000/svg" xmlns:xlink="http://www.w3.org/1999/xlink" width="200" height="240" viewBox="0 0 200 240" fill="none">
<g opacity="0.3">
<g opacity="0.3">
<path d="M164.42 49.2005L139.709 49.2394C134.241 49.2372 128.997 47.0642 125.129 43.1978C121.261 39.3314 119.086 34.0891 119.08 28.62L119.08 0L26.9106 0C23.3756 0 19.8751 0.69552 16.6097 2.04984C13.3443 3.402 10.3765 5.38488 7.87736 7.88616C5.37982 10.3853 3.39692 13.3531 2.04538 16.619C0.693852 19.885 -0.0016442 23.3863 0 26.9201L0 189.13C0.0098652 196.26 2.85104 203.094 7.89545 208.133C12.9415 213.17 19.7797 216 26.9106 216L137.509 216C141.044 216 144.545 215.304 147.81 213.95C151.076 212.598 154.043 210.615 156.543 208.114C159.04 205.615 161.023 202.647 162.375 199.381C163.726 196.115 164.422 192.614 164.42 189.08L164.42 49.2005Z"   fill="#000000" >
</path>
</g>
</g>
<path d="M164.42 49.24L139.71 49.24C134.241 49.2375 128.997 47.0646 125.129 43.1983C121.261 39.3319 119.086 34.0889 119.08 28.6198L119.08 0L164.42 49.24Z"   fill="#000000" >
</path>
<path d="M34.49 79.8799L123.49 79.8799C123.913 79.8799 124.333 79.9635 124.725 80.126C125.116 80.2884 125.471 80.5265 125.771 80.8265C126.07 81.1266 126.306 81.4827 126.468 81.8745C126.629 82.2663 126.711 82.6862 126.71 83.1099C126.71 83.9648 126.371 84.7848 125.768 85.3903C125.164 85.9958 124.345 86.3372 123.49 86.3399L34.49 86.3399C33.6329 86.3399 32.812 85.9996 32.2059 85.3938C31.6008 84.7881 31.26 83.9665 31.26 83.1099C31.26 82.2532 31.6008 81.4317 32.2059 80.826C32.812 80.2202 33.6329 79.8799 34.49 79.8799Z"   fill="#000000" >
</path>
<path d="M58.9 170.6L183.94 170.6C192.81 170.6 200 177.791 200 186.66L200 223.94C200 232.81 192.81 240 183.94 240L58.9 240C50.0299 240 42.8398 232.81 42.8398 223.94L42.8398 186.66C42.8398 177.791 50.0299 170.6 58.9 170.6Z"   fill="#000000" >
</path>
<path d="M70.7102 213.37L70.7102 220.65L63.1802 220.65L63.1802 213.37L70.7102 213.37Z"   fill="#FFFFFF" >
</path>
<path d="M91.8772 211.875C92.6936 211.045 93.3263 210.052 93.7344 208.962C94.1426 207.872 94.3171 206.707 94.2468 205.545C94.3174 204.382 94.1429 203.216 93.7347 202.124C93.3265 201.032 92.6938 200.038 91.8772 199.205C90.0565 197.614 87.6815 196.806 85.2683 196.956L81.8287 196.956L81.8287 214.135L85.2683 214.135C87.6698 214.276 90.0302 213.464 91.8372 211.875L91.8772 211.875ZM101.555 205.545C101.621 208.274 100.984 210.973 99.7057 213.385C98.4568 215.661 96.565 217.518 94.2668 218.725C91.6851 220.055 88.8111 220.714 85.9081 220.645L74.51 220.645L74.51 190.576L85.868 190.576C88.7724 190.5 91.6502 191.143 94.2468 192.446C96.5333 193.629 98.4187 195.463 99.6657 197.716C100.959 200.119 101.61 202.816 101.555 205.545Z" fill-rule="evenodd"  fill="#FFFFFF" >
</path>
<path d="M130.38 220.65L125.57 200.53L120.72 220.65L111.72 220.65L104.53 190.58L112.44 190.58L116.31 212.35L121.58 190.58L129.58 190.58L134.85 212.35L138.76 190.58L146.56 190.58L139.38 220.65L130.38 220.65Z"   fill="#FFFFFF" >
</path>
<path d="M151.294 197.512C152.473 195.232 154.29 193.345 156.523 192.081C158.936 190.751 161.658 190.086 164.412 190.151C167.766 190.025 171.065 191.029 173.781 193.001C176.205 194.819 177.834 197.502 178.33 200.492L170.641 200.492C170.139 199.419 169.323 198.522 168.302 197.922C167.156 197.241 165.844 196.895 164.512 196.921C163.477 196.878 162.444 197.064 161.489 197.465C160.533 197.866 159.678 198.473 158.983 199.242C157.52 200.993 156.776 203.234 156.903 205.512C156.903 208.373 157.633 210.57 159.093 212.103C159.914 212.9 160.892 213.516 161.964 213.912C163.037 214.308 164.181 214.475 165.322 214.404C166.953 214.433 168.55 213.931 169.871 212.973C171.217 211.965 172.189 210.536 172.631 208.913L163.452 208.913L163.452 203.682L178.71 203.682L178.71 210.873C178.123 212.662 177.2 214.322 175.99 215.764C174.675 217.314 173.042 218.562 171.201 219.425C169.115 220.388 166.839 220.866 164.542 220.825C161.752 220.899 158.992 220.233 156.543 218.895C154.302 217.634 152.478 215.746 151.294 213.464C150.017 210.994 149.381 208.242 149.444 205.462C149.39 202.699 150.026 199.966 151.294 197.512Z"   fill="#FFFFFF" >
</path>
<path d="M100.52 58.1703L100.52 147.17C100.521 147.594 100.438 148.015 100.277 148.408C100.115 148.8 99.8769 149.157 99.5767 149.457C99.2765 149.757 98.9199 149.995 98.5274 150.157C98.1349 150.319 97.7143 150.401 97.2897 150.4C96.8661 150.4 96.4466 150.316 96.0553 150.154C95.6639 149.991 95.3085 149.754 95.0094 149.453C94.7102 149.153 94.4733 148.797 94.312 148.405C94.1508 148.013 94.0685 147.593 94.0698 147.17L94.0698 58.1703C94.0698 57.315 94.4088 56.495 95.0123 55.8898C95.6159 55.2836 96.4348 54.9428 97.2897 54.9399C98.1464 54.9399 98.968 55.2798 99.5738 55.8859C100.18 56.4921 100.52 57.3131 100.52 58.1703Z"   fill="#000000" >
</path>
<path d="M87.2 72.3599L107.81 72.3599L107.81 92.9699L87.2 92.9699L87.2 72.3599Z"   fill="#000000" >
</path>
</svg>
