<?xml version="1.0" encoding="UTF-8"?>
<svg viewBox="0 0 24 24" fill="none" xmlns="http://www.w3.org/2000/svg">
                <!-- 装饰性吊顶 -->
                <path d="M4 9 Q12 7.5 20 9 L20 11.5 Q12 10.5 4 11.5 Z" fill="#F5F5F5" stroke="#D3D3D3" stroke-width="0.2"/>
                <path d="M4 9.1 Q12 7.6 20 9.1 L20 11.4 Q12 10.4 4 11.4 Z" fill="#FFFFFF"/>
                
                <!-- 吊顶装饰线条 -->
                <path d="M5 9.5 Q12 8.5 19 9.5" stroke="#C0C0C0" stroke-width="0.2" fill="none"/>
                <path d="M5 10.5 Q12 9.5 19 10.5" stroke="#C0C0C0" stroke-width="0.2" fill="none"/>
                
                <!-- 隐藏式喷淋头 -->
                <circle cx="8.5" cy="9.8" r="0.5" fill="#E8E9E4"/>
                <circle cx="8.5" cy="9.8" r="0.3" fill="#C41E3A"/>
                <circle cx="8.5" cy="9.8" r="0.2" fill="#FF4566"/>
                
                <circle cx="15.5" cy="9.8" r="0.5" fill="#E8E9E4"/>
                <circle cx="15.5" cy="9.8" r="0.3" fill="#C41E3A"/>
                <circle cx="15.5" cy="9.8" r="0.2" fill="#FF4566"/>
                
                <!-- 装饰性边框 -->
                <rect x="7" y="13" width="10" height="4.5" fill="#F8F9FA" stroke="#E0E0E0" stroke-width="0.2" rx="0.6"/>
                <rect x="7.1" y="13.1" width="9.8" height="4.3" fill="#FFFFFF" rx="0.5"/>
                
                <!-- 装饰图案 -->
                <circle cx="9.5" cy="15" r="0.7" fill="none" stroke="#DDD" stroke-width="0.15"/>
                <circle cx="9.5" cy="15" r="0.4" fill="none" stroke="#DDD" stroke-width="0.1"/>
                <circle cx="9.5" cy="15" r="0.15" fill="#DDD"/>
                
                <circle cx="14.5" cy="15" r="0.7" fill="none" stroke="#DDD" stroke-width="0.15"/>
                <circle cx="14.5" cy="15" r="0.4" fill="none" stroke="#DDD" stroke-width="0.1"/>
                <circle cx="14.5" cy="15" r="0.15" fill="#DDD"/>
                
                <!-- 装饰性花纹连接 -->
                <path d="M10.2 15 Q12 14.3 13.8 15" stroke="#DDD" stroke-width="0.15" fill="none"/>
                <path d="M10.2 15.5 Q12 16.2 13.8 15.5" stroke="#DDD" stroke-width="0.15" fill="none"/>
                
                <!-- 隐藏式报警器 -->
                <rect x="11.2" y="14.5" width="1.6" height="0.7" fill="#2C3E50" rx="0.35"/>
                <circle cx="11.5" cy="14.85" r="0.1" fill="#FF0000"/>
                <circle cx="12.5" cy="14.85" r="0.1" fill="#00FF00"/>
                
                <!-- 装饰灯带 -->
                <rect x="5" y="18.5" width="14" height="0.6" fill="#FFD700" rx="0.3"/>
                <rect x="5.1" y="18.6" width="13.8" height="0.4" fill="#FFA500" rx="0.2"/>
                
                <!-- LED装饰点 -->
                <circle cx="6.5" cy="18.8" r="0.1" fill="#FFFFFF" opacity="0.9"/>
                <circle cx="9" cy="18.8" r="0.1" fill="#FFFFFF" opacity="0.8"/>
                <circle cx="12" cy="18.8" r="0.1" fill="#FFFFFF" opacity="0.9"/>
                <circle cx="15" cy="18.8" r="0.1" fill="#FFFFFF" opacity="0.8"/>
                <circle cx="17.5" cy="18.8" r="0.1" fill="#FFFFFF" opacity="0.9"/>
                
                <!-- 智能传感器(隐藏式) -->
                <circle cx="5.5" cy="14.5" r="0.4" fill="#27AE60" opacity="0.7"/>
                <circle cx="5.5" cy="14.5" r="0.2" fill="#FFFFFF"/>
                <circle cx="5.5" cy="14.5" r="0.07" fill="#2ECC71"/>
                
                <!-- AI美学优化中心控制器 -->
                <rect x="12" y="16.8" width="3" height="1.3" fill="#9B59B6" rx="0.3"/>
                <rect x="12.1" y="16.9" width="2.8" height="1.1" fill="#8E44AD" rx="0.25"/>
                <rect x="12.3" y="17.1" width="2.4" height="0.4" fill="#FFFFFF" rx="0.08"/>
                <text x="13.5" y="17.38" text-anchor="middle" fill="#8E44AD" font-size="0.4" font-weight="bold">AI美学</text>
                <circle cx="12.4" cy="17.7" r="0.06" fill="#E91E63"/>
                <circle cx="13.5" cy="17.7" r="0.06" fill="#00FF00"/>
                <circle cx="14.6" cy="17.7" r="0.06" fill="#3498DB"/>
                
                <!-- 美学传感器连接线 -->
                <path d="M12 17.5 Q9 16.8 7 16" stroke="#9B59B6" stroke-width="0.15" stroke-dasharray="0.15,0.15" fill="none" opacity="0.6"/>
                <path d="M15 17.5 Q17 16.8 18.5 16" stroke="#9B59B6" stroke-width="0.15" stroke-dasharray="0.15,0.15" fill="none" opacity="0.6"/>
            </svg>