<?xml version="1.0" encoding="UTF-8"?>
<svg viewBox="0 0 24 24" fill="none" xmlns="http://www.w3.org/2000/svg">
                <rect x="6" y="7" width="12" height="8" fill="#1C1C1C" stroke="#000000" stroke-width="0.3" rx="0.8"/>
                <rect x="6.3" y="7.3" width="11.4" height="7.4" fill="#404040" rx="0.5"/>
                <rect x="7.5" y="8.5" width="9" height="5" fill="#000000" stroke="#808080" stroke-width="0.2" rx="0.2"/>
                <rect x="7.8" y="8.8" width="8.4" height="4.4" fill="#003300"/>
                <circle cx="9.5" cy="10.5" r="0.5" fill="#00FF00" stroke="#32CD32" stroke-width="0.15"/>
                <circle cx="11.5" cy="10.5" r="0.5" fill="#00FF00" stroke="#32CD32" stroke-width="0.15"/>
                <circle cx="13.5" cy="10.5" r="0.5" fill="#FFD700" stroke="#FFA500" stroke-width="0.15"/>
                <circle cx="15.5" cy="10.5" r="0.5" fill="#FF4444" stroke="#DC143C" stroke-width="0.15"/>
                <rect x="8.5" y="11.8" width="6" height="0.4" fill="#32CD32" rx="0.2"/>
                <rect x="8.5" y="12.4" width="4" height="0.3" fill="#32CD32" opacity="0.8" rx="0.15"/>
                <rect x="4" y="16" width="3" height="2" fill="#000000" stroke="#404040" stroke-width="0.2" rx="0.3"/>
                <rect x="4.2" y="16.2" width="2.6" height="1.6" fill="#1C1C1C"/>
                <circle cx="4.6" cy="16.8" r="0.15" fill="#FFD700"/>
                <circle cx="6.4" cy="16.8" r="0.15" fill="#FFD700"/>
                <circle cx="5.5" cy="17.6" r="0.15" fill="#32CD32"/>
                <path d="M7 17 Q8.5 16 10 15.5 Q10.5 15.3 11 15" stroke="#1C1C1C" stroke-width="0.8" fill="none"/>
                <circle cx="17" cy="8.5" r="0.3" fill="#32CD32" stroke="#228B22" stroke-width="0.1"/>
                <circle cx="17" cy="9.5" r="0.3" fill="#FFD700" stroke="#DAA520" stroke-width="0.1"/>
                <rect x="7" y="14" width="10" height="0.6" fill="#FFFFFF" opacity="0.8" rx="0.15"/>
                <rect x="7.5" y="14.1" width="1.5" height="0.3" fill="#000000" opacity="0.6"/>
                <rect x="9.5" y="14.1" width="2" height="0.3" fill="#000000" opacity="0.6"/>
                <rect x="12.5" y="14.1" width="1.5" height="0.3" fill="#000000" opacity="0.6"/>
            </svg>