<svg xmlns="http://www.w3.org/2000/svg" xmlns:xlink="http://www.w3.org/1999/xlink" width="156" height="113" viewBox="0 0 156 113" fill="none"><g opacity="1"  transform="translate(1 1)  rotate(0)"><g opacity="1"  transform="translate(0 0)  rotate(0)"><path id="路径 9" style="fill:url(#linear_0); opacity:100" d="M105,108.5h4c0.03267,0 0.06533,0.00333 0.098,0.01c0.032,0.006 0.063,0.01533 0.093,0.028c0.03067,0.01267 0.05967,0.028 0.087,0.046c0.02733,0.01867 0.05267,0.03933 0.076,0.062c0.02267,0.02333 0.04333,0.04867 0.062,0.076c0.018,0.02733 0.03333,0.05633 0.046,0.087c0.01267,0.03 0.022,0.061 0.028,0.093c0.00667,0.03267 0.01,0.06533 0.01,0.098c0,0.03267 -0.00333,0.06533 -0.01,0.098c-0.006,0.032 -0.01533,0.063 -0.028,0.093c-0.01267,0.03067 -0.028,0.05967 -0.046,0.087c-0.01867,0.02733 -0.03933,0.05267 -0.062,0.076c-0.02333,0.02267 -0.04867,0.04333 -0.076,0.062c-0.02733,0.018 -0.05633,0.03333 -0.087,0.046c-0.03,0.01267 -0.061,0.022 -0.093,0.028c-0.03267,0.00667 -0.06533,0.01 -0.098,0.01h-4c-0.03267,0 -0.06533,-0.00333 -0.098,-0.01c-0.032,-0.006 -0.063,-0.01533 -0.093,-0.028c-0.03067,-0.01267 -0.05967,-0.028 -0.087,-0.046c-0.02733,-0.01867 -0.05267,-0.03933 -0.076,-0.062c-0.02267,-0.02333 -0.04333,-0.04867 -0.062,-0.076c-0.018,-0.02733 -0.03333,-0.05633 -0.046,-0.087c-0.01267,-0.03 -0.022,-0.061 -0.028,-0.093c-0.00667,-0.03267 -0.01,-0.06533 -0.01,-0.098c0,-0.03267 0.00333,-0.06533 0.01,-0.098c0.006,-0.032 0.01533,-0.063 0.028,-0.093c0.01267,-0.03067 0.028,-0.05967 0.046,-0.087c0.01867,-0.02733 0.03933,-0.05267 0.062,-0.076c0.02333,-0.02267 0.04867,-0.04333 0.076,-0.062c0.02733,-0.018 0.05633,-0.03333 0.087,-0.046c0.03,-0.01267 0.061,-0.022 0.093,-0.028c0.03267,-0.00667 0.06533,-0.01 0.098,-0.01zM113,108.5h4c0.03267,0 0.06533,0.00333 0.098,0.01c0.032,0.006 0.063,0.01533 0.093,0.028c0.03067,0.01267 0.05967,0.028 0.087,0.046c0.02733,0.01867 0.05267,0.03933 0.076,0.062c0.02267,0.02333 0.04333,0.04867 0.062,0.076c0.018,0.02733 0.03333,0.05633 0.046,0.087c0.01267,0.03 0.022,0.061 0.028,0.093c0.00667,0.03267 0.01,0.06533 0.01,0.098c0,0.03267 -0.00333,0.06533 -0.01,0.098c-0.006,0.032 -0.01533,0.063 -0.028,0.093c-0.01267,0.03067 -0.028,0.05967 -0.046,0.087c-0.01867,0.02733 -0.03933,0.05267 -0.062,0.076c-0.02333,0.02267 -0.04867,0.04333 -0.076,0.062c-0.02733,0.018 -0.05633,0.03333 -0.087,0.046c-0.03,0.01267 -0.061,0.022 -0.093,0.028c-0.03267,0.00667 -0.06533,0.01 -0.098,0.01h-4c-0.03267,0 -0.06533,-0.00333 -0.098,-0.01c-0.032,-0.006 -0.063,-0.01533 -0.093,-0.028c-0.03067,-0.01267 -0.05967,-0.028 -0.087,-0.046c-0.02733,-0.01867 -0.05267,-0.03933 -0.076,-0.062c-0.02267,-0.02333 -0.04333,-0.04867 -0.062,-0.076c-0.018,-0.02733 -0.03333,-0.05633 -0.046,-0.087c-0.01267,-0.03 -0.022,-0.061 -0.028,-0.093c-0.00667,-0.03267 -0.01,-0.06533 -0.01,-0.098c0,-0.03267 0.00333,-0.06533 0.01,-0.098c0.006,-0.032 0.01533,-0.063 0.028,-0.093c0.01267,-0.03067 0.028,-0.05967 0.046,-0.087c0.01867,-0.02733 0.03933,-0.05267 0.062,-0.076c0.02333,-0.02267 0.04867,-0.04333 0.076,-0.062c0.02733,-0.018 0.05633,-0.03333 0.087,-0.046c0.03,-0.01267 0.061,-0.022 0.093,-0.028c0.03267,-0.00667 0.06533,-0.01 0.098,-0.01zM121,108.5h4c0.03267,0 0.06533,0.00333 0.098,0.01c0.032,0.006 0.063,0.01533 0.093,0.028c0.03067,0.01267 0.05967,0.028 0.087,0.046c0.02733,0.01867 0.05267,0.03933 0.076,0.062c0.02267,0.02333 0.04333,0.04867 0.062,0.076c0.018,0.02733 0.03333,0.05633 0.046,0.087c0.01267,0.03 0.022,0.061 0.028,0.093c0.00667,0.03267 0.01,0.06533 0.01,0.098c0,0.03267 -0.00333,0.06533 -0.01,0.098c-0.006,0.032 -0.01533,0.063 -0.028,0.093c-0.01267,0.03067 -0.028,0.05967 -0.046,0.087c-0.01867,0.02733 -0.03933,0.05267 -0.062,0.076c-0.02333,0.02267 -0.04867,0.04333 -0.076,0.062c-0.02733,0.018 -0.05633,0.03333 -0.087,0.046c-0.03,0.01267 -0.061,0.022 -0.093,0.028c-0.03267,0.00667 -0.06533,0.01 -0.098,0.01h-4c-0.03267,0 -0.06533,-0.00333 -0.098,-0.01c-0.032,-0.006 -0.063,-0.01533 -0.093,-0.028c-0.03067,-0.01267 -0.05967,-0.028 -0.087,-0.046c-0.02733,-0.01867 -0.05267,-0.03933 -0.076,-0.062c-0.02267,-0.02333 -0.04333,-0.04867 -0.062,-0.076c-0.018,-0.02733 -0.03333,-0.05633 -0.046,-0.087c-0.01267,-0.03 -0.022,-0.061 -0.028,-0.093c-0.00667,-0.03267 -0.01,-0.06533 -0.01,-0.098c0,-0.03267 0.00333,-0.06533 0.01,-0.098c0.006,-0.032 0.01533,-0.063 0.028,-0.093c0.01267,-0.03067 0.028,-0.05967 0.046,-0.087c0.01867,-0.02733 0.03933,-0.05267 0.062,-0.076c0.02333,-0.02267 0.04867,-0.04333 0.076,-0.062c0.02733,-0.018 0.05633,-0.03333 0.087,-0.046c0.03,-0.01267 0.061,-0.022 0.093,-0.028c0.03267,-0.00667 0.06533,-0.01 0.098,-0.01zM129,108.5h4c0.03267,0 0.06533,0.00333 0.098,0.01c0.032,0.006 0.063,0.01533 0.093,0.028c0.03067,0.01267 0.05967,0.028 0.087,0.046c0.02733,0.01867 0.05267,0.03933 0.076,0.062c0.02267,0.02333 0.04333,0.04867 0.062,0.076c0.018,0.02733 0.03333,0.05633 0.046,0.087c0.01267,0.03 0.022,0.061 0.028,0.093c0.00667,0.03267 0.01,0.06533 0.01,0.098c0,0.03267 -0.00333,0.06533 -0.01,0.098c-0.006,0.032 -0.01533,0.063 -0.028,0.093c-0.01267,0.03067 -0.028,0.05967 -0.046,0.087c-0.01867,0.02733 -0.03933,0.05267 -0.062,0.076c-0.02333,0.02267 -0.04867,0.04333 -0.076,0.062c-0.02733,0.018 -0.05633,0.03333 -0.087,0.046c-0.03,0.01267 -0.061,0.022 -0.093,0.028c-0.03267,0.00667 -0.06533,0.01 -0.098,0.01h-4c-0.03267,0 -0.06533,-0.00333 -0.098,-0.01c-0.032,-0.006 -0.063,-0.01533 -0.093,-0.028c-0.03067,-0.01267 -0.05967,-0.028 -0.087,-0.046c-0.02733,-0.01867 -0.05267,-0.03933 -0.076,-0.062c-0.02267,-0.02333 -0.04333,-0.04867 -0.062,-0.076c-0.018,-0.02733 -0.03333,-0.05633 -0.046,-0.087c-0.01267,-0.03 -0.022,-0.061 -0.028,-0.093c-0.00667,-0.03267 -0.01,-0.06533 -0.01,-0.098c0,-0.03267 0.00333,-0.06533 0.01,-0.098c0.006,-0.032 0.01533,-0.063 0.028,-0.093c0.01267,-0.03067 0.028,-0.05967 0.046,-0.087c0.01867,-0.02733 0.03933,-0.05267 0.062,-0.076c0.02333,-0.02267 0.04867,-0.04333 0.076,-0.062c0.02733,-0.018 0.05633,-0.03333 0.087,-0.046c0.03,-0.01267 0.061,-0.022 0.093,-0.028c0.03267,-0.00667 0.06533,-0.01 0.098,-0.01zM137,108.5h4c0.03267,0 0.06533,0.00333 0.098,0.01c0.032,0.006 0.063,0.01533 0.093,0.028c0.03067,0.01267 0.05967,0.028 0.087,0.046c0.02733,0.01867 0.05267,0.03933 0.076,0.062c0.02267,0.02333 0.04333,0.04867 0.062,0.076c0.018,0.02733 0.03333,0.05633 0.046,0.087c0.01267,0.03 0.022,0.061 0.028,0.093c0.00667,0.03267 0.01,0.06533 0.01,0.098c0,0.03267 -0.00333,0.06533 -0.01,0.098c-0.006,0.032 -0.01533,0.063 -0.028,0.093c-0.01267,0.03067 -0.028,0.05967 -0.046,0.087c-0.01867,0.02733 -0.03933,0.05267 -0.062,0.076c-0.02333,0.02267 -0.04867,0.04333 -0.076,0.062c-0.02733,0.018 -0.05633,0.03333 -0.087,0.046c-0.03,0.01267 -0.061,0.022 -0.093,0.028c-0.03267,0.00667 -0.06533,0.01 -0.098,0.01h-4c-0.03267,0 -0.06533,-0.00333 -0.098,-0.01c-0.032,-0.006 -0.063,-0.01533 -0.093,-0.028c-0.03067,-0.01267 -0.05967,-0.028 -0.087,-0.046c-0.02733,-0.01867 -0.05267,-0.03933 -0.076,-0.062c-0.02267,-0.02333 -0.04333,-0.04867 -0.062,-0.076c-0.018,-0.02733 -0.03333,-0.05633 -0.046,-0.087c-0.01267,-0.03 -0.022,-0.061 -0.028,-0.093c-0.00667,-0.03267 -0.01,-0.06533 -0.01,-0.098c0,-0.03267 0.00333,-0.06533 0.01,-0.098c0.006,-0.032 0.01533,-0.063 0.028,-0.093c0.01267,-0.03067 0.028,-0.05967 0.046,-0.087c0.01867,-0.02733 0.03933,-0.05267 0.062,-0.076c0.02333,-0.02267 0.04867,-0.04333 0.076,-0.062c0.02733,-0.018 0.05633,-0.03333 0.087,-0.046c0.03,-0.01267 0.061,-0.022 0.093,-0.028c0.03267,-0.00667 0.06533,-0.01 0.098,-0.01zM145,108.5h0.72c1.116,0.004 1.832,-0.539 2.242,-1.381c0.01467,-0.02933 0.032,-0.057 0.052,-0.083c0.02,-0.026 0.04233,-0.05 0.067,-0.072c0.024,-0.022 0.05033,-0.041 0.079,-0.057c0.02867,-0.01667 0.05833,-0.03033 0.089,-0.041c0.03133,-0.01067 0.063,-0.01833 0.095,-0.023c0.03267,-0.00467 0.06533,-0.006 0.098,-0.004c0.03333,0.002 0.06567,0.00733 0.097,0.016c0.032,0.00867 0.06267,0.02 0.092,0.034c0.02933,0.01467 0.057,0.032 0.083,0.052c0.02667,0.01933 0.05067,0.04133 0.072,0.066c0.022,0.02467 0.04133,0.05133 0.058,0.08c0.01667,0.028 0.03033,0.05767 0.041,0.089c0.01067,0.03067 0.018,0.06233 0.022,0.095c0.00467,0.03267 0.006,0.06533 0.004,0.098c-0.002,0.03267 -0.00733,0.065 -0.016,0.097c-0.008,0.032 -0.01933,0.06267 -0.034,0.092c-0.515,1.055 -1.69,1.947 -3.141,1.942h-0.72c-0.03267,0 -0.06533,-0.00333 -0.098,-0.01c-0.032,-0.006 -0.063,-0.01533 -0.093,-0.028c-0.03067,-0.01267 -0.05967,-0.028 -0.087,-0.046c-0.02733,-0.01867 -0.05267,-0.03933 -0.076,-0.062c-0.02267,-0.02333 -0.04333,-0.04867 -0.062,-0.076c-0.018,-0.02733 -0.03333,-0.05633 -0.046,-0.087c-0.01267,-0.03 -0.022,-0.061 -0.028,-0.093c-0.00667,-0.03267 -0.01,-0.06533 -0.01,-0.098c0,-0.03267 0.00333,-0.06533 0.01,-0.098c0.006,-0.032 0.01533,-0.063 0.028,-0.093c0.01267,-0.03067 0.028,-0.05967 0.046,-0.087c0.01867,-0.02733 0.03933,-0.05267 0.062,-0.076c0.02333,-0.02267 0.04867,-0.04333 0.076,-0.062c0.02733,-0.018 0.05633,-0.03333 0.087,-0.046c0.03,-0.01267 0.061,-0.022 0.093,-0.028c0.03267,-0.00667 0.06533,-0.01 0.098,-0.01zM147.326,104.074c-0.083,-0.067 -0.16,-0.122 -0.254,-0.182l-3.092,-1.973c-0.028,-0.01733 -0.05367,-0.03733 -0.077,-0.06c-0.024,-0.02267 -0.04533,-0.04767 -0.064,-0.075c-0.01867,-0.02667 -0.03467,-0.055 -0.048,-0.085c-0.01333,-0.03 -0.02367,-0.061 -0.031,-0.093c-0.00667,-0.032 -0.01033,-0.06467 -0.011,-0.098c-0.00067,-0.03267 0.00167,-0.065 0.007,-0.097c0.006,-0.03267 0.015,-0.06433 0.027,-0.095c0.012,-0.03067 0.02667,-0.05967 0.044,-0.087c0.018,-0.028 0.03833,-0.05367 0.061,-0.077c0.02267,-0.024 0.04733,-0.04533 0.074,-0.064c0.02667,-0.01867 0.055,-0.03467 0.085,-0.048c0.03067,-0.01333 0.062,-0.02367 0.094,-0.031c0.032,-0.00667 0.06433,-0.01033 0.097,-0.011c0.03267,-0.00067 0.06533,0.00167 0.098,0.007c0.032,0.006 0.06333,0.015 0.094,0.027c0.03067,0.012 0.05967,0.02667 0.087,0.044l3.091,1.972c0.119,0.076 0.242,0.164 0.346,0.248c0.02533,0.02067 0.04867,0.04367 0.07,0.069c0.02067,0.02533 0.039,0.05233 0.055,0.081c0.016,0.02867 0.02867,0.05867 0.038,0.09c0.01,0.03133 0.01667,0.06333 0.02,0.096c0.00333,0.03267 0.00367,0.06533 0.001,0.098c-0.00333,0.03267 -0.00933,0.06467 -0.018,0.096c-0.00933,0.032 -0.02167,0.06233 -0.037,0.091c-0.01533,0.02933 -0.03333,0.05667 -0.054,0.082c-0.02067,0.02533 -0.04367,0.04867 -0.069,0.07c-0.02467,0.02133 -0.05167,0.03967 -0.081,0.055c-0.02867,0.016 -0.05867,0.02867 -0.09,0.038c-0.03133,0.01 -0.06333,0.01667 -0.096,0.02c-0.03267,0.00333 -0.06533,0.00367 -0.098,0.001c-0.03267,-0.00267 -0.06467,-0.00867 -0.096,-0.018c-0.03133,-0.00933 -0.06167,-0.02167 -0.091,-0.037c-0.02933,-0.01533 -0.05667,-0.03333 -0.082,-0.054zM140.607,99.7678l-3.372,-2.1514c-0.02733,-0.0176 -0.053,-0.03777 -0.077,-0.0605c-0.02333,-0.02273 -0.04467,-0.04757 -0.064,-0.0745c-0.01867,-0.02687 -0.03467,-0.05533 -0.048,-0.0854c-0.01267,-0.03007 -0.02267,-0.06113 -0.03,-0.0932c-0.00733,-0.03207 -0.01133,-0.0645 -0.012,-0.0973c-0.00067,-0.03287 0.002,-0.06543 0.008,-0.0977c0.00533,-0.03233 0.014,-0.0638 0.026,-0.0944c0.012,-0.0306 0.027,-0.05973 0.045,-0.0874c0.01733,-0.02767 0.03733,-0.05337 0.06,-0.0771c0.02267,-0.02367 0.04767,-0.04493 0.075,-0.0638c0.02667,-0.0188 0.055,-0.0348 0.085,-0.048c0.03,-0.0132 0.061,-0.02333 0.093,-0.0304c0.032,-0.00707 0.06467,-0.01097 0.098,-0.0117c0.03267,-0.00067 0.065,0.00187 0.097,0.0076c0.03267,0.00567 0.06433,0.01447 0.095,0.0264c0.03067,0.01193 0.05967,0.02673 0.087,0.0444l3.372,2.1514c0.028,0.01767 0.05367,0.03783 0.077,0.0605c0.024,0.02273 0.04533,0.04757 0.064,0.0745c0.01867,0.02687 0.03467,0.05533 0.048,0.0854c0.01333,0.03007 0.02367,0.06113 0.031,0.0932c0.00667,0.03207 0.01033,0.0645 0.011,0.0973c0.00067,0.0328 -0.00167,0.06537 -0.007,0.0977c-0.006,0.03233 -0.015,0.0638 -0.027,0.0944c-0.012,0.0306 -0.02667,0.05973 -0.044,0.0874c-0.018,0.02767 -0.03833,0.05337 -0.061,0.0771c-0.02267,0.02367 -0.04733,0.04493 -0.074,0.0638c-0.02667,0.0188 -0.05533,0.0348 -0.086,0.048c-0.03,0.0132 -0.061,0.02333 -0.093,0.0304c-0.032,0.00707 -0.06433,0.01097 -0.097,0.0117c-0.03267,0.00067 -0.06533,-0.00187 -0.098,-0.0076c-0.032,-0.00567 -0.06333,-0.01447 -0.094,-0.0264c-0.03067,-0.01193 -0.06,-0.02673 -0.088,-0.0444zM133.863,95.465l-3.372,-2.1513c-0.028,-0.01767 -0.05367,-0.03787 -0.077,-0.0606c-0.024,-0.02273 -0.04533,-0.04757 -0.064,-0.0745c-0.01867,-0.02687 -0.03467,-0.05533 -0.048,-0.0854c-0.01333,-0.03007 -0.02333,-0.06113 -0.03,-0.0932c-0.00733,-0.03207 -0.01133,-0.0645 -0.012,-0.0973c-0.00067,-0.0328 0.002,-0.06537 0.008,-0.0977c0.00533,-0.03233 0.014,-0.0638 0.026,-0.0944c0.012,-0.0306 0.02667,-0.05973 0.044,-0.0874c0.018,-0.02767 0.03833,-0.05337 0.061,-0.0771c0.02267,-0.02367 0.04733,-0.0449 0.074,-0.0637c0.02733,-0.01887 0.056,-0.0349 0.086,-0.0481c0.03,-0.0132 0.061,-0.02333 0.093,-0.0304c0.032,-0.00707 0.06433,-0.01097 0.097,-0.0117c0.03333,-0.00067 0.066,0.00187 0.098,0.0076c0.03267,0.00573 0.064,0.01453 0.094,0.0264c0.03067,0.01193 0.06,0.02673 0.088,0.0444l3.372,2.1514c0.02733,0.01767 0.053,0.03787 0.077,0.0606c0.024,0.02267 0.04533,0.04747 0.064,0.0744c0.01867,0.02687 0.03467,0.05533 0.048,0.0854c0.01333,0.03007 0.02333,0.06113 0.03,0.0932c0.00733,0.03207 0.01133,0.0645 0.012,0.0973c0.00067,0.03287 -0.002,0.06547 -0.008,0.0978c-0.00533,0.03233 -0.014,0.06377 -0.026,0.0943c-0.012,0.0306 -0.02667,0.05973 -0.044,0.0874c-0.018,0.02773 -0.03833,0.05343 -0.061,0.0771c-0.02267,0.02373 -0.04733,0.045 -0.074,0.0638c-0.02733,0.0188 -0.056,0.0348 -0.086,0.048c-0.03,0.0132 -0.061,0.02333 -0.093,0.0304c-0.032,0.00713 -0.06433,0.01103 -0.097,0.0117c-0.03333,0.00067 -0.066,-0.00183 -0.098,-0.0075c-0.03267,-0.00573 -0.064,-0.01457 -0.094,-0.0265c-0.03067,-0.01193 -0.06,-0.02673 -0.088,-0.0444zM127.119,91.1623l-3.372,-2.1514c-0.028,-0.01767 -0.05367,-0.03787 -0.077,-0.0606c-0.024,-0.02273 -0.04533,-0.04753 -0.064,-0.0744c-0.01867,-0.02693 -0.03467,-0.05543 -0.048,-0.0855c-0.01333,-0.03007 -0.02367,-0.06113 -0.031,-0.0932c-0.00667,-0.03207 -0.01033,-0.0645 -0.011,-0.0973c-0.00067,-0.0328 0.00167,-0.06537 0.007,-0.0977c0.006,-0.03233 0.015,-0.0638 0.027,-0.0944c0.012,-0.0306 0.02667,-0.05973 0.044,-0.0874c0.018,-0.02767 0.03833,-0.05337 0.061,-0.0771c0.02267,-0.02367 0.04733,-0.0449 0.074,-0.0637c0.02667,-0.0188 0.055,-0.03483 0.085,-0.0481c0.03067,-0.0132 0.062,-0.02333 0.094,-0.0304c0.032,-0.00707 0.06433,-0.01097 0.097,-0.0117c0.03267,-0.00067 0.06533,0.00187 0.098,0.0076c0.032,0.00573 0.06333,0.01457 0.094,0.0265c0.03067,0.01187 0.05967,0.02663 0.087,0.0443l3.373,2.1514c0.02733,0.01767 0.053,0.03787 0.077,0.0606c0.02333,0.02267 0.04433,0.04747 0.063,0.0744c0.01933,0.02693 0.03533,0.05543 0.048,0.0855c0.01333,0.03 0.02367,0.06103 0.031,0.0931c0.00733,0.03207 0.01133,0.06453 0.012,0.0974c0.00067,0.0328 -0.002,0.06537 -0.008,0.0977c-0.006,0.03233 -0.01467,0.0638 -0.026,0.0944c-0.012,0.03053 -0.027,0.05967 -0.045,0.0874c-0.01733,0.02767 -0.03733,0.05333 -0.06,0.077c-0.02267,0.02373 -0.04767,0.045 -0.075,0.0638c-0.02667,0.0188 -0.055,0.0348 -0.085,0.048c-0.03,0.0132 -0.061,0.02337 -0.093,0.0305c-0.032,0.00707 -0.06467,0.01093 -0.098,0.0116c-0.03267,0.00073 -0.065,-0.00177 -0.097,-0.0075c-0.03267,-0.00573 -0.06433,-0.01457 -0.095,-0.0265c-0.03067,-0.01193 -0.05967,-0.0267 -0.087,-0.0443zM120.374,86.8595l-3.372,-2.1514c-0.02733,-0.01767 -0.053,-0.03787 -0.077,-0.0606c-0.02333,-0.02273 -0.04467,-0.04753 -0.064,-0.0744c-0.01867,-0.02693 -0.03467,-0.05543 -0.048,-0.0855c-0.01267,-0.03007 -0.02267,-0.0611 -0.03,-0.0931c-0.00733,-0.03207 -0.01133,-0.06453 -0.012,-0.0974c-0.00067,-0.0328 0.002,-0.06537 0.008,-0.0977c0.00533,-0.03233 0.014,-0.0638 0.026,-0.0944c0.012,-0.03053 0.027,-0.05967 0.045,-0.0874c0.01733,-0.02767 0.03733,-0.05333 0.06,-0.077c0.02267,-0.02373 0.04767,-0.045 0.075,-0.0638c0.02667,-0.0188 0.055,-0.0348 0.085,-0.048c0.03,-0.0132 0.061,-0.02337 0.093,-0.0305c0.032,-0.00707 0.06467,-0.01093 0.098,-0.0116c0.03267,-0.00073 0.065,0.00177 0.097,0.0075c0.03267,0.00573 0.06433,0.01457 0.095,0.0265c0.03067,0.01187 0.05967,0.02663 0.087,0.0443l3.372,2.1514c0.028,0.01767 0.05367,0.03787 0.077,0.0606c0.024,0.02273 0.04533,0.04753 0.064,0.0744c0.01867,0.02693 0.03467,0.05543 0.048,0.0855c0.01333,0.03007 0.02367,0.0611 0.031,0.0931c0.00667,0.03207 0.01033,0.06453 0.011,0.0974c0.00067,0.0328 -0.00167,0.06537 -0.007,0.0977c-0.006,0.03233 -0.015,0.0638 -0.027,0.0944c-0.012,0.0306 -0.02667,0.05973 -0.044,0.0874c-0.018,0.02767 -0.03833,0.05333 -0.061,0.077c-0.02267,0.02373 -0.04733,0.045 -0.074,0.0638c-0.02667,0.0188 -0.05533,0.0348 -0.086,0.048c-0.03,0.0132 -0.061,0.02337 -0.093,0.0305c-0.032,0.00707 -0.06433,0.01093 -0.097,0.0116c-0.03267,0.00073 -0.06533,-0.00177 -0.098,-0.0075c-0.032,-0.00573 -0.06333,-0.01457 -0.094,-0.0265c-0.03067,-0.01187 -0.06,-0.02663 -0.088,-0.0443zM113.63,82.5567l-3.372,-2.1514c-0.028,-0.01767 -0.05367,-0.03787 -0.077,-0.0606c-0.024,-0.02267 -0.04533,-0.04747 -0.064,-0.0744c-0.01867,-0.02693 -0.03467,-0.05543 -0.048,-0.0855c-0.01333,-0.03 -0.02333,-0.06103 -0.03,-0.0931c-0.00733,-0.03207 -0.01133,-0.06453 -0.012,-0.0974c-0.00067,-0.0328 0.002,-0.06537 0.008,-0.0977c0.00533,-0.03233 0.014,-0.0638 0.026,-0.0944c0.012,-0.03053 0.02667,-0.05963 0.044,-0.0873c0.018,-0.02773 0.03833,-0.05343 0.061,-0.0771c0.02267,-0.02373 0.04733,-0.045 0.074,-0.0638c0.02733,-0.0188 0.056,-0.0348 0.086,-0.048c0.03,-0.0132 0.061,-0.02333 0.093,-0.0304c0.032,-0.00713 0.06433,-0.01103 0.097,-0.0117c0.03333,-0.00073 0.066,0.00177 0.098,0.0075c0.03267,0.00573 0.064,0.01457 0.094,0.0265c0.03067,0.01193 0.06,0.02673 0.088,0.0444l3.372,2.1513c0.02733,0.01767 0.053,0.03787 0.077,0.0606c0.024,0.02273 0.04533,0.04753 0.064,0.0744c0.01867,0.02693 0.03467,0.05543 0.048,0.0855c0.01333,0.03007 0.02333,0.06113 0.03,0.0932c0.00733,0.032 0.01133,0.06443 0.012,0.0973c0.00067,0.0328 -0.002,0.06537 -0.008,0.0977c-0.00533,0.03233 -0.014,0.0638 -0.026,0.0944c-0.012,0.0306 -0.02667,0.05973 -0.044,0.0874c-0.018,0.02767 -0.03833,0.05333 -0.061,0.077c-0.02267,0.02373 -0.04733,0.045 -0.074,0.0638c-0.02733,0.0188 -0.056,0.0348 -0.086,0.048c-0.03,0.0132 -0.061,0.02337 -0.093,0.0305c-0.032,0.00707 -0.06433,0.01093 -0.097,0.0116c-0.03333,0.00073 -0.066,-0.00177 -0.098,-0.0075c-0.03267,-0.00573 -0.064,-0.01453 -0.094,-0.0264c-0.03067,-0.01193 -0.06,-0.02673 -0.088,-0.0444zM106.886,78.2539l-1.305,-0.8324l0.269,-0.4215h0.5c0,0.9035 -0.009,1.7835 -0.025,2.6358c-0.00067,0.03287 -0.00467,0.06533 -0.012,0.0974c-0.00733,0.03207 -0.01733,0.06313 -0.03,0.0932c-0.01333,0.03007 -0.02933,0.05857 -0.048,0.0855c-0.01867,0.02693 -0.04,0.05177 -0.064,0.0745c-0.02333,0.0228 -0.049,0.04303 -0.077,0.0607c-0.02733,0.01773 -0.05633,0.03257 -0.087,0.0445c-0.03067,0.012 -0.062,0.02087 -0.094,0.0266c-0.03267,0.0058 -0.06533,0.00837 -0.098,0.0077c-0.03267,-0.00067 -0.06533,-0.0045 -0.098,-0.0115c-0.032,-0.00707 -0.063,-0.01717 -0.093,-0.0303c-0.03,-0.0132 -0.05833,-0.02917 -0.085,-0.0479c-0.02733,-0.0188 -0.05233,-0.04003 -0.075,-0.0637c-0.02267,-0.02367 -0.04267,-0.0493 -0.06,-0.0769c-0.018,-0.02767 -0.033,-0.0568 -0.045,-0.0874c-0.012,-0.03053 -0.021,-0.06197 -0.027,-0.0943c-0.00533,-0.03233 -0.00767,-0.0649 -0.007,-0.0977c0.016,-0.8475 0.025,-1.7176 0.025,-2.6162v-0.9121l2.074,1.323c0.02733,0.0176 0.053,0.03777 0.077,0.0605c0.02333,0.02273 0.04433,0.04757 0.063,0.0745c0.01933,0.02687 0.03533,0.05533 0.048,0.0854c0.01333,0.03007 0.02367,0.06113 0.031,0.0932c0.00733,0.03207 0.01133,0.0645 0.012,0.0973c0.00067,0.0328 -0.002,0.06537 -0.008,0.0977c-0.006,0.03233 -0.01467,0.0638 -0.026,0.0944c-0.012,0.0306 -0.027,0.05973 -0.045,0.0874c-0.01733,0.02767 -0.03733,0.05337 -0.06,0.0771c-0.02267,0.02367 -0.04767,0.0449 -0.075,0.0637c-0.02667,0.01887 -0.055,0.0349 -0.085,0.0481c-0.03,0.0132 -0.061,0.02333 -0.093,0.0304c-0.032,0.00707 -0.06467,0.01097 -0.098,0.0117c-0.03267,0.00067 -0.065,-0.00187 -0.097,-0.0076c-0.03267,-0.00573 -0.06433,-0.01453 -0.095,-0.0264c-0.03067,-0.01193 -0.05967,-0.02673 -0.087,-0.0444zM106.18,83.6145c-0.078,1.4219 -0.18,2.7684 -0.304,4.0338c-0.00267,0.03267 -0.009,0.0647 -0.019,0.0961c-0.00933,0.03147 -0.02167,0.06167 -0.037,0.0906c-0.01533,0.029 -0.03333,0.0562 -0.054,0.0816c-0.02133,0.0254 -0.04467,0.0485 -0.07,0.0693c-0.02533,0.02087 -0.05233,0.03907 -0.081,0.0546c-0.02933,0.01547 -0.05967,0.02797 -0.091,0.0375c-0.03133,0.0096 -0.06333,0.016 -0.096,0.0192c-0.03267,0.00327 -0.06533,0.0033 -0.098,0.0001c-0.03267,-0.0032 -0.06467,-0.00953 -0.096,-0.019c-0.03133,-0.00953 -0.06167,-0.02203 -0.091,-0.0375c-0.02867,-0.01547 -0.05567,-0.0336 -0.081,-0.0544c-0.02533,-0.0208 -0.04833,-0.04387 -0.069,-0.0692c-0.02133,-0.0254 -0.03967,-0.05257 -0.055,-0.0815c-0.01533,-0.02893 -0.028,-0.0591 -0.038,-0.0905c-0.00933,-0.0314 -0.01567,-0.06343 -0.019,-0.0961c-0.00333,-0.03267 -0.00333,-0.06533 0,-0.098c0.123,-1.2547 0.223,-2.5797 0.3,-3.9908c0.002,-0.0328 0.007,-0.0651 0.015,-0.0969c0.008,-0.0318 0.019,-0.0625 0.033,-0.0921c0.01467,-0.0296 0.03167,-0.05753 0.051,-0.0838c0.02,-0.02627 0.04233,-0.05037 0.067,-0.0723c0.024,-0.02193 0.05033,-0.04127 0.079,-0.058c0.028,-0.01673 0.05733,-0.03053 0.088,-0.0414c0.03133,-0.01093 0.06333,-0.0187 0.096,-0.0233c0.032,-0.00467 0.06433,-0.0061 0.097,-0.0043c0.03333,0.00173 0.06567,0.00667 0.097,0.0148c0.032,0.00813 0.06267,0.0193 0.092,0.0335c0.03,0.0142 0.058,0.03117 0.084,0.0509c0.02667,0.01967 0.051,0.04173 0.073,0.0662c0.02133,0.0244 0.04067,0.05073 0.058,0.079c0.01667,0.02827 0.03033,0.05787 0.041,0.0888c0.01067,0.031 0.01833,0.06273 0.023,0.0952c0.00467,0.03253 0.00633,0.06517 0.005,0.0979zM105.398,91.5305c-0.222,1.4693 -0.477,2.8238 -0.756,4.0573c-0.00733,0.03207 -0.01767,0.06307 -0.031,0.093c-0.01333,0.03 -0.02933,0.05843 -0.048,0.0853c-0.01933,0.0268 -0.04067,0.0515 -0.064,0.0741c-0.024,0.0226 -0.05,0.04267 -0.078,0.0602c-0.02733,0.01753 -0.05633,0.0322 -0.087,0.044c-0.03067,0.01173 -0.06233,0.0204 -0.095,0.026c-0.032,0.00553 -0.06467,0.00787 -0.098,0.007c-0.03267,-0.0008 -0.065,-0.00483 -0.097,-0.0121c-0.032,-0.0072 -0.063,-0.01747 -0.093,-0.0308c-0.03,-0.0134 -0.05833,-0.02957 -0.085,-0.0485c-0.02667,-0.01893 -0.05133,-0.0403 -0.074,-0.0641c-0.02267,-0.0238 -0.04267,-0.04957 -0.06,-0.0773c-0.018,-0.0278 -0.03267,-0.057 -0.044,-0.0876c-0.012,-0.03067 -0.02067,-0.0622 -0.026,-0.0946c-0.006,-0.03233 -0.00833,-0.0649 -0.007,-0.0977c0.00067,-0.0328 0.00467,-0.06523 0.012,-0.0973c0.274,-1.2161 0.523,-2.535 0.742,-3.9862c0.00533,-0.03247 0.01367,-0.06413 0.025,-0.095c0.01067,-0.03087 0.02467,-0.06037 0.042,-0.0885c0.01667,-0.02813 0.036,-0.05433 0.058,-0.0786c0.022,-0.02427 0.04633,-0.04613 0.073,-0.0656c0.02667,-0.01947 0.05467,-0.0362 0.084,-0.0502c0.03,-0.01393 0.061,-0.02487 0.093,-0.0328c0.03133,-0.00787 0.06367,-0.01257 0.097,-0.0141c0.03267,-0.00153 0.06533,0.00017 0.098,0.0051c0.032,0.00487 0.06367,0.01287 0.095,0.024c0.03067,0.01113 0.06,0.0252 0.088,0.0422c0.028,0.01693 0.05433,0.03647 0.079,0.0586c0.024,0.02207 0.04567,0.04633 0.065,0.0728c0.01933,0.0264 0.036,0.05447 0.05,0.0842c0.014,0.02967 0.025,0.06043 0.033,0.0923c0.008,0.03187 0.01267,0.0642 0.014,0.097c0.002,0.0328 0.00033,0.06543 -0.005,0.0979zM103.572,99.4834c-0.476,1.4406 -0.993,2.6886 -1.516,3.7476c-0.01467,0.03 -0.032,0.058 -0.052,0.084c-0.02,0.026 -0.04233,0.04967 -0.067,0.071c-0.02467,0.022 -0.051,0.041 -0.079,0.057c-0.02867,0.01667 -0.05867,0.03033 -0.09,0.041c-0.03067,0.01067 -0.06233,0.018 -0.095,0.022c-0.03267,0.004 -0.06533,0.005 -0.098,0.003c-0.03267,-0.002 -0.065,-0.00733 -0.097,-0.016c-0.03133,-0.00867 -0.06167,-0.02 -0.091,-0.034c-0.03,-0.01467 -0.058,-0.032 -0.084,-0.052c-0.026,-0.02 -0.04967,-0.04233 -0.071,-0.067c-0.022,-0.02467 -0.041,-0.05133 -0.057,-0.08c-0.01667,-0.028 -0.03033,-0.05767 -0.041,-0.089c-0.01067,-0.03133 -0.018,-0.06333 -0.022,-0.096c-0.004,-0.032 -0.005,-0.06433 -0.003,-0.097c0.002,-0.03333 0.00733,-0.06567 0.016,-0.097c0.008,-0.032 0.01933,-0.06267 0.034,-0.092c0.508,-1.03 0.999,-2.214 1.464,-3.6195c0.01,-0.0312 0.023,-0.06107 0.039,-0.0896c0.01667,-0.02853 0.03567,-0.05523 0.057,-0.0801c0.02133,-0.02487 0.045,-0.0474 0.071,-0.0676c0.026,-0.0202 0.05367,-0.03767 0.083,-0.0524c0.02933,-0.01473 0.05967,-0.0265 0.091,-0.0353c0.032,-0.00873 0.06433,-0.0143 0.097,-0.0167c0.03267,-0.0024 0.06533,-0.0016 0.098,0.0024c0.03267,0.00407 0.06433,0.01123 0.095,0.0215c0.03133,0.01033 0.06133,0.02357 0.09,0.0397c0.02867,0.0162 0.05533,0.03503 0.08,0.0565c0.02467,0.02147 0.04733,0.04513 0.068,0.071c0.02,0.02587 0.03733,0.05347 0.052,0.0828c0.01467,0.02933 0.02633,0.05983 0.035,0.0915c0.00867,0.0316 0.01433,0.0638 0.017,0.0966c0.00267,0.03273 0.002,0.06537 -0.002,0.0979c-0.004,0.0326 -0.01133,0.0645 -0.022,0.0957zM99.9533,106.644c-1.0033,1.299 -1.9449,2.132 -2.6223,2.731l-0.331,-0.375v-0.5h4c0.03267,0 0.06533,0.00333 0.098,0.01c0.032,0.006 0.063,0.01533 0.093,0.028c0.03067,0.01267 0.05967,0.028 0.087,0.046c0.02733,0.01867 0.05267,0.03933 0.076,0.062c0.02267,0.02333 0.04333,0.04867 0.062,0.076c0.018,0.02733 0.03333,0.05633 0.046,0.087c0.01267,0.03 0.022,0.061 0.028,0.093c0.00667,0.03267 0.01,0.06533 0.01,0.098c0,0.03267 -0.00333,0.06533 -0.01,0.098c-0.006,0.032 -0.01533,0.063 -0.028,0.093c-0.01267,0.03067 -0.028,0.05967 -0.046,0.087c-0.01867,0.02733 -0.03933,0.05267 -0.062,0.076c-0.02333,0.02267 -0.04867,0.04333 -0.076,0.062c-0.02733,0.018 -0.05633,0.03333 -0.087,0.046c-0.03,0.01267 -0.061,0.022 -0.093,0.028c-0.03267,0.00667 -0.06533,0.01 -0.098,0.01h-5.3211l0.9901,-0.875c0.677,-0.598 1.5474,-1.368 2.4929,-2.592c0.02007,-0.026 0.04247,-0.05 0.0672,-0.072c0.02473,-0.02133 0.05133,-0.04 0.0798,-0.056c0.02853,-0.01667 0.05833,-0.03033 0.0894,-0.041c0.03113,-0.01 0.063,-0.01733 0.0956,-0.022c0.03253,-0.004 0.0652,-0.00467 0.098,-0.002c0.03273,0.002 0.06493,0.00733 0.0966,0.016c0.03167,0.00867 0.0622,0.02033 0.0916,0.035c0.0294,0.01467 0.0571,0.032 0.0831,0.052c0.026,0.02 0.04977,0.04233 0.0713,0.067c0.0216,0.02467 0.04057,0.05133 0.0569,0.08c0.0164,0.028 0.02993,0.05767 0.0406,0.089c0.01,0.03133 0.017,0.06333 0.021,0.096c0.00467,0.03267 0.00567,0.06533 0.003,0.098c-0.002,0.03267 -0.00733,0.06467 -0.016,0.096c-0.00867,0.032 -0.02033,0.06267 -0.035,0.092c-0.0144,0.02933 -0.03163,0.057 -0.0517,0.083z"></path><path id="矩形 8" fill-rule="evenodd" style="fill:#FFFFFF" opacity="1" d="M8 111L103 111C107.42 111 111 107.42 111 103L111 8C111 3.58 107.42 0 103 0L8 0C3.58 0 0 3.58 0 8L0 103C0 107.42 3.58 111 8 111Z"></path><path id="矩形 8" style="fill:url(#linear_1); opacity:100" d="M20,110h6c0.06567,0 0.1307,0.00633 0.1951,0.019c0.0644,0.01267 0.12693,0.03167 0.1876,0.057c0.06067,0.02533 0.1183,0.05633 0.1729,0.093c0.0546,0.036 0.1051,0.07733 0.1515,0.124c0.0464,0.04667 0.08787,0.097 0.1244,0.151c0.03647,0.05467 0.06727,0.11233 0.0924,0.173c0.02513,0.06067 0.0441,0.12333 0.0569,0.188c0.0128,0.06467 0.0192,0.12967 0.0192,0.195c0,0.06533 -0.0064,0.13033 -0.0192,0.195c-0.0128,0.06467 -0.03177,0.12733 -0.0569,0.188c-0.02513,0.06067 -0.05593,0.11833 -0.0924,0.173c-0.03653,0.054 -0.078,0.10433 -0.1244,0.151c-0.0464,0.04667 -0.0969,0.088 -0.1515,0.124c-0.0546,0.03667 -0.11223,0.06767 -0.1729,0.093c-0.06067,0.02533 -0.1232,0.04433 -0.1876,0.057c-0.0644,0.01267 -0.12943,0.019 -0.1951,0.019h-6c-0.06567,0 -0.1307,-0.00633 -0.1951,-0.019c-0.0644,-0.01267 -0.12693,-0.03167 -0.1876,-0.057c-0.06067,-0.02533 -0.1183,-0.05633 -0.1729,-0.093c-0.0546,-0.036 -0.1051,-0.07733 -0.1515,-0.124c-0.04647,-0.04667 -0.08793,-0.097 -0.1244,-0.151c-0.03647,-0.05467 -0.06727,-0.11233 -0.0924,-0.173c-0.02513,-0.06067 -0.0441,-0.12333 -0.0569,-0.188c-0.0128,-0.06467 -0.0192,-0.12967 -0.0192,-0.195c0,-0.06533 0.0064,-0.13033 0.0192,-0.195c0.0128,-0.06467 0.03177,-0.12733 0.0569,-0.188c0.02513,-0.06067 0.05593,-0.11833 0.0924,-0.173c0.03647,-0.054 0.07793,-0.10433 0.1244,-0.151c0.0464,-0.04667 0.0969,-0.088 0.1515,-0.124c0.0546,-0.03667 0.11223,-0.06767 0.1729,-0.093c0.06067,-0.02533 0.1232,-0.04433 0.1876,-0.057c0.0644,-0.01267 0.12943,-0.019 0.1951,-0.019zM32,110h6c0.06567,0 0.1307,0.00633 0.1951,0.019c0.0644,0.01267 0.12693,0.03167 0.1876,0.057c0.06067,0.02533 0.1183,0.05633 0.1729,0.093c0.0546,0.036 0.1051,0.07733 0.1515,0.124c0.0464,0.04667 0.08787,0.097 0.1244,0.151c0.03647,0.05467 0.06727,0.11233 0.0924,0.173c0.02513,0.06067 0.0441,0.12333 0.0569,0.188c0.0128,0.06467 0.0192,0.12967 0.0192,0.195c0,0.06533 -0.0064,0.13033 -0.0192,0.195c-0.0128,0.06467 -0.03177,0.12733 -0.0569,0.188c-0.02513,0.06067 -0.05593,0.11833 -0.0924,0.173c-0.03653,0.054 -0.078,0.10433 -0.1244,0.151c-0.0464,0.04667 -0.0969,0.088 -0.1515,0.124c-0.0546,0.03667 -0.11223,0.06767 -0.1729,0.093c-0.06067,0.02533 -0.1232,0.04433 -0.1876,0.057c-0.0644,0.01267 -0.12943,0.019 -0.1951,0.019h-6c-0.06567,0 -0.1307,-0.00633 -0.1951,-0.019c-0.0644,-0.01267 -0.12693,-0.03167 -0.1876,-0.057c-0.06067,-0.02533 -0.1183,-0.05633 -0.1729,-0.093c-0.0546,-0.036 -0.1051,-0.07733 -0.1515,-0.124c-0.04647,-0.04667 -0.08793,-0.097 -0.1244,-0.151c-0.03647,-0.05467 -0.06727,-0.11233 -0.0924,-0.173c-0.02513,-0.06067 -0.0441,-0.12333 -0.0569,-0.188c-0.0128,-0.06467 -0.0192,-0.12967 -0.0192,-0.195c0,-0.06533 0.0064,-0.13033 0.0192,-0.195c0.0128,-0.06467 0.03177,-0.12733 0.0569,-0.188c0.02513,-0.06067 0.05593,-0.11833 0.0924,-0.173c0.03647,-0.054 0.07793,-0.10433 0.1244,-0.151c0.0464,-0.04667 0.0969,-0.088 0.1515,-0.124c0.0546,-0.03667 0.11223,-0.06767 0.1729,-0.093c0.06067,-0.02533 0.1232,-0.04433 0.1876,-0.057c0.0644,-0.01267 0.12943,-0.019 0.1951,-0.019zM44,110h6c0.06567,0 0.1307,0.00633 0.1951,0.019c0.0644,0.01267 0.12693,0.03167 0.1876,0.057c0.06067,0.02533 0.1183,0.05633 0.1729,0.093c0.0546,0.036 0.1051,0.07733 0.1515,0.124c0.0464,0.04667 0.08787,0.097 0.1244,0.151c0.03647,0.05467 0.06727,0.11233 0.0924,0.173c0.02513,0.06067 0.0441,0.12333 0.0569,0.188c0.0128,0.06467 0.0192,0.12967 0.0192,0.195c0,0.06533 -0.0064,0.13033 -0.0192,0.195c-0.0128,0.06467 -0.03177,0.12733 -0.0569,0.188c-0.02513,0.06067 -0.05593,0.11833 -0.0924,0.173c-0.03653,0.054 -0.078,0.10433 -0.1244,0.151c-0.0464,0.04667 -0.0969,0.088 -0.1515,0.124c-0.0546,0.03667 -0.11223,0.06767 -0.1729,0.093c-0.06067,0.02533 -0.1232,0.04433 -0.1876,0.057c-0.0644,0.01267 -0.12943,0.019 -0.1951,0.019h-6c-0.06567,0 -0.1307,-0.00633 -0.1951,-0.019c-0.0644,-0.01267 -0.12693,-0.03167 -0.1876,-0.057c-0.06067,-0.02533 -0.1183,-0.05633 -0.1729,-0.093c-0.0546,-0.036 -0.1051,-0.07733 -0.1515,-0.124c-0.04647,-0.04667 -0.08793,-0.097 -0.1244,-0.151c-0.03647,-0.05467 -0.06727,-0.11233 -0.0924,-0.173c-0.02513,-0.06067 -0.0441,-0.12333 -0.0569,-0.188c-0.0128,-0.06467 -0.0192,-0.12967 -0.0192,-0.195c0,-0.06533 0.0064,-0.13033 0.0192,-0.195c0.0128,-0.06467 0.03177,-0.12733 0.0569,-0.188c0.02513,-0.06067 0.05593,-0.11833 0.0924,-0.173c0.03647,-0.054 0.07793,-0.10433 0.1244,-0.151c0.0464,-0.04667 0.0969,-0.088 0.1515,-0.124c0.0546,-0.03667 0.11223,-0.06767 0.1729,-0.093c0.06067,-0.02533 0.1232,-0.04433 0.1876,-0.057c0.0644,-0.01267 0.12943,-0.019 0.1951,-0.019zM56,110h6c0.06567,0 0.1307,0.00633 0.1951,0.019c0.0644,0.01267 0.12693,0.03167 0.1876,0.057c0.06067,0.02533 0.1183,0.05633 0.1729,0.093c0.0546,0.036 0.1051,0.07733 0.1515,0.124c0.0464,0.04667 0.08787,0.097 0.1244,0.151c0.03647,0.05467 0.06727,0.11233 0.0924,0.173c0.02513,0.06067 0.0441,0.12333 0.0569,0.188c0.0128,0.06467 0.0192,0.12967 0.0192,0.195c0,0.06533 -0.0064,0.13033 -0.0192,0.195c-0.0128,0.06467 -0.03177,0.12733 -0.0569,0.188c-0.02513,0.06067 -0.05593,0.11833 -0.0924,0.173c-0.03653,0.054 -0.078,0.10433 -0.1244,0.151c-0.0464,0.04667 -0.0969,0.088 -0.1515,0.124c-0.0546,0.03667 -0.11223,0.06767 -0.1729,0.093c-0.06067,0.02533 -0.1232,0.04433 -0.1876,0.057c-0.0644,0.01267 -0.12943,0.019 -0.1951,0.019h-6c-0.06567,0 -0.1307,-0.00633 -0.1951,-0.019c-0.0644,-0.01267 -0.12693,-0.03167 -0.1876,-0.057c-0.06067,-0.02533 -0.1183,-0.05633 -0.1729,-0.093c-0.0546,-0.036 -0.1051,-0.07733 -0.1515,-0.124c-0.04647,-0.04667 -0.08793,-0.097 -0.1244,-0.151c-0.03647,-0.05467 -0.06727,-0.11233 -0.0924,-0.173c-0.02513,-0.06067 -0.0441,-0.12333 -0.0569,-0.188c-0.0128,-0.06467 -0.0192,-0.12967 -0.0192,-0.195c0,-0.06533 0.0064,-0.13033 0.0192,-0.195c0.0128,-0.06467 0.03177,-0.12733 0.0569,-0.188c0.02513,-0.06067 0.05593,-0.11833 0.0924,-0.173c0.03647,-0.054 0.07793,-0.10433 0.1244,-0.151c0.0464,-0.04667 0.0969,-0.088 0.1515,-0.124c0.0546,-0.03667 0.11223,-0.06767 0.1729,-0.093c0.06067,-0.02533 0.1232,-0.04433 0.1876,-0.057c0.0644,-0.01267 0.12943,-0.019 0.1951,-0.019zM68,110h6c0.06567,0 0.1307,0.00633 0.1951,0.019c0.0644,0.01267 0.12693,0.03167 0.1876,0.057c0.06067,0.02533 0.1183,0.05633 0.1729,0.093c0.0546,0.036 0.1051,0.07733 0.1515,0.124c0.0464,0.04667 0.08787,0.097 0.1244,0.151c0.03647,0.05467 0.06727,0.11233 0.0924,0.173c0.02513,0.06067 0.0441,0.12333 0.0569,0.188c0.0128,0.06467 0.0192,0.12967 0.0192,0.195c0,0.06533 -0.0064,0.13033 -0.0192,0.195c-0.0128,0.06467 -0.03177,0.12733 -0.0569,0.188c-0.02513,0.06067 -0.05593,0.11833 -0.0924,0.173c-0.03653,0.054 -0.078,0.10433 -0.1244,0.151c-0.0464,0.04667 -0.0969,0.088 -0.1515,0.124c-0.0546,0.03667 -0.11223,0.06767 -0.1729,0.093c-0.06067,0.02533 -0.1232,0.04433 -0.1876,0.057c-0.0644,0.01267 -0.12943,0.019 -0.1951,0.019h-6c-0.06567,0 -0.1307,-0.00633 -0.1951,-0.019c-0.0644,-0.01267 -0.12693,-0.03167 -0.1876,-0.057c-0.06067,-0.02533 -0.1183,-0.05633 -0.1729,-0.093c-0.0546,-0.036 -0.1051,-0.07733 -0.1515,-0.124c-0.0464,-0.04667 -0.08787,-0.097 -0.1244,-0.151c-0.03647,-0.05467 -0.06727,-0.11233 -0.0924,-0.173c-0.02513,-0.06067 -0.0441,-0.12333 -0.0569,-0.188c-0.0128,-0.06467 -0.0192,-0.12967 -0.0192,-0.195c0,-0.06533 0.0064,-0.13033 0.0192,-0.195c0.0128,-0.06467 0.03177,-0.12733 0.0569,-0.188c0.02513,-0.06067 0.05593,-0.11833 0.0924,-0.173c0.03653,-0.054 0.078,-0.10433 0.1244,-0.151c0.0464,-0.04667 0.0969,-0.088 0.1515,-0.124c0.0546,-0.03667 0.11223,-0.06767 0.1729,-0.093c0.06067,-0.02533 0.1232,-0.04433 0.1876,-0.057c0.0644,-0.01267 0.12943,-0.019 0.1951,-0.019zM80,110h6c0.06567,0 0.1307,0.00633 0.1951,0.019c0.0644,0.01267 0.12693,0.03167 0.1876,0.057c0.06067,0.02533 0.1183,0.05633 0.1729,0.093c0.0546,0.036 0.1051,0.07733 0.1515,0.124c0.0464,0.04667 0.08787,0.097 0.1244,0.151c0.03647,0.05467 0.06727,0.11233 0.0924,0.173c0.02513,0.06067 0.0441,0.12333 0.0569,0.188c0.0128,0.06467 0.0192,0.12967 0.0192,0.195c0,0.06533 -0.0064,0.13033 -0.0192,0.195c-0.0128,0.06467 -0.03177,0.12733 -0.0569,0.188c-0.02513,0.06067 -0.05593,0.11833 -0.0924,0.173c-0.03653,0.054 -0.078,0.10433 -0.1244,0.151c-0.0464,0.04667 -0.0969,0.088 -0.1515,0.124c-0.0546,0.03667 -0.11223,0.06767 -0.1729,0.093c-0.06067,0.02533 -0.1232,0.04433 -0.1876,0.057c-0.0644,0.01267 -0.12943,0.019 -0.1951,0.019h-6c-0.06567,0 -0.1307,-0.00633 -0.1951,-0.019c-0.0644,-0.01267 -0.12693,-0.03167 -0.1876,-0.057c-0.06067,-0.02533 -0.1183,-0.05633 -0.1729,-0.093c-0.0546,-0.036 -0.1051,-0.07733 -0.1515,-0.124c-0.04647,-0.04667 -0.08793,-0.097 -0.1244,-0.151c-0.03647,-0.05467 -0.06727,-0.11233 -0.0924,-0.173c-0.02513,-0.06067 -0.0441,-0.12333 -0.0569,-0.188c-0.0128,-0.06467 -0.0192,-0.12967 -0.0192,-0.195c0,-0.06533 0.0064,-0.13033 0.0192,-0.195c0.0128,-0.06467 0.03177,-0.12733 0.0569,-0.188c0.02513,-0.06067 0.05593,-0.11833 0.0924,-0.173c0.03647,-0.054 0.07793,-0.10433 0.1244,-0.151c0.0464,-0.04667 0.0969,-0.088 0.1515,-0.124c0.0546,-0.03667 0.11223,-0.06767 0.1729,-0.093c0.06067,-0.02533 0.1232,-0.04433 0.1876,-0.057c0.0644,-0.01267 0.12943,-0.019 0.1951,-0.019zM92,110h6c0.06567,0 0.1307,0.00633 0.1951,0.019c0.0644,0.01267 0.12693,0.03167 0.1876,0.057c0.06067,0.02533 0.1183,0.05633 0.1729,0.093c0.0546,0.036 0.1051,0.07733 0.1515,0.124c0.0464,0.04667 0.08787,0.097 0.1244,0.151c0.03647,0.05467 0.06727,0.11233 0.0924,0.173c0.02513,0.06067 0.0441,0.12333 0.0569,0.188c0.0128,0.06467 0.0192,0.12967 0.0192,0.195c0,0.06533 -0.0064,0.13033 -0.0192,0.195c-0.0128,0.06467 -0.03177,0.12733 -0.0569,0.188c-0.02513,0.06067 -0.05593,0.11833 -0.0924,0.173c-0.03653,0.054 -0.078,0.10433 -0.1244,0.151c-0.0464,0.04667 -0.0969,0.088 -0.1515,0.124c-0.0546,0.03667 -0.11223,0.06767 -0.1729,0.093c-0.06067,0.02533 -0.1232,0.04433 -0.1876,0.057c-0.0644,0.01267 -0.12943,0.019 -0.1951,0.019h-6c-0.06567,0 -0.1307,-0.00633 -0.1951,-0.019c-0.0644,-0.01267 -0.12693,-0.03167 -0.1876,-0.057c-0.06067,-0.02533 -0.1183,-0.05633 -0.1729,-0.093c-0.0546,-0.036 -0.1051,-0.07733 -0.1515,-0.124c-0.04647,-0.04667 -0.08793,-0.097 -0.1244,-0.151c-0.03647,-0.05467 -0.06727,-0.11233 -0.0924,-0.173c-0.02513,-0.06067 -0.0441,-0.12333 -0.0569,-0.188c-0.0128,-0.06467 -0.0192,-0.12967 -0.0192,-0.195c0,-0.06533 0.0064,-0.13033 0.0192,-0.195c0.0128,-0.06467 0.03177,-0.12733 0.0569,-0.188c0.02513,-0.06067 0.05593,-0.11833 0.0924,-0.173c0.03647,-0.054 0.07793,-0.10433 0.1244,-0.151c0.0464,-0.04667 0.0969,-0.088 0.1515,-0.124c0.0546,-0.03667 0.11223,-0.06767 0.1729,-0.093c0.06067,-0.02533 0.1232,-0.04433 0.1876,-0.057c0.0644,-0.01267 0.12943,-0.019 0.1951,-0.019zM103.899,109.943c1.626,-0.208 2.942,-0.884 4.051,-1.992c0.162,-0.162 0.3,-0.314 0.446,-0.491c0.042,-0.05067 0.08867,-0.09667 0.14,-0.138c0.05067,-0.04133 0.105,-0.07733 0.163,-0.108c0.058,-0.03067 0.11833,-0.05533 0.181,-0.074c0.06333,-0.01933 0.12767,-0.032 0.193,-0.038c0.06533,-0.006 0.13067,-0.00567 0.196,0.001c0.06533,0.00667 0.12933,0.01967 0.192,0.039c0.06267,0.01933 0.123,0.04467 0.181,0.076c0.058,0.03067 0.112,0.067 0.162,0.109c0.05067,0.042 0.09667,0.08833 0.138,0.139c0.042,0.05133 0.07833,0.106 0.109,0.164c0.03067,0.058 0.05533,0.11833 0.074,0.181c0.01867,0.06333 0.031,0.12767 0.037,0.193c0.00667,0.06533 0.00667,0.13067 0,0.196c-0.00667,0.06533 -0.01967,0.12933 -0.039,0.192c-0.01933,0.06267 -0.04467,0.123 -0.076,0.181c-0.03133,0.05733 -0.068,0.11133 -0.11,0.162c-0.176,0.213 -0.377,0.435 -0.573,0.63c-1.33,1.33 -3.238,2.309 -5.211,2.562c-0.06467,0.008 -0.13,0.00967 -0.196,0.005c-0.06533,-0.004 -0.12967,-0.01467 -0.193,-0.032c-0.06333,-0.01733 -0.12433,-0.04067 -0.183,-0.07c-0.05867,-0.02933 -0.114,-0.064 -0.166,-0.104c-0.052,-0.04 -0.09967,-0.085 -0.143,-0.135c-0.04333,-0.04933 -0.081,-0.10233 -0.113,-0.159c-0.03267,-0.05733 -0.05967,-0.117 -0.081,-0.179c-0.02067,-0.06267 -0.03533,-0.12633 -0.044,-0.191c-0.008,-0.06533 -0.00967,-0.13067 -0.005,-0.196c0.00467,-0.06533 0.01533,-0.13 0.032,-0.194c0.01733,-0.06333 0.04067,-0.12433 0.07,-0.183c0.02933,-0.05867 0.064,-0.114 0.104,-0.166c0.04,-0.052 0.085,-0.09933 0.135,-0.142c0.04933,-0.04333 0.10267,-0.08133 0.16,-0.114c0.05667,-0.03267 0.116,-0.05933 0.178,-0.08c0.06267,-0.02133 0.12633,-0.036 0.191,-0.044zM110,102.488v-5.9999c0,-0.06567 0.00633,-0.1307 0.019,-0.1951c0.01267,-0.0644 0.03167,-0.12693 0.057,-0.1876c0.02533,-0.06067 0.05633,-0.1183 0.093,-0.1729c0.036,-0.0546 0.07733,-0.1051 0.124,-0.1515c0.04667,-0.04647 0.097,-0.08793 0.151,-0.1244c0.05467,-0.03647 0.11233,-0.06727 0.173,-0.0924c0.06067,-0.02513 0.12333,-0.0441 0.188,-0.0569c0.06467,-0.0128 0.12967,-0.0192 0.195,-0.0192c0.06533,0 0.13033,0.0064 0.195,0.0192c0.06467,0.0128 0.12733,0.03177 0.188,0.0569c0.06067,0.02513 0.11833,0.05593 0.173,0.0924c0.054,0.03647 0.10433,0.07793 0.151,0.1244c0.04667,0.0464 0.088,0.0969 0.124,0.1515c0.03667,0.0546 0.06767,0.11223 0.093,0.1729c0.02533,0.06067 0.04433,0.1232 0.057,0.1876c0.01267,0.0644 0.019,0.12943 0.019,0.1951v5.9999c0,0.066 -0.00633,0.131 -0.019,0.195c-0.01267,0.06467 -0.03167,0.12733 -0.057,0.188c-0.02533,0.06067 -0.05633,0.11833 -0.093,0.173c-0.036,0.05467 -0.07733,0.105 -0.124,0.151c-0.04667,0.04667 -0.097,0.08833 -0.151,0.125c-0.05467,0.036 -0.11233,0.06667 -0.173,0.092c-0.06067,0.02533 -0.12333,0.04433 -0.188,0.057c-0.06467,0.01267 -0.12967,0.019 -0.195,0.019c-0.06533,0 -0.13033,-0.00633 -0.195,-0.019c-0.06467,-0.01267 -0.12733,-0.03167 -0.188,-0.057c-0.06067,-0.02533 -0.11833,-0.056 -0.173,-0.092c-0.054,-0.03667 -0.10433,-0.07833 -0.151,-0.125c-0.04667,-0.046 -0.088,-0.09633 -0.124,-0.151c-0.03667,-0.05467 -0.06767,-0.11233 -0.093,-0.173c-0.02533,-0.06067 -0.04433,-0.12333 -0.057,-0.188c-0.01267,-0.064 -0.019,-0.129 -0.019,-0.195zM110,90.4881v-6c0,-0.06567 0.00633,-0.1307 0.019,-0.1951c0.01267,-0.0644 0.03167,-0.12693 0.057,-0.1876c0.02533,-0.06067 0.05633,-0.1183 0.093,-0.1729c0.036,-0.0546 0.07733,-0.1051 0.124,-0.1515c0.04667,-0.04647 0.097,-0.08793 0.151,-0.1244c0.05467,-0.03647 0.11233,-0.06727 0.173,-0.0924c0.06067,-0.02513 0.12333,-0.0441 0.188,-0.0569c0.06467,-0.0128 0.12967,-0.0192 0.195,-0.0192c0.06533,0 0.13033,0.0064 0.195,0.0192c0.06467,0.0128 0.12733,0.03177 0.188,0.0569c0.06067,0.02513 0.11833,0.05593 0.173,0.0924c0.054,0.03647 0.10433,0.07793 0.151,0.1244c0.04667,0.0464 0.088,0.0969 0.124,0.1515c0.03667,0.0546 0.06767,0.11223 0.093,0.1729c0.02533,0.06067 0.04433,0.1232 0.057,0.1876c0.01267,0.0644 0.019,0.12943 0.019,0.1951v6c0,0.0656 -0.00633,0.1306 -0.019,0.195c-0.01267,0.0644 -0.03167,0.12693 -0.057,0.1876c-0.02533,0.06067 -0.05633,0.1183 -0.093,0.1729c-0.036,0.0546 -0.07733,0.10513 -0.124,0.1516c-0.04667,0.0464 -0.097,0.08783 -0.151,0.1243c-0.05467,0.03647 -0.11233,0.06727 -0.173,0.0924c-0.06067,0.02513 -0.12333,0.0441 -0.188,0.0569c-0.06467,0.01287 -0.12967,0.0193 -0.195,0.0193c-0.06533,0 -0.13033,-0.00643 -0.195,-0.0193c-0.06467,-0.0128 -0.12733,-0.03177 -0.188,-0.0569c-0.06067,-0.02513 -0.11833,-0.05593 -0.173,-0.0924c-0.054,-0.03647 -0.10433,-0.0779 -0.151,-0.1243c-0.04667,-0.04647 -0.088,-0.097 -0.124,-0.1516c-0.03667,-0.0546 -0.06767,-0.11223 -0.093,-0.1729c-0.02533,-0.06067 -0.04433,-0.1232 -0.057,-0.1876c-0.01267,-0.0644 -0.019,-0.1294 -0.019,-0.195zM110,78.4881v-6c0,-0.06567 0.00633,-0.1307 0.019,-0.1951c0.01267,-0.0644 0.03167,-0.12693 0.057,-0.1876c0.02533,-0.06067 0.05633,-0.1183 0.093,-0.1729c0.036,-0.0546 0.07733,-0.1051 0.124,-0.1515c0.04667,-0.04647 0.097,-0.08793 0.151,-0.1244c0.05467,-0.03647 0.11233,-0.06727 0.173,-0.0924c0.06067,-0.02513 0.12333,-0.0441 0.188,-0.0569c0.06467,-0.0128 0.12967,-0.0192 0.195,-0.0192c0.06533,0 0.13033,0.0064 0.195,0.0192c0.06467,0.0128 0.12733,0.03177 0.188,0.0569c0.06067,0.02513 0.11833,0.05593 0.173,0.0924c0.054,0.03647 0.10433,0.07793 0.151,0.1244c0.04667,0.0464 0.088,0.0969 0.124,0.1515c0.03667,0.0546 0.06767,0.11223 0.093,0.1729c0.02533,0.06067 0.04433,0.1232 0.057,0.1876c0.01267,0.0644 0.019,0.12943 0.019,0.1951v6c0,0.06567 -0.00633,0.1307 -0.019,0.1951c-0.01267,0.0644 -0.03167,0.1269 -0.057,0.1875c-0.02533,0.06067 -0.05633,0.1183 -0.093,0.1729c-0.036,0.0546 -0.07733,0.10513 -0.124,0.1516c-0.04667,0.0464 -0.097,0.08783 -0.151,0.1243c-0.05467,0.03653 -0.11233,0.06733 -0.173,0.0924c-0.06067,0.02513 -0.12333,0.0441 -0.188,0.0569c-0.06467,0.01287 -0.12967,0.0193 -0.195,0.0193c-0.06533,0 -0.13033,-0.00643 -0.195,-0.0193c-0.06467,-0.0128 -0.12733,-0.03177 -0.188,-0.0569c-0.06067,-0.02507 -0.11833,-0.05587 -0.173,-0.0924c-0.054,-0.03647 -0.10433,-0.0779 -0.151,-0.1243c-0.04667,-0.04647 -0.088,-0.097 -0.124,-0.1516c-0.03667,-0.0546 -0.06767,-0.11223 -0.093,-0.1729c-0.02533,-0.0606 -0.04433,-0.1231 -0.057,-0.1875c-0.01267,-0.0644 -0.019,-0.12943 -0.019,-0.1951zM110,66.4881v-6c0,-0.06567 0.00633,-0.1307 0.019,-0.1951c0.01267,-0.0644 0.03167,-0.12693 0.057,-0.1876c0.02533,-0.06067 0.05633,-0.1183 0.093,-0.1729c0.036,-0.0546 0.07733,-0.1051 0.124,-0.1515c0.04667,-0.04647 0.097,-0.08793 0.151,-0.1244c0.05467,-0.03647 0.11233,-0.06727 0.173,-0.0924c0.06067,-0.02513 0.12333,-0.0441 0.188,-0.0569c0.06467,-0.0128 0.12967,-0.0192 0.195,-0.0192c0.06533,0 0.13033,0.0064 0.195,0.0192c0.06467,0.0128 0.12733,0.03177 0.188,0.0569c0.06067,0.02513 0.11833,0.05593 0.173,0.0924c0.054,0.03647 0.10433,0.07793 0.151,0.1244c0.04667,0.0464 0.088,0.0969 0.124,0.1515c0.03667,0.0546 0.06767,0.11223 0.093,0.1729c0.02533,0.06067 0.04433,0.1232 0.057,0.1876c0.01267,0.0644 0.019,0.12943 0.019,0.1951v6c0,0.06567 -0.00633,0.1307 -0.019,0.1951c-0.01267,0.0644 -0.03167,0.12693 -0.057,0.1876c-0.02533,0.0606 -0.05633,0.1182 -0.093,0.1728c-0.036,0.0546 -0.07733,0.10513 -0.124,0.1516c-0.04667,0.0464 -0.097,0.08783 -0.151,0.1243c-0.05467,0.03653 -0.11233,0.06733 -0.173,0.0924c-0.06067,0.02513 -0.12333,0.0441 -0.188,0.0569c-0.06467,0.01287 -0.12967,0.0193 -0.195,0.0193c-0.06533,0 -0.13033,-0.0064 -0.195,-0.0192c-0.06467,-0.01287 -0.12733,-0.03187 -0.188,-0.057c-0.06067,-0.02507 -0.11833,-0.05587 -0.173,-0.0924c-0.054,-0.03647 -0.10433,-0.0779 -0.151,-0.1243c-0.04667,-0.04647 -0.088,-0.097 -0.124,-0.1516c-0.03667,-0.0546 -0.06767,-0.1122 -0.093,-0.1728c-0.02533,-0.06067 -0.04433,-0.1232 -0.057,-0.1876c-0.01267,-0.0644 -0.019,-0.12943 -0.019,-0.1951zM110,54.4881v-6c0,-0.06567 0.00633,-0.1307 0.019,-0.1951c0.01267,-0.0644 0.03167,-0.12693 0.057,-0.1876c0.02533,-0.06067 0.05633,-0.1183 0.093,-0.1729c0.036,-0.0546 0.07733,-0.1051 0.124,-0.1515c0.04667,-0.04647 0.097,-0.08793 0.151,-0.1244c0.05467,-0.03647 0.11233,-0.06727 0.173,-0.0924c0.06067,-0.02513 0.12333,-0.0441 0.188,-0.0569c0.06467,-0.0128 0.12967,-0.0192 0.195,-0.0192c0.06533,0 0.13033,0.0064 0.195,0.0192c0.06467,0.0128 0.12733,0.03177 0.188,0.0569c0.06067,0.02513 0.11833,0.05593 0.173,0.0924c0.054,0.03647 0.10433,0.07793 0.151,0.1244c0.04667,0.0464 0.088,0.0969 0.124,0.1515c0.03667,0.0546 0.06767,0.11223 0.093,0.1729c0.02533,0.06067 0.04433,0.1232 0.057,0.1876c0.01267,0.0644 0.019,0.12943 0.019,0.1951v6c0,0.06567 -0.00633,0.1307 -0.019,0.1951c-0.01267,0.06433 -0.03167,0.12683 -0.057,0.1875c-0.02533,0.06067 -0.05633,0.1183 -0.093,0.1729c-0.036,0.0546 -0.07733,0.10513 -0.124,0.1516c-0.04667,0.0464 -0.097,0.08783 -0.151,0.1243c-0.05467,0.03647 -0.11233,0.06727 -0.173,0.0924c-0.06067,0.02513 -0.12333,0.0441 -0.188,0.0569c-0.06467,0.01287 -0.12967,0.0193 -0.195,0.0193c-0.06533,0 -0.13033,-0.00643 -0.195,-0.0193c-0.06467,-0.0128 -0.12733,-0.03177 -0.188,-0.0569c-0.06067,-0.02513 -0.11833,-0.05593 -0.173,-0.0924c-0.054,-0.03647 -0.10433,-0.0779 -0.151,-0.1243c-0.04667,-0.04647 -0.088,-0.097 -0.124,-0.1516c-0.03667,-0.0546 -0.06767,-0.11223 -0.093,-0.1729c-0.02533,-0.06067 -0.04433,-0.12317 -0.057,-0.1875c-0.01267,-0.0644 -0.019,-0.12943 -0.019,-0.1951zM110,42.4881v-6c0,-0.06567 0.00633,-0.1307 0.019,-0.1951c0.01267,-0.0644 0.03167,-0.12693 0.057,-0.1876c0.02533,-0.06067 0.05633,-0.1183 0.093,-0.1729c0.036,-0.0546 0.07733,-0.1051 0.124,-0.1515c0.04667,-0.04647 0.097,-0.08793 0.151,-0.1244c0.05467,-0.03647 0.11233,-0.06727 0.173,-0.0924c0.06067,-0.02513 0.12333,-0.0441 0.188,-0.0569c0.06467,-0.0128 0.12967,-0.0192 0.195,-0.0192c0.06533,0 0.13033,0.0064 0.195,0.0192c0.06467,0.0128 0.12733,0.03177 0.188,0.0569c0.06067,0.02513 0.11833,0.05593 0.173,0.0924c0.054,0.03647 0.10433,0.07793 0.151,0.1244c0.04667,0.0464 0.088,0.0969 0.124,0.1515c0.03667,0.0546 0.06767,0.11223 0.093,0.1729c0.02533,0.06067 0.04433,0.1232 0.057,0.1876c0.01267,0.0644 0.019,0.12943 0.019,0.1951v6c0,0.06567 -0.00633,0.1307 -0.019,0.1951c-0.01267,0.0644 -0.03167,0.1269 -0.057,0.1875c-0.02533,0.06067 -0.05633,0.1183 -0.093,0.1729c-0.036,0.0546 -0.07733,0.10513 -0.124,0.1516c-0.04667,0.0464 -0.097,0.08783 -0.151,0.1243c-0.05467,0.03653 -0.11233,0.06733 -0.173,0.0924c-0.06067,0.02513 -0.12333,0.0441 -0.188,0.0569c-0.06467,0.01287 -0.12967,0.0193 -0.195,0.0193c-0.06533,0 -0.13033,-0.00643 -0.195,-0.0193c-0.06467,-0.0128 -0.12733,-0.03177 -0.188,-0.0569c-0.06067,-0.02507 -0.11833,-0.05587 -0.173,-0.0924c-0.054,-0.03647 -0.10433,-0.0779 -0.151,-0.1243c-0.04667,-0.04647 -0.088,-0.097 -0.124,-0.1516c-0.03667,-0.0546 -0.06767,-0.11223 -0.093,-0.1729c-0.02533,-0.0606 -0.04433,-0.1231 -0.057,-0.1875c-0.01267,-0.0644 -0.019,-0.12943 -0.019,-0.1951zM110,30.4881v-6c0,-0.06567 0.00633,-0.1307 0.019,-0.1951c0.01267,-0.0644 0.03167,-0.12693 0.057,-0.1876c0.02533,-0.06067 0.05633,-0.1183 0.093,-0.1729c0.036,-0.0546 0.07733,-0.1051 0.124,-0.1515c0.04667,-0.04647 0.097,-0.08793 0.151,-0.1244c0.05467,-0.03647 0.11233,-0.06727 0.173,-0.0924c0.06067,-0.02513 0.12333,-0.0441 0.188,-0.0569c0.06467,-0.0128 0.12967,-0.0192 0.195,-0.0192c0.06533,0 0.13033,0.0064 0.195,0.0192c0.06467,0.0128 0.12733,0.03177 0.188,0.0569c0.06067,0.02513 0.11833,0.05593 0.173,0.0924c0.054,0.03647 0.10433,0.07793 0.151,0.1244c0.04667,0.0464 0.088,0.0969 0.124,0.1515c0.03667,0.0546 0.06767,0.11223 0.093,0.1729c0.02533,0.06067 0.04433,0.1232 0.057,0.1876c0.01267,0.0644 0.019,0.12943 0.019,0.1951v6c0,0.06567 -0.00633,0.1307 -0.019,0.1951c-0.01267,0.0644 -0.03167,0.1269 -0.057,0.1875c-0.02533,0.06067 -0.05633,0.1183 -0.093,0.1729c-0.036,0.0546 -0.07733,0.10513 -0.124,0.1516c-0.04667,0.0464 -0.097,0.08783 -0.151,0.1243c-0.05467,0.03653 -0.11233,0.06733 -0.173,0.0924c-0.06067,0.02513 -0.12333,0.0441 -0.188,0.0569c-0.06467,0.01287 -0.12967,0.0193 -0.195,0.0193c-0.06533,0 -0.13033,-0.0064 -0.195,-0.0192c-0.06467,-0.01287 -0.12733,-0.03187 -0.188,-0.057c-0.06067,-0.02507 -0.11833,-0.05587 -0.173,-0.0924c-0.054,-0.03647 -0.10433,-0.0779 -0.151,-0.1243c-0.04667,-0.04647 -0.088,-0.097 -0.124,-0.1516c-0.03667,-0.0546 -0.06767,-0.11223 -0.093,-0.1729c-0.02533,-0.0606 -0.04433,-0.1231 -0.057,-0.1875c-0.01267,-0.0644 -0.019,-0.12943 -0.019,-0.1951zM110,18.4881v-6c0,-0.06567 0.00633,-0.1307 0.019,-0.1951c0.01267,-0.0644 0.03167,-0.12693 0.057,-0.1876c0.02533,-0.06067 0.05633,-0.1183 0.093,-0.1729c0.036,-0.0546 0.07733,-0.1051 0.124,-0.1515c0.04667,-0.04647 0.097,-0.08793 0.151,-0.1244c0.05467,-0.03647 0.11233,-0.06727 0.173,-0.0924c0.06067,-0.02513 0.12333,-0.0441 0.188,-0.0569c0.06467,-0.0128 0.12967,-0.0192 0.195,-0.0192c0.06533,0 0.13033,0.0064 0.195,0.0192c0.06467,0.0128 0.12733,0.03177 0.188,0.0569c0.06067,0.02513 0.11833,0.05593 0.173,0.0924c0.054,0.03647 0.10433,0.07793 0.151,0.1244c0.04667,0.0464 0.088,0.0969 0.124,0.1515c0.03667,0.0546 0.06767,0.11223 0.093,0.1729c0.02533,0.06067 0.04433,0.1232 0.057,0.1876c0.01267,0.0644 0.019,0.12943 0.019,0.1951v6c0,0.06567 -0.00633,0.1307 -0.019,0.1951c-0.01267,0.0644 -0.03167,0.12693 -0.057,0.1876c-0.02533,0.0606 -0.05633,0.1182 -0.093,0.1728c-0.036,0.0546 -0.07733,0.10513 -0.124,0.1516c-0.04667,0.0464 -0.097,0.08783 -0.151,0.1243c-0.05467,0.03653 -0.11233,0.06733 -0.173,0.0924c-0.06067,0.02513 -0.12333,0.04413 -0.188,0.057c-0.06467,0.0128 -0.12967,0.0192 -0.195,0.0192c-0.06533,0 -0.13033,-0.0064 -0.195,-0.0192c-0.06467,-0.01287 -0.12733,-0.03187 -0.188,-0.057c-0.06067,-0.02507 -0.11833,-0.05587 -0.173,-0.0924c-0.054,-0.03647 -0.10433,-0.0779 -0.151,-0.1243c-0.04667,-0.04647 -0.088,-0.097 -0.124,-0.1516c-0.03667,-0.0546 -0.06767,-0.1122 -0.093,-0.1728c-0.02533,-0.06067 -0.04433,-0.1232 -0.057,-0.1876c-0.01267,-0.0644 -0.019,-0.12943 -0.019,-0.1951zM109.871,6.65375c-0.28,-1.43976 -0.918,-2.60178 -1.921,-3.60414c-0.271,-0.27139 -0.534,-0.49566 -0.845,-0.72135c-0.05333,-0.03855 -0.10233,-0.0819 -0.147,-0.13007c-0.04467,-0.04817 -0.084,-0.10023 -0.118,-0.15618c-0.03467,-0.05595 -0.06333,-0.11472 -0.086,-0.1763c-0.02267,-0.06158 -0.03933,-0.12479 -0.05,-0.18963c-0.01,-0.06484 -0.01367,-0.13007 -0.011,-0.19568c0.002,-0.06561 0.01067,-0.13035 0.026,-0.19422c0.01533,-0.06386 0.03667,-0.12562 0.064,-0.18528c0.028,-0.05965 0.061,-0.11606 0.099,-0.16922c0.03867,-0.05316 0.082,-0.10205 0.13,-0.14667c0.04867,-0.04462 0.101,-0.08411 0.157,-0.11848c0.056,-0.03436 0.11467,-0.06294 0.176,-0.08573c0.06133,-0.02279 0.12467,-0.03935 0.19,-0.04969c0.06467,-0.01034 0.12967,-0.01425 0.195,-0.01174c0.066,0.00251 0.13067,0.0114 0.194,0.02666c0.064,0.01526 0.126,0.03661 0.186,0.06404c0.05933,0.02743 0.11567,0.06041 0.169,0.09895c0.376,0.27229 0.759,0.59927 1.086,0.92636c1.203,1.20387 2.13,2.88984 2.469,4.63665c0.01267,0.06445 0.019,0.12951 0.019,0.19517c-0.00067,0.06566 -0.00733,0.13066 -0.02,0.19501c-0.01333,0.06434 -0.03267,0.12679 -0.058,0.18734c-0.02533,0.06056 -0.05633,0.11806 -0.093,0.17249c-0.03667,0.05444 -0.07833,0.10477 -0.125,0.151c-0.04667,0.04623 -0.09733,0.08746 -0.152,0.12371c-0.05533,0.03624 -0.11333,0.06679 -0.174,0.09166c-0.06067,0.02487 -0.12333,0.04356 -0.188,0.05609c-0.064,0.01253 -0.129,0.01866 -0.195,0.01837c-0.06533,-0.00028 -0.13033,-0.00696 -0.195,-0.02005c-0.064,-0.01309 -0.12633,-0.03233 -0.187,-0.05772c-0.06067,-0.02539 -0.11833,-0.05644 -0.173,-0.09315c-0.054,-0.03672 -0.10433,-0.07839 -0.151,-0.12502c-0.046,-0.04663 -0.087,-0.09732 -0.123,-0.15207c-0.03667,-0.05475 -0.06733,-0.11252 -0.092,-0.17329c-0.02467,-0.06077 -0.04333,-0.12338 -0.056,-0.18783zM101.976,1h-5.9999c-0.06567,0 -0.1307,-0.0064 -0.1951,-0.01921c-0.0644,-0.01281 -0.12693,-0.03178 -0.1876,-0.05691c-0.06067,-0.02513 -0.1183,-0.05593 -0.1729,-0.09241c-0.0546,-0.03648 -0.1051,-0.07793 -0.1515,-0.12436c-0.0464,-0.04643 -0.08787,-0.09694 -0.1244,-0.15154c-0.03647,-0.05459 -0.06727,-0.11222 -0.0924,-0.17289c-0.02513,-0.06066 -0.0441,-0.12319 -0.0569,-0.18759c-0.0128,-0.0644 -0.0192,-0.12943 -0.0192,-0.19509c0,-0.06566 0.0064,-0.13069 0.0192,-0.19509c0.0128,-0.0644 0.03177,-0.12693 0.0569,-0.18759c0.02513,-0.06066 0.05593,-0.11829 0.0924,-0.17289c0.03653,-0.0546 0.078,-0.10511 0.1244,-0.15154c0.0464,-0.04643 0.0969,-0.08788 0.1515,-0.12436c0.0546,-0.03648 0.11223,-0.06728 0.1729,-0.09241c0.06067,-0.02513 0.1232,-0.0441 0.1876,-0.05691c0.0644,-0.01281 0.12943,-0.01921 0.1951,-0.01921h5.9999c0.066,0 0.131,0.0064 0.195,0.01921c0.06467,0.01281 0.12733,0.03178 0.188,0.05691c0.06067,0.02513 0.11833,0.05593 0.173,0.09241c0.05467,0.03648 0.105,0.07793 0.151,0.12436c0.04667,0.04643 0.08833,0.09694 0.125,0.15154c0.036,0.05459 0.06667,0.11222 0.092,0.17289c0.02533,0.06066 0.04433,0.12319 0.057,0.18759c0.01267,0.0644 0.019,0.12943 0.019,0.19509c0,0.06566 -0.00633,0.13069 -0.019,0.19509c-0.01267,0.0644 -0.03167,0.12693 -0.057,0.18759c-0.02533,0.06066 -0.056,0.11829 -0.092,0.17289c-0.03667,0.0546 -0.07833,0.10511 -0.125,0.15154c-0.046,0.04643 -0.09633,0.08788 -0.151,0.12436c-0.05467,0.03648 -0.11233,0.06728 -0.173,0.09241c-0.06067,0.02513 -0.12333,0.0441 -0.188,0.05691c-0.064,0.01281 -0.129,0.01921 -0.195,0.01921zM89.9761,1h-6c-0.06567,0 -0.1307,-0.0064 -0.1951,-0.01921c-0.0644,-0.01281 -0.12693,-0.03178 -0.1876,-0.05691c-0.06067,-0.02513 -0.1183,-0.05593 -0.1729,-0.09241c-0.0546,-0.03648 -0.1051,-0.07793 -0.1515,-0.12436c-0.0464,-0.04643 -0.08787,-0.09694 -0.1244,-0.15154c-0.03647,-0.05459 -0.06727,-0.11222 -0.0924,-0.17289c-0.02513,-0.06066 -0.0441,-0.12319 -0.0569,-0.18759c-0.0128,-0.0644 -0.0192,-0.12943 -0.0192,-0.19509c0,-0.06566 0.0064,-0.13069 0.0192,-0.19509c0.0128,-0.0644 0.03177,-0.12693 0.0569,-0.18759c0.02513,-0.06066 0.05593,-0.11829 0.0924,-0.17289c0.03653,-0.0546 0.078,-0.10511 0.1244,-0.15154c0.04647,-0.04643 0.09697,-0.08788 0.1515,-0.12436c0.0546,-0.03648 0.11223,-0.06728 0.1729,-0.09241c0.06067,-0.02513 0.1232,-0.0441 0.1876,-0.05691c0.0644,-0.01281 0.12943,-0.01921 0.1951,-0.01921h6c0.06567,0 0.1307,0.0064 0.1951,0.01921c0.0644,0.01281 0.12693,0.03178 0.1876,0.05691c0.06067,0.02513 0.1183,0.05593 0.1729,0.09241c0.0546,0.03648 0.1051,0.07793 0.1515,0.12436c0.04647,0.04643 0.08793,0.09694 0.1244,0.15154c0.03647,0.05459 0.06727,0.11222 0.0924,0.17289c0.02513,0.06066 0.0441,0.12319 0.0569,0.18759c0.0128,0.0644 0.0192,0.12943 0.0192,0.19509c0,0.06566 -0.0064,0.13069 -0.0192,0.19509c-0.0128,0.0644 -0.03177,0.12693 -0.0569,0.18759c-0.02513,0.06066 -0.05593,0.11829 -0.0924,0.17289c-0.03647,0.0546 -0.07793,0.10511 -0.1244,0.15154c-0.0464,0.04643 -0.0969,0.08788 -0.1515,0.12436c-0.0546,0.03648 -0.11223,0.06728 -0.1729,0.09241c-0.06067,0.02513 -0.1232,0.0441 -0.1876,0.05691c-0.0644,0.01281 -0.12943,0.01921 -0.1951,0.01921zM77.9761,1h-6c-0.06567,0 -0.1307,-0.0064 -0.1951,-0.01921c-0.0644,-0.01281 -0.12693,-0.03178 -0.1876,-0.05691c-0.06067,-0.02513 -0.1183,-0.05593 -0.1729,-0.09241c-0.0546,-0.03648 -0.1051,-0.07793 -0.1515,-0.12436c-0.0464,-0.04643 -0.08787,-0.09694 -0.1244,-0.15154c-0.03647,-0.05459 -0.06727,-0.11222 -0.0924,-0.17289c-0.02513,-0.06066 -0.0441,-0.12319 -0.0569,-0.18759c-0.0128,-0.0644 -0.0192,-0.12943 -0.0192,-0.19509c0,-0.06566 0.0064,-0.13069 0.0192,-0.19509c0.0128,-0.0644 0.03177,-0.12693 0.0569,-0.18759c0.02513,-0.06066 0.05593,-0.11829 0.0924,-0.17289c0.03653,-0.0546 0.078,-0.10511 0.1244,-0.15154c0.0464,-0.04643 0.0969,-0.08788 0.1515,-0.12436c0.0546,-0.03648 0.11223,-0.06728 0.1729,-0.09241c0.06067,-0.02513 0.1232,-0.0441 0.1876,-0.05691c0.0644,-0.01281 0.12943,-0.01921 0.1951,-0.01921h6c0.06567,0 0.1307,0.0064 0.1951,0.01921c0.0644,0.01281 0.12693,0.03178 0.1876,0.05691c0.06067,0.02513 0.1183,0.05593 0.1729,0.09241c0.0546,0.03648 0.1051,0.07793 0.1515,0.12436c0.04647,0.04643 0.08793,0.09694 0.1244,0.15154c0.03647,0.05459 0.06727,0.11222 0.0924,0.17289c0.02513,0.06066 0.0441,0.12319 0.0569,0.18759c0.0128,0.0644 0.0192,0.12943 0.0192,0.19509c0,0.06566 -0.0064,0.13069 -0.0192,0.19509c-0.0128,0.0644 -0.03177,0.12693 -0.0569,0.18759c-0.02513,0.06066 -0.05593,0.11829 -0.0924,0.17289c-0.03647,0.0546 -0.07793,0.10511 -0.1244,0.15154c-0.0464,0.04643 -0.0969,0.08788 -0.1515,0.12436c-0.0546,0.03648 -0.11223,0.06728 -0.1729,0.09241c-0.06067,0.02513 -0.1232,0.0441 -0.1876,0.05691c-0.0644,0.01281 -0.12943,0.01921 -0.1951,0.01921zM65.9761,1h-6c-0.06567,0 -0.1307,-0.0064 -0.1951,-0.01921c-0.0644,-0.01281 -0.12693,-0.03178 -0.1876,-0.05691c-0.06067,-0.02513 -0.11827,-0.05593 -0.1728,-0.09241c-0.0546,-0.03648 -0.10513,-0.07793 -0.1516,-0.12436c-0.0464,-0.04643 -0.08783,-0.09694 -0.1243,-0.15154c-0.03653,-0.05459 -0.06737,-0.11222 -0.0925,-0.17289c-0.02513,-0.06066 -0.0441,-0.12319 -0.0569,-0.18759c-0.0128,-0.0644 -0.0192,-0.12943 -0.0192,-0.19509c0,-0.06566 0.0064,-0.13069 0.0192,-0.19509c0.0128,-0.0644 0.03177,-0.12693 0.0569,-0.18759c0.02513,-0.06066 0.05597,-0.11829 0.0925,-0.17289c0.03647,-0.0546 0.0779,-0.10511 0.1243,-0.15154c0.04647,-0.04643 0.097,-0.08788 0.1516,-0.12436c0.05453,-0.03648 0.11213,-0.06728 0.1728,-0.09241c0.06067,-0.02513 0.1232,-0.0441 0.1876,-0.05691c0.0644,-0.01281 0.12943,-0.01921 0.1951,-0.01921h6c0.06567,0 0.1307,0.0064 0.1951,0.01921c0.0644,0.01281 0.12693,0.03178 0.1876,0.05691c0.06067,0.02513 0.1183,0.05593 0.1729,0.09241c0.0546,0.03648 0.1051,0.07793 0.1515,0.12436c0.04647,0.04643 0.08793,0.09694 0.1244,0.15154c0.03647,0.05459 0.06727,0.11222 0.0924,0.17289c0.02513,0.06066 0.0441,0.12319 0.0569,0.18759c0.0128,0.0644 0.0192,0.12943 0.0192,0.19509c0,0.06566 -0.0064,0.13069 -0.0192,0.19509c-0.0128,0.0644 -0.03177,0.12693 -0.0569,0.18759c-0.02513,0.06066 -0.05593,0.11829 -0.0924,0.17289c-0.03647,0.0546 -0.07793,0.10511 -0.1244,0.15154c-0.0464,0.04643 -0.0969,0.08788 -0.1515,0.12436c-0.0546,0.03648 -0.11223,0.06728 -0.1729,0.09241c-0.06067,0.02513 -0.1232,0.0441 -0.1876,0.05691c-0.0644,0.01281 -0.12943,0.01921 -0.1951,0.01921zM53.9761,1h-6c-0.06567,0 -0.1307,-0.0064 -0.1951,-0.01921c-0.0644,-0.01281 -0.12693,-0.03178 -0.1876,-0.05691c-0.06067,-0.02513 -0.11827,-0.05593 -0.1728,-0.09241c-0.0546,-0.03648 -0.10513,-0.07793 -0.1516,-0.12436c-0.0464,-0.04643 -0.08783,-0.09694 -0.1243,-0.15154c-0.03653,-0.05459 -0.06737,-0.11222 -0.0925,-0.17289c-0.02507,-0.06066 -0.04403,-0.12319 -0.0569,-0.18759c-0.0128,-0.0644 -0.0192,-0.12943 -0.0192,-0.19509c0,-0.06566 0.0064,-0.13069 0.0192,-0.19509c0.01287,-0.0644 0.03183,-0.12693 0.0569,-0.18759c0.02513,-0.06066 0.05597,-0.11829 0.0925,-0.17289c0.03647,-0.0546 0.0779,-0.10511 0.1243,-0.15154c0.04647,-0.04643 0.097,-0.08788 0.1516,-0.12436c0.05453,-0.03648 0.11213,-0.06728 0.1728,-0.09241c0.06067,-0.02513 0.1232,-0.0441 0.1876,-0.05691c0.0644,-0.01281 0.12943,-0.01921 0.1951,-0.01921h6c0.06567,0 0.1307,0.0064 0.1951,0.01921c0.0644,0.01281 0.12693,0.03178 0.1876,0.05691c0.06067,0.02513 0.1183,0.05593 0.1729,0.09241c0.0546,0.03648 0.1051,0.07793 0.1515,0.12436c0.04647,0.04643 0.08793,0.09694 0.1244,0.15154c0.03647,0.05459 0.06727,0.11222 0.0924,0.17289c0.02513,0.06066 0.0441,0.12319 0.0569,0.18759c0.0128,0.0644 0.0192,0.12943 0.0192,0.19509c0,0.06566 -0.0064,0.13069 -0.0192,0.19509c-0.0128,0.0644 -0.03177,0.12693 -0.0569,0.18759c-0.02513,0.06066 -0.05593,0.11829 -0.0924,0.17289c-0.03647,0.0546 -0.07793,0.10511 -0.1244,0.15154c-0.0464,0.04643 -0.0969,0.08788 -0.1515,0.12436c-0.0546,0.03648 -0.11223,0.06728 -0.1729,0.09241c-0.06067,0.02513 -0.1232,0.0441 -0.1876,0.05691c-0.0644,0.01281 -0.12943,0.01921 -0.1951,0.01921zM41.9761,1h-6c-0.06567,0 -0.1307,-0.0064 -0.1951,-0.01921c-0.0644,-0.01281 -0.12693,-0.03178 -0.1876,-0.05691c-0.06067,-0.02513 -0.11827,-0.05593 -0.1728,-0.09241c-0.0546,-0.03648 -0.10513,-0.07793 -0.1516,-0.12436c-0.0464,-0.04643 -0.08783,-0.09694 -0.1243,-0.15154c-0.03653,-0.05459 -0.06737,-0.11222 -0.0925,-0.17289c-0.02507,-0.06066 -0.04403,-0.12319 -0.0569,-0.18759c-0.0128,-0.0644 -0.0192,-0.12943 -0.0192,-0.19509c0,-0.06566 0.0064,-0.13069 0.0192,-0.19509c0.01287,-0.0644 0.03183,-0.12693 0.0569,-0.18759c0.02513,-0.06066 0.05597,-0.11829 0.0925,-0.17289c0.03647,-0.0546 0.0779,-0.10511 0.1243,-0.15154c0.04647,-0.04643 0.097,-0.08788 0.1516,-0.12436c0.05453,-0.03648 0.11213,-0.06728 0.1728,-0.09241c0.06067,-0.02513 0.1232,-0.0441 0.1876,-0.05691c0.0644,-0.01281 0.12943,-0.01921 0.1951,-0.01921h6c0.06567,0 0.1307,0.0064 0.1951,0.01921c0.0644,0.01281 0.12693,0.03178 0.1876,0.05691c0.06067,0.02513 0.1183,0.05593 0.1729,0.09241c0.0546,0.03648 0.1051,0.07793 0.1515,0.12436c0.04647,0.04643 0.08793,0.09694 0.1244,0.15154c0.03647,0.05459 0.06727,0.11222 0.0924,0.17289c0.02513,0.06066 0.0441,0.12319 0.0569,0.18759c0.0128,0.0644 0.0192,0.12943 0.0192,0.19509c0,0.06566 -0.0064,0.13069 -0.0192,0.19509c-0.0128,0.0644 -0.03177,0.12693 -0.0569,0.18759c-0.02513,0.06066 -0.05593,0.11829 -0.0924,0.17289c-0.03647,0.0546 -0.07793,0.10511 -0.1244,0.15154c-0.0464,0.04643 -0.0969,0.08788 -0.1515,0.12436c-0.0546,0.03648 -0.11223,0.06728 -0.1729,0.09241c-0.06067,0.02513 -0.1232,0.0441 -0.1876,0.05691c-0.0644,0.01281 -0.12943,0.01921 -0.1951,0.01921zM29.9761,1h-6c-0.06567,0 -0.1307,-0.0064 -0.1951,-0.01921c-0.0644,-0.01281 -0.12693,-0.03178 -0.1876,-0.05691c-0.06067,-0.02513 -0.11827,-0.05593 -0.1728,-0.09241c-0.0546,-0.03648 -0.10513,-0.07793 -0.1516,-0.12436c-0.0464,-0.04643 -0.08783,-0.09694 -0.1243,-0.15154c-0.03653,-0.05459 -0.06737,-0.11222 -0.0925,-0.17289c-0.02507,-0.06066 -0.04403,-0.12319 -0.0569,-0.18759c-0.0128,-0.0644 -0.0192,-0.12943 -0.0192,-0.19509c0,-0.06566 0.0064,-0.13069 0.0192,-0.19509c0.01287,-0.0644 0.03183,-0.12693 0.0569,-0.18759c0.02513,-0.06066 0.05597,-0.11829 0.0925,-0.17289c0.03647,-0.0546 0.0779,-0.10511 0.1243,-0.15154c0.04647,-0.04643 0.097,-0.08788 0.1516,-0.12436c0.05453,-0.03648 0.11213,-0.06728 0.1728,-0.09241c0.06067,-0.02513 0.1232,-0.0441 0.1876,-0.05691c0.0644,-0.01281 0.12943,-0.01921 0.1951,-0.01921h6c0.06567,0 0.1307,0.0064 0.1951,0.01921c0.0644,0.01281 0.12693,0.03178 0.1876,0.05691c0.06067,0.02513 0.1183,0.05593 0.1729,0.09241c0.0546,0.03648 0.1051,0.07793 0.1515,0.12436c0.04647,0.04643 0.08793,0.09694 0.1244,0.15154c0.03647,0.05459 0.06727,0.11222 0.0924,0.17289c0.02513,0.06066 0.0441,0.12319 0.0569,0.18759c0.0128,0.0644 0.0192,0.12943 0.0192,0.19509c0,0.06566 -0.0064,0.13069 -0.0192,0.19509c-0.0128,0.0644 -0.03177,0.12693 -0.0569,0.18759c-0.02513,0.06066 -0.05593,0.11829 -0.0924,0.17289c-0.03647,0.0546 -0.07793,0.10511 -0.1244,0.15154c-0.0464,0.04643 -0.0969,0.08788 -0.1515,0.12436c-0.0546,0.03648 -0.11223,0.06728 -0.1729,0.09241c-0.06067,0.02513 -0.1232,0.0441 -0.1876,0.05691c-0.0644,0.01281 -0.12943,0.01921 -0.1951,0.01921zM17.9761,1h-6c-0.06567,0 -0.1307,-0.0064 -0.1951,-0.01921c-0.0644,-0.01281 -0.1269,-0.03178 -0.1875,-0.05691c-0.06067,-0.02513 -0.1183,-0.05593 -0.1729,-0.09241c-0.0546,-0.03648 -0.10513,-0.07793 -0.1516,-0.12436c-0.0464,-0.04643 -0.08783,-0.09694 -0.1243,-0.15154c-0.03653,-0.05459 -0.06733,-0.11222 -0.0924,-0.17289c-0.02513,-0.06066 -0.04413,-0.12319 -0.057,-0.18759c-0.0128,-0.0644 -0.0192,-0.12943 -0.0192,-0.19509c0,-0.06566 0.0064,-0.13069 0.0192,-0.19509c0.01287,-0.0644 0.03187,-0.12693 0.057,-0.18759c0.02507,-0.06066 0.05587,-0.11829 0.0924,-0.17289c0.03647,-0.0546 0.0779,-0.10511 0.1243,-0.15154c0.04647,-0.04643 0.097,-0.08788 0.1516,-0.12436c0.0546,-0.03648 0.11223,-0.06728 0.1729,-0.09241c0.0606,-0.02513 0.1231,-0.0441 0.1875,-0.05691c0.0644,-0.01281 0.12943,-0.01921 0.1951,-0.01921h6c0.06567,0 0.1307,0.0064 0.1951,0.01921c0.0644,0.01281 0.12693,0.03178 0.1876,0.05691c0.06067,0.02513 0.1183,0.05593 0.1729,0.09241c0.0546,0.03648 0.1051,0.07793 0.1515,0.12436c0.04647,0.04643 0.08793,0.09694 0.1244,0.15154c0.03647,0.05459 0.06727,0.11222 0.0924,0.17289c0.02513,0.06066 0.0441,0.12319 0.0569,0.18759c0.0128,0.0644 0.0192,0.12943 0.0192,0.19509c0,0.06566 -0.0064,0.13069 -0.0192,0.19509c-0.0128,0.0644 -0.03177,0.12693 -0.0569,0.18759c-0.02513,0.06066 -0.05593,0.11829 -0.0924,0.17289c-0.03647,0.0546 -0.07793,0.10511 -0.1244,0.15154c-0.0464,0.04643 -0.0969,0.08788 -0.1515,0.12436c-0.0546,0.03648 -0.11223,0.06728 -0.1729,0.09241c-0.06067,0.02513 -0.1232,0.0441 -0.1876,0.05691c-0.0644,0.01281 -0.12943,0.01921 -0.1951,0.01921zM6.21714,1.22856c-1.25777,0.32981 -2.27149,0.925 -3.16753,1.82105c-0.38102,0.38101 -0.68501,0.76074 -0.97372,1.21808c-0.03505,0.05553 -0.07518,0.1071 -0.12039,0.15471c-0.04521,0.04762 -0.09463,0.09037 -0.14826,0.12826c-0.05363,0.03788 -0.11044,0.07017 -0.17043,0.09686c-0.05999,0.02669 -0.12201,0.04728 -0.18605,0.06176c-0.06405,0.01447 -0.12889,0.02256 -0.19453,0.02427c-0.06564,0.0017 -0.13081,-0.00302 -0.19552,-0.01415c-0.06471,-0.01113 -0.12772,-0.02847 -0.18901,-0.05202c-0.06129,-0.02355 -0.1197,-0.05284 -0.17523,-0.08789c-0.05552,-0.03505 -0.10709,-0.07518 -0.15471,-0.12039c-0.04762,-0.04521 -0.09037,-0.09463 -0.12825,-0.14826c-0.03788,-0.05363 -0.07017,-0.11044 -0.09686,-0.17043c-0.02669,-0.05999 -0.04728,-0.12201 -0.06175,-0.18605c-0.01448,-0.06405 -0.02257,-0.12889 -0.02427,-0.19453c-0.0017,-0.06564 0.00301,-0.13081 0.01415,-0.19552c0.01113,-0.06471 0.02847,-0.12772 0.05202,-0.18901c0.02355,-0.06129 0.05284,-0.1197 0.08789,-0.17523c0.34855,-0.55213 0.79161,-1.10558 1.25071,-1.56468c1.07698,-1.07697 2.54953,-1.94156 4.07445,-2.34142c0.06351,-0.01665 0.12804,-0.02695 0.19359,-0.0309c0.06554,-0.00394 0.13084,-0.00146 0.19589,0.00746c0.06505,0.00892 0.12861,0.0241 0.19067,0.04553c0.06207,0.02144 0.12144,0.04872 0.17813,0.08186c0.05669,0.03313 0.1096,0.07148 0.15873,0.11504c0.04913,0.04356 0.09355,0.09149 0.13324,0.14379c0.03969,0.05231 0.0739,0.10798 0.10263,0.16703c0.02873,0.05904 0.05142,0.12032 0.06807,0.18384c0.01665,0.06351 0.02695,0.12804 0.03089,0.19358c0.00395,0.06554 0.00146,0.13084 -0.00746,0.19589c-0.00892,0.06505 -0.0241,0.12861 -0.04553,0.19067c-0.02144,0.06206 -0.04873,0.12144 -0.08186,0.17813c-0.03313,0.05669 -0.07148,0.1096 -0.11504,0.15873c-0.04356,0.04913 -0.09149,0.09355 -0.14379,0.13324c-0.05231,0.03969 -0.10798,0.0739 -0.16703,0.10263c-0.05904,0.02873 -0.12032,0.05142 -0.18383,0.06807zM1,9.53577v6.00003c0,0.06567 -0.0064,0.1307 -0.01921,0.1951c-0.01281,0.0644 -0.03178,0.1269 -0.05691,0.1875c-0.02513,0.06067 -0.05593,0.1183 -0.09241,0.1729c-0.03648,0.0546 -0.07793,0.10513 -0.12436,0.1516c-0.04643,0.0464 -0.09694,0.08783 -0.15154,0.1243c-0.05459,0.03653 -0.11222,0.06733 -0.17289,0.0924c-0.06066,0.02513 -0.12319,0.04413 -0.18759,0.057c-0.0644,0.0128 -0.12943,0.0192 -0.19509,0.0192c-0.06566,0 -0.13069,-0.0064 -0.19509,-0.0192c-0.0644,-0.01287 -0.12693,-0.03187 -0.18759,-0.057c-0.06066,-0.02507 -0.11829,-0.05587 -0.17289,-0.0924c-0.0546,-0.03647 -0.10511,-0.0779 -0.15154,-0.1243c-0.04643,-0.04647 -0.08788,-0.097 -0.12436,-0.1516c-0.03648,-0.0546 -0.06728,-0.11223 -0.09241,-0.1729c-0.02513,-0.0606 -0.0441,-0.1231 -0.05691,-0.1875c-0.01281,-0.0644 -0.01921,-0.12943 -0.01921,-0.1951v-6.00003c0,-0.06567 0.0064,-0.1307 0.01921,-0.19509c0.01281,-0.0644 0.03178,-0.12693 0.05691,-0.1876c0.02513,-0.06066 0.05593,-0.11829 0.09241,-0.17288c0.03648,-0.0546 0.07793,-0.10511 0.12436,-0.15154c0.04643,-0.04643 0.09694,-0.08788 0.15154,-0.12436c0.05459,-0.03648 0.11222,-0.06728 0.17289,-0.09241c0.06066,-0.02513 0.12319,-0.0441 0.18759,-0.05691c0.0644,-0.01281 0.12943,-0.01921 0.19509,-0.01921c0.06566,0 0.13069,0.0064 0.19509,0.01921c0.0644,0.01281 0.12693,0.03178 0.18759,0.05691c0.06066,0.02513 0.11829,0.05593 0.17289,0.09241c0.0546,0.03648 0.10511,0.07793 0.15154,0.12436c0.04643,0.04643 0.08788,0.09694 0.12436,0.15154c0.03648,0.05459 0.06728,0.11222 0.09241,0.17288c0.02513,0.06067 0.0441,0.1232 0.05691,0.1876c0.01281,0.06439 0.01921,0.12942 0.01921,0.19509zM1,21.5358v6c0,0.06567 -0.0064,0.1307 -0.01921,0.1951c-0.01281,0.0644 -0.03178,0.1269 -0.05691,0.1875c-0.02513,0.06067 -0.05593,0.1183 -0.09241,0.1729c-0.03648,0.0546 -0.07793,0.10513 -0.12436,0.1516c-0.04643,0.0464 -0.09694,0.08783 -0.15154,0.1243c-0.05459,0.03653 -0.11222,0.06733 -0.17289,0.0924c-0.06066,0.02513 -0.12319,0.0441 -0.18759,0.0569c-0.0644,0.01287 -0.12943,0.0193 -0.19509,0.0193c-0.06566,0 -0.13069,-0.0064 -0.19509,-0.0192c-0.0644,-0.01287 -0.12693,-0.03187 -0.18759,-0.057c-0.06066,-0.02507 -0.11829,-0.05587 -0.17289,-0.0924c-0.0546,-0.03647 -0.10511,-0.0779 -0.15154,-0.1243c-0.04643,-0.04647 -0.08788,-0.097 -0.12436,-0.1516c-0.03648,-0.0546 -0.06728,-0.11223 -0.09241,-0.1729c-0.02513,-0.0606 -0.0441,-0.1231 -0.05691,-0.1875c-0.01281,-0.0644 -0.01921,-0.12943 -0.01921,-0.1951v-6c0,-0.06567 0.0064,-0.1307 0.01921,-0.1951c0.01281,-0.0644 0.03178,-0.12693 0.05691,-0.1876c0.02513,-0.06067 0.05593,-0.1183 0.09241,-0.1729c0.03648,-0.0546 0.07793,-0.1051 0.12436,-0.1515c0.04643,-0.04647 0.09694,-0.08793 0.15154,-0.1244c0.05459,-0.03647 0.11222,-0.06727 0.17289,-0.0924c0.06066,-0.02513 0.12319,-0.0441 0.18759,-0.0569c0.0644,-0.0128 0.12943,-0.0192 0.19509,-0.0192c0.06566,0 0.13069,0.0064 0.19509,0.0192c0.0644,0.0128 0.12693,0.03177 0.18759,0.0569c0.06066,0.02513 0.11829,0.05593 0.17289,0.0924c0.0546,0.03647 0.10511,0.07793 0.15154,0.1244c0.04643,0.0464 0.08788,0.0969 0.12436,0.1515c0.03648,0.0546 0.06728,0.11223 0.09241,0.1729c0.02513,0.06067 0.0441,0.1232 0.05691,0.1876c0.01281,0.0644 0.01921,0.12943 0.01921,0.1951zM1,33.5358v6c0,0.06567 -0.0064,0.1307 -0.01921,0.1951c-0.01281,0.0644 -0.03178,0.1269 -0.05691,0.1875c-0.02513,0.06067 -0.05593,0.1183 -0.09241,0.1729c-0.03648,0.0546 -0.07793,0.10513 -0.12436,0.1516c-0.04643,0.0464 -0.09694,0.08783 -0.15154,0.1243c-0.05459,0.03653 -0.11222,0.06733 -0.17289,0.0924c-0.06066,0.02513 -0.12319,0.0441 -0.18759,0.0569c-0.0644,0.01287 -0.12943,0.0193 -0.19509,0.0193c-0.06566,0 -0.13069,-0.00643 -0.19509,-0.0193c-0.0644,-0.0128 -0.12693,-0.03177 -0.18759,-0.0569c-0.06066,-0.02507 -0.11829,-0.05587 -0.17289,-0.0924c-0.0546,-0.03647 -0.10511,-0.0779 -0.15154,-0.1243c-0.04643,-0.04647 -0.08788,-0.097 -0.12436,-0.1516c-0.03648,-0.0546 -0.06728,-0.11223 -0.09241,-0.1729c-0.02513,-0.0606 -0.0441,-0.1231 -0.05691,-0.1875c-0.01281,-0.0644 -0.01921,-0.12943 -0.01921,-0.1951v-6c0,-0.06567 0.0064,-0.1307 0.01921,-0.1951c0.01281,-0.0644 0.03178,-0.12693 0.05691,-0.1876c0.02513,-0.06067 0.05593,-0.1183 0.09241,-0.1729c0.03648,-0.0546 0.07793,-0.1051 0.12436,-0.1515c0.04643,-0.04647 0.09694,-0.08793 0.15154,-0.1244c0.05459,-0.03647 0.11222,-0.06727 0.17289,-0.0924c0.06066,-0.02513 0.12319,-0.0441 0.18759,-0.0569c0.0644,-0.0128 0.12943,-0.0192 0.19509,-0.0192c0.06566,0 0.13069,0.0064 0.19509,0.0192c0.0644,0.0128 0.12693,0.03177 0.18759,0.0569c0.06066,0.02513 0.11829,0.05593 0.17289,0.0924c0.0546,0.03647 0.10511,0.07793 0.15154,0.1244c0.04643,0.0464 0.08788,0.0969 0.12436,0.1515c0.03648,0.0546 0.06728,0.11223 0.09241,0.1729c0.02513,0.06067 0.0441,0.1232 0.05691,0.1876c0.01281,0.0644 0.01921,0.12943 0.01921,0.1951zM1,45.5358v6c0,0.06567 -0.0064,0.1307 -0.01921,0.1951c-0.01281,0.06433 -0.03178,0.12683 -0.05691,0.1875c-0.02513,0.06067 -0.05593,0.1183 -0.09241,0.1729c-0.03648,0.0546 -0.07793,0.10513 -0.12436,0.1516c-0.04643,0.0464 -0.09694,0.08783 -0.15154,0.1243c-0.05459,0.03653 -0.11222,0.06733 -0.17289,0.0924c-0.06066,0.02513 -0.12319,0.04413 -0.18759,0.057c-0.0644,0.0128 -0.12943,0.0192 -0.19509,0.0192c-0.06566,0 -0.13069,-0.00643 -0.19509,-0.0193c-0.0644,-0.0128 -0.12693,-0.03177 -0.18759,-0.0569c-0.06066,-0.02507 -0.11829,-0.05587 -0.17289,-0.0924c-0.0546,-0.03647 -0.10511,-0.0779 -0.15154,-0.1243c-0.04643,-0.04647 -0.08788,-0.097 -0.12436,-0.1516c-0.03648,-0.0546 -0.06728,-0.11223 -0.09241,-0.1729c-0.02513,-0.06067 -0.0441,-0.12317 -0.05691,-0.1875c-0.01281,-0.0644 -0.01921,-0.12943 -0.01921,-0.1951v-6c0,-0.06567 0.0064,-0.1307 0.01921,-0.1951c0.01281,-0.0644 0.03178,-0.12693 0.05691,-0.1876c0.02513,-0.06067 0.05593,-0.1183 0.09241,-0.1729c0.03648,-0.0546 0.07793,-0.1051 0.12436,-0.1515c0.04643,-0.04647 0.09694,-0.08793 0.15154,-0.1244c0.05459,-0.03647 0.11222,-0.06727 0.17289,-0.0924c0.06066,-0.02513 0.12319,-0.0441 0.18759,-0.0569c0.0644,-0.0128 0.12943,-0.0192 0.19509,-0.0192c0.06566,0 0.13069,0.0064 0.19509,0.0192c0.0644,0.0128 0.12693,0.03177 0.18759,0.0569c0.06066,0.02513 0.11829,0.05593 0.17289,0.0924c0.0546,0.03647 0.10511,0.07793 0.15154,0.1244c0.04643,0.0464 0.08788,0.0969 0.12436,0.1515c0.03648,0.0546 0.06728,0.11223 0.09241,0.1729c0.02513,0.06067 0.0441,0.1232 0.05691,0.1876c0.01281,0.0644 0.01921,0.12943 0.01921,0.1951zM1,57.5358v6c0,0.06567 -0.0064,0.1307 -0.01921,0.1951c-0.01281,0.0644 -0.03178,0.1269 -0.05691,0.1875c-0.02513,0.06067 -0.05593,0.1183 -0.09241,0.1729c-0.03648,0.0546 -0.07793,0.10513 -0.12436,0.1516c-0.04643,0.0464 -0.09694,0.08783 -0.15154,0.1243c-0.05459,0.03653 -0.11222,0.06733 -0.17289,0.0924c-0.06066,0.02513 -0.12319,0.0441 -0.18759,0.0569c-0.0644,0.01287 -0.12943,0.0193 -0.19509,0.0193c-0.06566,0 -0.13069,-0.00643 -0.19509,-0.0193c-0.0644,-0.0128 -0.12693,-0.03177 -0.18759,-0.0569c-0.06066,-0.02507 -0.11829,-0.05587 -0.17289,-0.0924c-0.0546,-0.03647 -0.10511,-0.0779 -0.15154,-0.1243c-0.04643,-0.04647 -0.08788,-0.097 -0.12436,-0.1516c-0.03648,-0.0546 -0.06728,-0.11223 -0.09241,-0.1729c-0.02513,-0.0606 -0.0441,-0.1231 -0.05691,-0.1875c-0.01281,-0.0644 -0.01921,-0.12943 -0.01921,-0.1951v-6c0,-0.06567 0.0064,-0.1307 0.01921,-0.1951c0.01281,-0.0644 0.03178,-0.12693 0.05691,-0.1876c0.02513,-0.06067 0.05593,-0.1183 0.09241,-0.1729c0.03648,-0.0546 0.07793,-0.1051 0.12436,-0.1515c0.04643,-0.04647 0.09694,-0.08793 0.15154,-0.1244c0.05459,-0.03647 0.11222,-0.06727 0.17289,-0.0924c0.06066,-0.02513 0.12319,-0.0441 0.18759,-0.0569c0.0644,-0.0128 0.12943,-0.0192 0.19509,-0.0192c0.06566,0 0.13069,0.0064 0.19509,0.0192c0.0644,0.0128 0.12693,0.03177 0.18759,0.0569c0.06066,0.02513 0.11829,0.05593 0.17289,0.0924c0.0546,0.03647 0.10511,0.07793 0.15154,0.1244c0.04643,0.0464 0.08788,0.0969 0.12436,0.1515c0.03648,0.0546 0.06728,0.11223 0.09241,0.1729c0.02513,0.06067 0.0441,0.1232 0.05691,0.1876c0.01281,0.0644 0.01921,0.12943 0.01921,0.1951zM1,69.5358v6c0,0.0656 -0.0064,0.13063 -0.01921,0.1951c-0.01281,0.06433 -0.03178,0.12683 -0.05691,0.1875c-0.02513,0.06067 -0.05593,0.1183 -0.09241,0.1729c-0.03648,0.0546 -0.07793,0.10513 -0.12436,0.1516c-0.04643,0.0464 -0.09694,0.08783 -0.15154,0.1243c-0.05459,0.03653 -0.11222,0.06733 -0.17289,0.0924c-0.06066,0.02513 -0.12319,0.0441 -0.18759,0.0569c-0.0644,0.01287 -0.12943,0.0193 -0.19509,0.0193c-0.06566,0 -0.13069,-0.00643 -0.19509,-0.0193c-0.0644,-0.0128 -0.12693,-0.03177 -0.18759,-0.0569c-0.06066,-0.02507 -0.11829,-0.05587 -0.17289,-0.0924c-0.0546,-0.03647 -0.10511,-0.0779 -0.15154,-0.1243c-0.04643,-0.04647 -0.08788,-0.097 -0.12436,-0.1516c-0.03648,-0.0546 -0.06728,-0.11223 -0.09241,-0.1729c-0.02513,-0.06067 -0.0441,-0.12317 -0.05691,-0.1875c-0.01281,-0.06447 -0.01921,-0.1295 -0.01921,-0.1951v-6c0,-0.06567 0.0064,-0.1307 0.01921,-0.1951c0.01281,-0.0644 0.03178,-0.12693 0.05691,-0.1876c0.02513,-0.06067 0.05593,-0.1183 0.09241,-0.1729c0.03648,-0.0546 0.07793,-0.1051 0.12436,-0.1515c0.04643,-0.04647 0.09694,-0.08793 0.15154,-0.1244c0.05459,-0.03647 0.11222,-0.06727 0.17289,-0.0924c0.06066,-0.02513 0.12319,-0.0441 0.18759,-0.0569c0.0644,-0.0128 0.12943,-0.0192 0.19509,-0.0192c0.06566,0 0.13069,0.0064 0.19509,0.0192c0.0644,0.0128 0.12693,0.03177 0.18759,0.0569c0.06066,0.02513 0.11829,0.05593 0.17289,0.0924c0.0546,0.03647 0.10511,0.07793 0.15154,0.1244c0.04643,0.0464 0.08788,0.0969 0.12436,0.1515c0.03648,0.0546 0.06728,0.11223 0.09241,0.1729c0.02513,0.06067 0.0441,0.1232 0.05691,0.1876c0.01281,0.0644 0.01921,0.12943 0.01921,0.1951zM1,81.5358v6c0,0.06567 -0.0064,0.1307 -0.01921,0.1951c-0.01281,0.0644 -0.03178,0.1269 -0.05691,0.1875c-0.02513,0.06067 -0.05593,0.1183 -0.09241,0.1729c-0.03648,0.0546 -0.07793,0.10513 -0.12436,0.1516c-0.04643,0.0464 -0.09694,0.08783 -0.15154,0.1243c-0.05459,0.03653 -0.11222,0.06733 -0.17289,0.0924c-0.06066,0.02513 -0.12319,0.0441 -0.18759,0.0569c-0.0644,0.01287 -0.12943,0.0193 -0.19509,0.0193c-0.06566,0 -0.13069,-0.00643 -0.19509,-0.0193c-0.0644,-0.0128 -0.12693,-0.03177 -0.18759,-0.0569c-0.06066,-0.02507 -0.11829,-0.05587 -0.17289,-0.0924c-0.0546,-0.03647 -0.10511,-0.0779 -0.15154,-0.1243c-0.04643,-0.04647 -0.08788,-0.097 -0.12436,-0.1516c-0.03648,-0.0546 -0.06728,-0.11223 -0.09241,-0.1729c-0.02513,-0.0606 -0.0441,-0.1231 -0.05691,-0.1875c-0.01281,-0.0644 -0.01921,-0.12943 -0.01921,-0.1951v-6c0,-0.06567 0.0064,-0.1307 0.01921,-0.1951c0.01281,-0.0644 0.03178,-0.12693 0.05691,-0.1876c0.02513,-0.06067 0.05593,-0.1183 0.09241,-0.1729c0.03648,-0.0546 0.07793,-0.1051 0.12436,-0.1515c0.04643,-0.04647 0.09694,-0.08793 0.15154,-0.1244c0.05459,-0.03647 0.11222,-0.06727 0.17289,-0.0924c0.06066,-0.02513 0.12319,-0.0441 0.18759,-0.0569c0.0644,-0.0128 0.12943,-0.0192 0.19509,-0.0192c0.06566,0 0.13069,0.0064 0.19509,0.0192c0.0644,0.0128 0.12693,0.03177 0.18759,0.0569c0.06066,0.02513 0.11829,0.05593 0.17289,0.0924c0.0546,0.03647 0.10511,0.07793 0.15154,0.1244c0.04643,0.0464 0.08788,0.0969 0.12436,0.1515c0.03648,0.0546 0.06728,0.11223 0.09241,0.1729c0.02513,0.06067 0.0441,0.1232 0.05691,0.1876c0.01281,0.0644 0.01921,0.12943 0.01921,0.1951zM1,93.5358v6c0,0.0656 -0.0064,0.1306 -0.01921,0.195c-0.01281,0.0644 -0.03178,0.12693 -0.05691,0.1876c-0.02513,0.0604 -0.05593,0.11793 -0.09241,0.1726c-0.03648,0.05467 -0.07793,0.10533 -0.12436,0.152c-0.04643,0.04667 -0.09694,0.088 -0.15154,0.124c-0.05459,0.03667 -0.11222,0.06767 -0.17289,0.093c-0.06066,0.02467 -0.12319,0.04367 -0.18759,0.057c-0.0644,0.01267 -0.12943,0.019 -0.19509,0.019c-0.06566,0 -0.13069,-0.00633 -0.19509,-0.019c-0.0644,-0.01333 -0.12693,-0.03233 -0.18759,-0.057c-0.06066,-0.02533 -0.11829,-0.05633 -0.17289,-0.093c-0.0546,-0.036 -0.10511,-0.07733 -0.15154,-0.124c-0.04643,-0.04667 -0.08788,-0.09733 -0.12436,-0.152c-0.03648,-0.05467 -0.06728,-0.1122 -0.09241,-0.1726c-0.02513,-0.06067 -0.0441,-0.1232 -0.05691,-0.1876c-0.01281,-0.0644 -0.01921,-0.1294 -0.01921,-0.195v-6c0,-0.06567 0.0064,-0.1307 0.01921,-0.1951c0.01281,-0.0644 0.03178,-0.12693 0.05691,-0.1876c0.02513,-0.06067 0.05593,-0.1183 0.09241,-0.1729c0.03648,-0.0546 0.07793,-0.1051 0.12436,-0.1515c0.04643,-0.04647 0.09694,-0.08793 0.15154,-0.1244c0.05459,-0.03647 0.11222,-0.06727 0.17289,-0.0924c0.06066,-0.02513 0.12319,-0.0441 0.18759,-0.0569c0.0644,-0.0128 0.12943,-0.0192 0.19509,-0.0192c0.06566,0 0.13069,0.0064 0.19509,0.0192c0.0644,0.0128 0.12693,0.03177 0.18759,0.0569c0.06066,0.02513 0.11829,0.05593 0.17289,0.0924c0.0546,0.03647 0.10511,0.07793 0.15154,0.1244c0.04643,0.0464 0.08788,0.0969 0.12436,0.1515c0.03648,0.0546 0.06728,0.11223 0.09241,0.1729c0.02513,0.06067 0.0441,0.1232 0.05691,0.1876c0.01281,0.0644 0.01921,0.12943 0.01921,0.1951zM1.35485,105.208c0.35858,1.081 0.90494,1.953 1.69482,2.742c0.49068,0.491 0.99375,0.869 1.60714,1.203c0.05767,0.03133 0.11173,0.068 0.16216,0.11c0.05043,0.042 0.09628,0.08833 0.13755,0.139c0.04127,0.05133 0.07715,0.106 0.10766,0.164c0.03051,0.058 0.05505,0.11867 0.07363,0.182c0.01857,0.06267 0.03083,0.12667 0.03676,0.192c0.00594,0.066 0.00544,0.13133 -0.0015,0.196c-0.00693,0.06533 -0.02017,0.12933 -0.03972,0.192c-0.01954,0.06267 -0.04501,0.123 -0.0764,0.181c-0.03139,0.05733 -0.06811,0.11133 -0.11016,0.162c-0.04204,0.05067 -0.0886,0.09667 -0.13968,0.138c-0.05107,0.04133 -0.10568,0.077 -0.16382,0.107c-0.05815,0.03067 -0.11871,0.05533 -0.18168,0.074c-0.06298,0.01867 -0.12717,0.031 -0.19256,0.037c-0.06539,0.006 -0.13074,0.00533 -0.19603,-0.002c-0.06529,-0.00667 -0.12928,-0.01967 -0.19197,-0.039c-0.06268,-0.02 -0.12286,-0.04567 -0.18053,-0.077c-0.74112,-0.403 -1.47403,-0.953 -2.06505,-1.544c-0.95001,-0.95 -1.74444,-2.218 -2.17882,-3.527c-0.02068,-0.062 -0.03509,-0.12567 -0.04321,-0.191c-0.00813,-0.06533 -0.00982,-0.13067 -0.00508,-0.196c0.00474,-0.06533 0.01582,-0.12967 0.03325,-0.193c0.01743,-0.06333 0.04086,-0.12433 0.0703,-0.183c0.02944,-0.05867 0.06432,-0.114 0.10465,-0.166c0.04033,-0.05133 0.08532,-0.09867 0.13498,-0.142c0.04966,-0.04267 0.10303,-0.08033 0.16012,-0.113c0.05709,-0.03267 0.11679,-0.05933 0.17911,-0.08c0.06232,-0.02067 0.12606,-0.035 0.19121,-0.043c0.06516,-0.008 0.13048,-0.00967 0.19597,-0.005c0.06549,0.00467 0.12989,0.01567 0.19319,0.033c0.06331,0.01733 0.1243,0.041 0.183,0.071c0.05869,0.02933 0.11394,0.064 0.16576,0.104c0.05182,0.04067 0.09921,0.08567 0.14216,0.135c0.04296,0.05 0.08066,0.10333 0.1131,0.16c0.03244,0.05733 0.059,0.117 0.07969,0.179zM8,110h6c0.06567,0 0.1307,0.00633 0.1951,0.019c0.0644,0.01267 0.12693,0.03167 0.1876,0.057c0.06067,0.02533 0.1183,0.05633 0.1729,0.093c0.0546,0.036 0.1051,0.07733 0.1515,0.124c0.0464,0.04667 0.08787,0.097 0.1244,0.151c0.03647,0.05467 0.06727,0.11233 0.0924,0.173c0.02513,0.06067 0.0441,0.12333 0.0569,0.188c0.0128,0.06467 0.0192,0.12967 0.0192,0.195c0,0.06533 -0.0064,0.13033 -0.0192,0.195c-0.0128,0.06467 -0.03177,0.12733 -0.0569,0.188c-0.02513,0.06067 -0.05593,0.11833 -0.0924,0.173c-0.03653,0.054 -0.078,0.10433 -0.1244,0.151c-0.0464,0.04667 -0.0969,0.088 -0.1515,0.124c-0.0546,0.03667 -0.11223,0.06767 -0.1729,0.093c-0.06067,0.02533 -0.1232,0.04433 -0.1876,0.057c-0.0644,0.01267 -0.12943,0.019 -0.1951,0.019h-6c-0.06566,0 -0.13069,-0.00633 -0.19509,-0.019c-0.0644,-0.01267 -0.12693,-0.03167 -0.18759,-0.057c-0.06067,-0.02533 -0.1183,-0.05633 -0.17289,-0.093c-0.05459,-0.036 -0.10511,-0.07733 -0.15154,-0.124c-0.04643,-0.04667 -0.08788,-0.097 -0.12436,-0.151c-0.03648,-0.05467 -0.06728,-0.11233 -0.09241,-0.173c-0.02513,-0.06067 -0.0441,-0.12333 -0.05691,-0.188c-0.01281,-0.06467 -0.01921,-0.12967 -0.01921,-0.195c0,-0.06533 0.0064,-0.13033 0.01921,-0.195c0.01281,-0.06467 0.03178,-0.12733 0.05691,-0.188c0.02513,-0.06067 0.05593,-0.11833 0.09241,-0.173c0.03648,-0.054 0.07793,-0.10433 0.12436,-0.151c0.04643,-0.04667 0.09695,-0.088 0.15154,-0.124c0.05459,-0.03667 0.11222,-0.06767 0.17289,-0.093c0.06066,-0.02533 0.12319,-0.04433 0.18759,-0.057c0.0644,-0.01267 0.12943,-0.019 0.19509,-0.019z"></path></g><path id="并集" fill-rule="evenodd" style="fill:#E8E8E8" opacity="1" d="M52.15,42c0.66,0 1.24,0.45 1.43,1.1l0.4953,1.693h17.4247c0.83,0 1.5,0.61 1.5,1.38v22.45c0,0.76 -0.67,1.38 -1.5,1.38h-31c-0.83,0 -1.5,-0.62 -1.5,-1.38v-25.073c0,-0.86 0.67,-1.55 1.5,-1.55z"></path><path  id="并集" style="fill:#AAAAAA; opacity:1;" d="M58.5072,44.293h4v1h-4zM66.5072,44.293h4v1h-4zM73.5,47.142v4h-1v-4zM73.5,55.142v4h-1v-4zM73.5,63.142v4h-1v-4zM71.0193,70.503h-4v-1h4zM63.0193,70.503h-4v-1h4zM55.0193,70.503h-4v-1h4zM47.0193,70.503h-4v-1h4zM38.694,69.4315c-0.1149,-0.2265 -0.194,-0.5381 -0.194,-0.8085v-3.4425h1v3.4425c0,0.1454 0.0211,0.2285 0.0859,0.3562zM38.5,61.1805v-4h1v4zM38.5,53.1805v-4h1v4zM38.5,45.1805v-1.6305c0,-0.6412 0.3523,-1.3045 0.814,-1.6525c0.3084,-0.2324 0.7675,-0.3975 1.186,-0.3975h0.0339v1h-0.0339c-0.2442,0 -0.3967,0.0548 -0.5841,0.1961c-0.2845,0.2144 -0.4159,0.4618 -0.4159,0.8539v1.6305zM44.5339,41.5h4v1h-4zM52.15,41.5c0.3286,0 0.7019,0.1051 0.9717,0.26c0.4144,0.2379 0.7949,0.7094 0.9382,1.1997l0.4953,1.6929l-0.4799,0.1404v-0.5h0.4319v1h-0.8066l-0.6005,-2.0527c-0.0873,-0.2985 -0.2245,-0.4685 -0.4764,-0.6131c-0.1621,-0.0931 -0.2832,-0.1272 -0.4737,-0.1272z"></path><path id="路径 1" fill-rule="evenodd" style="fill:#677CED" opacity="1" d="M64.14 78.77C64.15 79.43 64.68 79.95 65.33 79.95C65.61 79.94 65.88 79.84 66.09 79.66L69.11 77.01L72.18 82.4C72.5 82.97 73.22 83.17 73.79 82.84L75.08 82.08C75.64 81.75 75.83 81.02 75.51 80.45L72.44 75.06L76.21 73.73C76.82 73.52 77.15 72.84 76.93 72.22C76.84 71.95 76.66 71.72 76.42 71.58L65.78 65.17C65.22 64.83 64.5 65.02 64.17 65.58C64.05 65.77 64 65.99 64 66.21L64.14 78.77Z"></path></g><defs><linearGradient id="linear_0" x1="0%" y1="50%" x2="100%" y2="50%" gradientUnits="objectBoundingBox"><stop offset="0" stop-color="#4781F2" stop-opacity="1" /><stop offset="0.4653" stop-color="#C96ED6" stop-opacity="1" /><stop offset="0.6806" stop-color="#FF6F99" stop-opacity="1" /><stop offset="1" stop-color="#FD9A51" stop-opacity="1" /></linearGradient><linearGradient id="linear_1" x1="0%" y1="100%" x2="95.173%" y2="0%" gradientUnits="objectBoundingBox"><stop offset="0" stop-color="#3D82F3" stop-opacity="1" /><stop offset="0.2917" stop-color="#B772E4" stop-opacity="1" /><stop offset="0.5625" stop-color="#FF63AD" stop-opacity="1" /><stop offset="1" stop-color="#FD9A51" stop-opacity="1" /></linearGradient></defs></svg>