<?xml version="1.0" standalone="no"?><!DOCTYPE svg PUBLIC "-//W3C//DTD SVG 1.1//EN" "http://www.w3.org/Graphics/SVG/1.1/DTD/svg11.dtd"><svg t="1749635130645" class="icon" viewBox="0 0 1024 1024" version="1.1" xmlns="http://www.w3.org/2000/svg" p-id="1334" xmlns:xlink="http://www.w3.org/1999/xlink" width="30" height="30"><path d="M759.398 29.798H246.272c-48.23 0-87.347 39.117-87.347 87.348v791.552c0 48.23 39.117 87.347 87.347 87.347h513.126c48.23 0 87.348-39.117 87.348-87.347V117.146c0-48.23-39.117-87.348-87.348-87.348z m-341.094 62.26h169.062c8.397 0 15.258 6.86 15.258 15.257s-6.86 15.258-15.258 15.258H418.304c-8.397 0-15.258-6.861-15.258-15.258s6.861-15.257 15.258-15.257z m84.582 802.61c-33.996 0-61.542-27.545-61.542-61.542 0-33.996 27.546-61.542 61.542-61.542 33.997 0 61.543 27.546 61.543 61.542-0.103 33.997-27.648 61.543-61.543 61.543z m279.962-227.634a21.764 21.764 0 0 1-21.811 21.81H244.634a21.764 21.764 0 0 1-21.812-21.81V202.138a21.764 21.764 0 0 1 21.812-21.812h516.3a21.764 21.764 0 0 1 21.812 21.812v464.896z" p-id="1335" fill="#ffffff"></path></svg>