<?xml version="1.0" encoding="UTF-8"?>
<svg viewBox="0 0 24 24" fill="none" xmlns="http://www.w3.org/2000/svg">
                <circle cx="12" cy="12" r="7" fill="#4682B4"/>
                <circle cx="12" cy="12" r="6" fill="#87CEEB"/>
                <g transform="rotate(0 12 12)">
                    <path d="M12 6 Q15 9 12 12 Q9 15 12 18 Q15 15 12 12 Q9 9 12 6" fill="#1E90FF"/>
                </g>
                <g transform="rotate(120 12 12)">
                    <path d="M12 6 Q15 9 12 12 Q9 15 12 18 Q15 15 12 12 Q9 9 12 6" fill="#1E90FF"/>
                </g>
                <g transform="rotate(240 12 12)">
                    <path d="M12 6 Q15 9 12 12 Q9 15 12 18 Q15 15 12 12 Q9 9 12 6" fill="#1E90FF"/>
                </g>
                <circle cx="12" cy="12" r="1.5" fill="#2F4F4F"/>
                <circle cx="12" cy="12" r="0.8" fill="#708090"/>
                <path d="M2 10 L5 12 L2 14 M2 12 L5 12" stroke="#32CD32" stroke-width="1" fill="none"/>
                <path d="M19 10 L22 12 L19 14 M19 12 L22 12" stroke="#FF4500" stroke-width="1" fill="none"/>
                <circle cx="20" cy="6" r="0.8" fill="#696969" opacity="0.5"/>
                <circle cx="21" cy="8" r="0.6" fill="#696969" opacity="0.4"/>
            </svg>