<svg xmlns="http://www.w3.org/2000/svg" xmlns:xlink="http://www.w3.org/1999/xlink" width="11.99951171875" height="13" viewBox="0 0 11.99951171875 13" fill="none"><path id="Fill 1 Copy 5" fill-rule="evenodd" style="fill:#BFBFBF" opacity="1" d="M5.65002 12.72L6.90002 11.61C7.36003 11.19 7.71003 10.38 7.71003 9.73L7.71003 6.26L11.71 1.47C11.83 1.33 11.91 1.18 11.96 1.03C12.02 0.84 12.01 0.65 11.94 0.48C11.87 0.31 11.75 0.18 11.57 0.09C11.44 0.03 11.29 0 11.11 0L0.890003 0C0.710003 0 0.560002 0.03 0.430002 0.09C0.250001 0.18 0.13 0.31 0.0600002 0.48C-0.01 0.65 -0.0200001 0.84 0.0400001 1.03C0.0900003 1.18 0.170001 1.33 0.290001 1.47L4.29002 6.26L4.29002 12.02C4.29002 12.7 4.65002 13 5.02002 13C5.23002 13 5.44002 12.91 5.65002 12.72Z"></path></svg>