<?xml version="1.0" encoding="UTF-8"?>
<svg viewBox="0 0 24 24" fill="none" xmlns="http://www.w3.org/2000/svg">
                <rect x="7" y="13.5" width="10" height="5" fill="#8B4513" rx="0.6"/>
                <rect x="7.2" y="13.7" width="9.6" height="4.6" fill="#D2691E"/>
                <rect x="9" y="11" width="6" height="2.2" fill="#708090" rx="1.1"/>
                <rect x="9.2" y="11.2" width="5.6" height="1.8" fill="#A9A9A9" rx="0.9"/>
                <circle cx="12" cy="15.5" r="1.5" fill="#4682B4"/>
                <circle cx="12" cy="15.5" r="1.1" fill="#87CEEB"/>
                <path d="M11 14.5 L13 16.5 M13 14.5 L11 16.5" stroke="#1E90FF" stroke-width="0.4"/>
                <circle cx="12" cy="15.5" r="0.25" fill="#2F4F4F"/>
                <rect x="7.5" y="11.8" width="0.8" height="0.8" fill="#32CD32" rx="0.2"/>
                <path d="M6.5 12.2 L7.5 12.2" stroke="#32CD32" stroke-width="0.3"/>
                <rect x="15.7" y="11.8" width="0.8" height="0.8" fill="#FF4500" rx="0.2"/>
                <path d="M16.5 12.2 L17.5 12.2" stroke="#FF4500" stroke-width="0.3"/>
                <rect x="7" y="13.3" width="10" height="0.2" fill="#654321"/>
                <circle cx="10" cy="17" r="0.12" fill="#87CEEB" opacity="0.5"/>
                <circle cx="14" cy="17" r="0.12" fill="#87CEEB" opacity="0.5"/>
            </svg>