<?xml version="1.0" encoding="UTF-8"?>
<svg viewBox="0 0 1024 1024" fill="#333333" xmlns="http://www.w3.org/2000/svg">
                <path d="M512 0a512 512 0 1 0 512 512A512 512 0 0 0 512 0z m248.888889 720.355556h-1.848889c0 66.275556-127.004444 81.351111-245.76 81.351111s-246.613333-14.933333-246.613333-81.351111V702.577778c0-48.64 87.893333-98.133333 162.56-125.155556 5.546667-1.848889 30.862222-15.928889 16.782222-54.186666a235.377778 235.377778 0 0 1-64.426667-158.862223c0-92.444444 60.728889-140.088889 132.693334-140.088889s132.693333 48.64 132.693333 140.088889a241.777778 241.777778 0 0 1-64.426667 158.862223c-14.222222 42.666667 8.391111 53.191111 12.088889 54.186666 78.506667 26.168889 166.257778 74.808889 166.257778 125.155556z"/>
            </svg>