<?xml version="1.0" encoding="UTF-8"?>
<svg viewBox="0 0 24 24" fill="none" xmlns="http://www.w3.org/2000/svg">
                <!-- 主通风管道 -->
                <rect x="4" y="10" width="16" height="4" fill="#7F8C8D" rx="2"/>
                <rect x="4.2" y="10.2" width="15.6" height="3.6" fill="#95A5A6" rx="1.8"/>
                
                <!-- 管道分段标识 -->
                <rect x="4" y="9.8" width="16" height="0.4" fill="#5D6D7E"/>
                <rect x="4" y="13.8" width="16" height="0.4" fill="#5D6D7E"/>
                
                <!-- 通风口/格栅 -->
                <rect x="6" y="8.5" width="3" height="2.5" fill="#34495E" rx="0.3"/>
                <rect x="6.2" y="8.7" width="2.6" height="2.1" fill="#2C3E50"/>
                <!-- 格栅线条 -->
                <line x1="6.4" y1="9" x2="8.6" y2="9" stroke="#7F8C8D" stroke-width="0.15"/>
                <line x1="6.4" y1="9.4" x2="8.6" y2="9.4" stroke="#7F8C8D" stroke-width="0.15"/>
                <line x1="6.4" y1="9.8" x2="8.6" y2="9.8" stroke="#7F8C8D" stroke-width="0.15"/>
                <line x1="6.4" y1="10.2" x2="8.6" y2="10.2" stroke="#7F8C8D" stroke-width="0.15"/>
                
                <rect x="15" y="13.5" width="3" height="2.5" fill="#34495E" rx="0.3"/>
                <rect x="15.2" y="13.7" width="2.6" height="2.1" fill="#2C3E50"/>
                <!-- 格栅线条 -->
                <line x1="15.4" y1="14" x2="17.6" y2="14" stroke="#7F8C8D" stroke-width="0.15"/>
                <line x1="15.4" y1="14.4" x2="17.6" y2="14.4" stroke="#7F8C8D" stroke-width="0.15"/>
                <line x1="15.4" y1="14.8" x2="17.6" y2="14.8" stroke="#7F8C8D" stroke-width="0.15"/>
                <line x1="15.4" y1="15.2" x2="17.6" y2="15.2" stroke="#7F8C8D" stroke-width="0.15"/>
                
                <!-- 风机系统 -->
                <circle cx="12" cy="12" r="2.5" fill="#2C3E50"/>
                <circle cx="12" cy="12" r="2" fill="#34495E"/>
                <circle cx="12" cy="12" r="1.5" fill="#4A90E2"/>
                
                <!-- 风机叶片 -->
                <g transform="rotate(0 12 12)">
                    <path d="M12 10.5 Q13.5 11.2 12 13.5 Q10.5 12.8 12 10.5" fill="#1E90FF"/>
                </g>
                <g transform="rotate(120 12 12)">
                    <path d="M12 10.5 Q13.5 11.2 12 13.5 Q10.5 12.8 12 10.5" fill="#1E90FF"/>
                </g>
                <g transform="rotate(240 12 12)">
                    <path d="M12 10.5 Q13.5 11.2 12 13.5 Q10.5 12.8 12 10.5" fill="#1E90FF"/>
                </g>
                <circle cx="12" cy="12" r="0.5" fill="#0D47A1"/>
                
                <!-- 气流指示 -->
                <path d="M8 12 L9.5 12 M8.7 11.6 L9.5 12 L8.7 12.4" stroke="#4A90E2" stroke-width="0.4" fill="none"/>
                <path d="M14.5 12 L16 12 M15.3 11.6 L16 12 L15.3 12.4" stroke="#4A90E2" stroke-width="0.4" fill="none"/>
                
                <!-- 气流粒子效果 -->
                <circle cx="9" cy="11.7" r="0.1" fill="#87CEEB" opacity="0.8"/>
                <circle cx="9.8" cy="12.2" r="0.1" fill="#87CEEB" opacity="0.6"/>
                <circle cx="14.2" cy="11.8" r="0.1" fill="#87CEEB" opacity="0.7"/>
                <circle cx="15" cy="12.3" r="0.1" fill="#87CEEB" opacity="0.5"/>
                
                <!-- 温度传感器 -->
                <rect x="21" y="11" width="1.5" height="2" fill="#E74C3C" rx="0.3"/>
                <circle cx="21.75" cy="11.4" r="0.2" fill="#FFFFFF"/>
                <rect x="21.6" y="11.8" width="0.3" height="1" fill="#FFFFFF" rx="0.15"/>
                
                <!-- 压力调节阀 -->
                <circle cx="3" cy="12" r="1.5" fill="#F39C12"/>
                <circle cx="3" cy="12" r="1" fill="#FFD700"/>
                <path d="M2.5 12 A0.5 0.5 0 0 1 3.5 12" stroke="#E67E22" stroke-width="0.3" fill="none"/>
                <circle cx="3" cy="12" r="0.2" fill="#D35400"/>
                
                <!-- AI智能控制面板 -->
                <rect x="17" y="5" width="3.5" height="3" fill="#9B59B6" rx="0.4"/>
                <rect x="17.2" y="5.2" width="3.1" height="2.6" fill="#8E44AD"/>
                <rect x="17.5" y="5.8" width="2.5" height="0.8" fill="#FFFFFF" rx="0.2"/>
                <text x="18.75" y="6.35" text-anchor="middle" fill="#8E44AD" font-size="0.6" font-weight="bold">AI暖通</text>
                <circle cx="17.7" cy="7.3" r="0.15" fill="#27AE60"/>
                <circle cx="18.4" cy="7.3" r="0.15" fill="#3498DB"/>
                <circle cx="19.1" cy="7.3" r="0.15" fill="#F39C12"/>
                
                <!-- 数据线连接 -->
                <path d="M17 6.5 Q16 7.5 15 8.5" stroke="#3498DB" stroke-width="0.25" stroke-dasharray="0.3,0.3" fill="none"/>
            </svg>