<svg xmlns="http://www.w3.org/2000/svg" xmlns:xlink="http://www.w3.org/1999/xlink" width="96" height="96" viewBox="0 0 96 96" fill="none">
<circle cx="48" cy="48" r="48"   fill="#FFC300" >
</circle>
<path d="M56.8889 59.1111L56.8889 56.8889L50.2222 56.8889L50.2222 50.2222L56.8889 50.2222L56.8889 54.6667L61.3333 54.6667L61.3333 59.1111L59.1111 59.1111L59.1111 63.5556L54.6667 63.5556L54.6667 68L50.2222 68L50.2222 61.3333L54.6667 61.3333L54.6667 59.1111L56.8889 59.1111ZM68 68L59.1111 68L59.1111 63.5556L63.5556 63.5556L63.5556 59.1111L68 59.1111L68 68ZM28 28L45.7778 28L45.7778 45.7778L28 45.7778L28 28ZM32.4444 32.4444L32.4444 41.3333L41.3333 41.3333L41.3333 32.4444L32.4444 32.4444ZM50.2222 28L68 28L68 45.7778L50.2222 45.7778L50.2222 28ZM54.6667 32.4444L54.6667 41.3333L63.5556 41.3333L63.5556 32.4444L54.6667 32.4444ZM28 50.2222L45.7778 50.2222L45.7778 68L28 68L28 50.2222ZM32.4444 54.6667L32.4444 63.5556L41.3333 63.5556L41.3333 54.6667L32.4444 54.6667ZM61.3333 50.2222L68 50.2222L68 54.6667L61.3333 54.6667L61.3333 50.2222ZM34.6667 34.6667L39.1111 34.6667L39.1111 39.1111L34.6667 39.1111L34.6667 34.6667ZM34.6667 56.8889L39.1111 56.8889L39.1111 61.3333L34.6667 61.3333L34.6667 56.8889ZM56.8889 34.6667L61.3333 34.6667L61.3333 39.1111L56.8889 39.1111L56.8889 34.6667Z"   fill="#FFFFFF" >
</path>
</svg>
